<svg width="64" height="64" viewBox="0 0 64 64" fill="none" xmlns="http://www.w3.org/2000/svg">
<rect width="64" height="64" rx="12" fill="#0014CD" fill-opacity="0.8"/>
<path d="M32.0596 25.4342C28.451 25.4342 25.5146 28.3712 25.5146 31.9812C25.5146 35.5907 28.451 38.5282 32.0596 38.5282C35.6678 38.5282 38.6041 35.5907 38.6041 31.9812C38.6041 28.3712 35.6678 25.4342 32.0596 25.4342ZM32.0596 37.3275C29.1127 37.3275 26.7154 34.9287 26.7154 31.9812C26.7154 29.0332 29.1127 26.6349 32.0596 26.6349C35.006 26.6349 37.4034 29.0332 37.4034 31.9812C37.4034 34.9287 35.006 37.3275 32.0596 37.3275Z" fill="white"/>
<path d="M43.2332 39.9035C43.3665 40.0111 43.5382 40.0583 43.7058 40.0295C43.8734 40.0024 44.0222 39.9058 44.1147 39.7624C45.0599 38.3005 45.7226 36.7003 46.0862 35.0071C46.1219 34.8403 46.0857 34.6662 45.9855 34.5283C45.8856 34.3905 45.7317 34.3016 45.5623 34.2837C44.3826 34.1596 43.4929 33.1696 43.4929 31.9812C43.4929 30.7924 44.3826 29.8028 45.5623 29.6782C45.7317 29.6608 45.8856 29.5715 45.9855 29.4336C46.0857 29.2962 46.1219 29.1221 46.0862 28.9553C45.7226 27.2616 45.0599 25.6614 44.1147 24.1996C44.0222 24.0566 43.8734 23.96 43.7058 23.9329C43.5382 23.9045 43.3665 23.9517 43.2332 24.0589C42.3118 24.8029 40.9829 24.7319 40.1444 23.8931C39.3049 23.0534 39.234 21.7244 39.9781 20.8026C40.0857 20.6702 40.1311 20.4984 40.1045 20.3298C40.0775 20.1622 39.9809 20.0133 39.8375 19.9207C38.3758 18.9756 36.7766 18.3118 35.0836 17.9485C34.9178 17.9137 34.7433 17.9494 34.6055 18.0498C34.4677 18.1492 34.3788 18.3036 34.361 18.4731C34.2369 19.6527 33.2472 20.5429 32.0593 20.5429C30.871 20.5429 29.8813 19.6527 29.7572 18.4731C29.7398 18.3036 29.6505 18.1492 29.5127 18.0498C29.3758 17.9494 29.1999 17.9142 29.0346 17.9485C27.342 18.3118 25.7433 18.9756 24.2807 19.9207C24.1378 20.0133 24.0407 20.1617 24.0141 20.3298C23.9871 20.4984 24.0329 20.6702 24.1401 20.8026C24.8851 21.7244 24.8142 23.0534 23.9747 23.8931C23.1353 24.7319 21.8064 24.8025 20.8854 24.0589C20.7526 23.9517 20.5823 23.9045 20.4133 23.9329C20.2452 23.96 20.0964 24.0566 20.0039 24.1996C19.0596 25.6596 18.3961 27.2594 18.032 28.9553C17.9963 29.1221 18.0324 29.2962 18.1327 29.4336C18.2326 29.5715 18.3869 29.6608 18.5563 29.6782C19.7355 29.8028 20.6253 30.7924 20.6253 31.9812C20.6253 33.1696 19.7355 34.1596 18.5563 34.2837C18.3869 34.3016 18.2326 34.3905 18.1327 34.5283C18.0324 34.6662 17.9963 34.8403 18.032 35.0071C18.3961 36.7026 19.0596 38.3023 20.0039 39.7624C20.0964 39.9058 20.2452 40.0024 20.4133 40.0295C20.5823 40.0583 20.7526 40.0111 20.8854 39.9035C21.8064 39.159 23.1358 39.2305 23.9747 40.0693C24.8142 40.909 24.8851 42.2376 24.1401 43.1593C24.0329 43.2922 23.9871 43.464 24.0141 43.6321C24.0407 43.8002 24.1378 43.9487 24.2807 44.0417C25.7433 44.9868 27.342 45.6506 29.0346 46.0134C29.199 46.0492 29.3748 46.013 29.5127 45.9126C29.6505 45.8128 29.7398 45.6588 29.7572 45.4893C29.8813 44.3097 30.871 43.4191 32.0593 43.4191C33.2472 43.4191 34.2369 44.3097 34.361 45.4893C34.3788 45.6588 34.4677 45.8128 34.6055 45.9126C34.7085 45.9878 34.8322 46.0272 34.9577 46.0272C34.9998 46.0272 35.0424 46.0221 35.0836 46.0134C36.7766 45.6506 38.3758 44.9868 39.8375 44.0417C39.9809 43.9487 40.0775 43.7998 40.1045 43.6321C40.1311 43.464 40.0857 43.2922 39.9781 43.1593C39.234 42.2376 39.3049 40.909 40.1444 40.0693C40.9824 39.23 42.3118 39.159 43.2332 39.9035ZM39.2953 39.22C38.1839 40.3318 37.9595 42.009 38.6711 43.3495C37.649 43.9464 36.5596 44.3985 35.4197 44.6986C34.9764 43.2468 33.6324 42.2184 32.0593 42.2184C30.4858 42.2184 29.1418 43.2464 28.6985 44.6986C27.5591 44.3985 26.4701 43.9464 25.447 43.3495C26.1591 42.009 25.9352 40.3318 24.8233 39.22C23.7114 38.1086 22.0358 37.8845 20.6959 38.5955C20.0987 37.5739 19.6472 36.4845 19.3463 35.3429C20.7984 34.8994 21.8256 33.5548 21.8256 31.9812C21.8256 30.4071 20.7984 29.0625 19.3463 28.6195C19.6472 27.4774 20.0987 26.388 20.6959 25.3664C22.0358 26.0783 23.7114 25.8538 24.8233 24.742C25.9352 23.6301 26.1591 21.9534 25.447 20.6125C26.4701 20.0156 27.5591 19.5639 28.6985 19.2633C29.1418 20.716 30.4858 21.744 32.0593 21.744C33.6324 21.744 34.9764 20.7151 35.4197 19.2633C36.5596 19.5639 37.649 20.0156 38.6711 20.6125C37.9595 21.9534 38.1839 23.6301 39.2953 24.742C40.4063 25.8529 42.0815 26.0779 43.4232 25.3664C44.0199 26.3885 44.4719 27.4788 44.7719 28.6195C43.3202 29.0625 42.2926 30.4071 42.2926 31.9812C42.2926 33.5548 43.3202 34.8994 44.7719 35.3429C44.4719 36.4836 44.0199 37.573 43.4232 38.5955C42.0833 37.8845 40.4068 38.1086 39.2953 39.22Z" fill="white"/>
<path d="M55.3364 34.0487C55.0034 34.0061 54.7094 34.248 54.6728 34.5778C54.6059 35.1624 54.5162 35.7506 54.4054 36.3251C54.3431 36.6513 54.556 36.966 54.8812 37.0288C54.9201 37.0356 54.9581 37.0393 54.9956 37.0393C55.2777 37.0393 55.5291 36.84 55.5846 36.5528C55.7009 35.9476 55.7952 35.3282 55.8648 34.7125C55.9024 34.3831 55.6656 34.0858 55.3364 34.0487Z" fill="white"/>
<path d="M10.9234 40.6973C10.7956 40.3913 10.4439 40.247 10.1394 40.3725C9.83255 40.4994 9.68738 40.8508 9.81469 41.1568C10.0524 41.7309 10.3139 42.2994 10.5918 42.8464C10.6981 43.0544 10.9087 43.1749 11.1276 43.1749C11.2188 43.1749 11.3117 43.1538 11.3987 43.1098C11.6946 42.9595 11.8123 42.5976 11.662 42.3021C11.3978 41.7826 11.1496 41.2425 10.9234 40.6973Z" fill="white"/>
<path d="M51.9308 44.2983C51.6547 44.116 51.2815 44.1938 51.1001 44.4715C50.7777 44.9626 50.4324 45.4477 50.0739 45.9123C49.8719 46.1748 49.9205 46.5518 50.1824 46.7547C50.2919 46.8386 50.421 46.8798 50.5488 46.8798C50.7287 46.8798 50.9064 46.7992 51.0246 46.6462C51.4015 46.1574 51.7651 45.647 52.104 45.1293C52.2858 44.8522 52.2084 44.4802 51.9308 44.2983Z" fill="white"/>
<path d="M53.0136 20.3372C52.7146 19.7984 52.3899 19.2633 52.0483 18.7461C51.8647 18.4689 51.4924 18.3938 51.2167 18.5766C50.9396 18.7599 50.8641 19.1318 51.0472 19.409C51.3719 19.8997 51.6801 20.4086 51.9645 20.9199C52.0739 21.1178 52.2786 21.2291 52.4898 21.2291C52.5882 21.2291 52.6885 21.2048 52.7806 21.1535C53.0704 20.9927 53.1748 20.6267 53.0136 20.3372Z" fill="white"/>
<path d="M48.8772 16.6204C48.9953 16.7501 49.1579 16.8165 49.3209 16.8165C49.4652 16.8165 49.6099 16.7647 49.7253 16.6598C49.9703 16.4363 49.9877 16.0569 49.7646 15.8114C49.347 15.3533 48.9083 14.9071 48.459 14.4847C48.2195 14.2584 47.8376 14.2684 47.6109 14.5112C47.3842 14.7527 47.3957 15.1329 47.6375 15.3597C48.0634 15.761 48.481 16.1848 48.8772 16.6204Z" fill="white"/>
<path d="M13.5009 45.3198C13.3072 45.0513 12.9326 44.9894 12.6633 45.1841C12.3941 45.3784 12.3336 45.7536 12.5278 46.0221C12.8887 46.5232 13.2738 47.0162 13.6731 47.4876C13.7922 47.6282 13.9616 47.7006 14.132 47.7006C14.2689 47.7006 14.4063 47.6534 14.5189 47.5586C14.7722 47.3442 14.8038 46.9653 14.5899 46.7124C14.2103 46.2639 13.8444 45.7953 13.5009 45.3198Z" fill="white"/>
<path d="M11.4477 19.5753C11.1276 20.1049 10.8244 20.6533 10.5464 21.2058C10.3976 21.5017 10.5171 21.8627 10.8134 22.0121C10.9 22.0551 10.992 22.0757 11.0822 22.0757C11.302 22.0757 11.5136 21.9548 11.6194 21.745C11.8823 21.2209 12.1703 20.6996 12.4744 20.197C12.6461 19.913 12.5554 19.5442 12.2715 19.3724C11.9876 19.201 11.6185 19.2917 11.4477 19.5753Z" fill="white"/>
<path d="M9.20119 32.082L9.20028 31.9812C9.20028 31.3935 9.22317 30.7988 9.26805 30.2134C9.29324 29.8826 9.04595 29.594 8.71531 29.5688C8.37231 29.5477 8.09617 29.791 8.07098 30.1217C8.02381 30.7379 8 31.3637 8 31.9918L8.00046 32.082C8.00046 32.4137 8.26927 32.6826 8.60082 32.6826C8.93238 32.6826 9.20119 32.4137 9.20119 32.082Z" fill="white"/>
<path d="M54.5528 26.2523C54.6068 26.2523 54.6613 26.2455 54.7154 26.2303C55.0341 26.141 55.2205 25.8098 55.1316 25.49C54.965 24.8945 54.7726 24.298 54.5601 23.718C54.4456 23.4074 54.1026 23.2461 53.7899 23.3616C53.4785 23.4752 53.3191 23.8206 53.4336 24.1322C53.6351 24.6824 53.8173 25.2481 53.9758 25.8139C54.0495 26.0792 54.2909 26.2523 54.5528 26.2523Z" fill="white"/>
<path d="M43.4718 51.7129C42.963 52.0093 42.4382 52.2883 41.9125 52.5426C41.6143 52.686 41.4889 53.0451 41.6331 53.3438C41.7361 53.5587 41.9505 53.6837 42.1739 53.6837C42.2614 53.6837 42.3498 53.664 42.4341 53.6237C42.9877 53.3571 43.5405 53.063 44.0767 52.7506C44.3629 52.5833 44.4595 52.2159 44.2929 51.9291C44.1266 51.6428 43.7589 51.5462 43.4718 51.7129Z" fill="white"/>
<path d="M54.237 39.372C53.9243 39.2575 53.5808 39.4205 53.4686 39.7325C53.2698 40.2836 53.0459 40.8357 52.8037 41.3721C52.6667 41.6745 52.8009 42.03 53.1032 42.1665C53.1833 42.2032 53.2671 42.2201 53.3495 42.2201C53.5785 42.2201 53.7969 42.0886 53.8972 41.8669C54.1528 41.3016 54.3886 40.7207 54.5979 40.1407C54.7101 39.8287 54.5489 39.4847 54.237 39.372Z" fill="white"/>
<path d="M9.83291 37.3372C9.69644 36.7696 9.57966 36.1864 9.4867 35.6027C9.4345 35.2756 9.12767 35.0525 8.79887 35.1048C8.47189 35.157 8.24933 35.4648 8.30154 35.7928C8.39908 36.4067 8.52227 37.0206 8.6656 37.6175C8.73155 37.8933 8.97792 38.078 9.24857 38.078C9.29482 38.078 9.34245 38.0725 9.38916 38.0615C9.71155 37.9836 9.9103 37.6592 9.83291 37.3372Z" fill="white"/>
<path d="M28.1243 54.4694C27.5404 54.3691 26.9588 54.2454 26.3955 54.1025C26.0745 54.0223 25.7475 54.2156 25.666 54.5368C25.5845 54.8588 25.7791 55.1855 26.1002 55.267C26.6941 55.4168 27.3064 55.5469 27.9205 55.6527C27.9548 55.6587 27.9896 55.6614 28.0231 55.6614C28.3102 55.6614 28.5634 55.4548 28.6138 55.163C28.6701 54.8359 28.4508 54.5258 28.1243 54.4694Z" fill="white"/>
<path d="M22.7199 11.0794C22.7992 11.0794 22.8802 11.0639 22.9581 11.0304C23.4984 10.7963 24.0526 10.5819 24.6048 10.3932C24.9181 10.2855 25.0852 9.94422 24.9781 9.62995C24.87 9.31659 24.5302 9.15121 24.2156 9.25658C23.6345 9.45586 23.0506 9.68171 22.4809 9.92818C22.1768 10.0601 22.0371 10.4133 22.1686 10.718C22.2666 10.9443 22.4873 11.0794 22.7199 11.0794Z" fill="white"/>
<path d="M35.0687 9.36702C35.0962 9.37022 35.1232 9.37206 35.1497 9.37206C35.4456 9.37206 35.7029 9.15353 35.7441 8.85209C35.7881 8.52362 35.5578 8.2208 35.2294 8.17636C34.6199 8.09436 33.9962 8.03526 33.3766 8.00044C33.0418 7.98808 32.762 8.235 32.7441 8.56622C32.7254 8.8979 32.9786 9.18102 33.3097 9.19935C33.8982 9.23233 34.4903 9.28868 35.0687 9.36702Z" fill="white"/>
<path d="M28.0247 9.51051C28.6027 9.40926 29.192 9.32864 29.7759 9.27183C30.1056 9.24022 30.3474 8.94656 30.3149 8.61626C30.2833 8.28687 29.9939 8.05002 29.6596 8.07705C29.0455 8.13615 28.4254 8.2209 27.8164 8.32856C27.4899 8.38582 27.2719 8.69735 27.3296 9.02399C27.3809 9.31535 27.6341 9.52013 27.9199 9.52013C27.9547 9.52013 27.9899 9.51692 28.0247 9.51051Z" fill="white"/>
<path d="M40.1964 10.6782C40.2669 10.7052 40.3402 10.7181 40.4121 10.7181C40.653 10.7181 40.8801 10.5719 40.9722 10.3333C41.0913 10.0236 40.9369 9.67585 40.6278 9.55674C40.0526 9.33593 39.46 9.1339 38.867 8.95706C38.5446 8.86223 38.214 9.04365 38.1201 9.36067C38.0248 9.67814 38.2062 10.013 38.5231 10.1074C39.0877 10.276 39.6506 10.4675 40.1964 10.6782Z" fill="white"/>
<path d="M44.8833 13.142C44.9872 13.213 45.1049 13.2469 45.2217 13.2469C45.4131 13.2469 45.6013 13.1557 45.7177 12.9853C45.905 12.7118 45.8349 12.338 45.561 12.1511C45.0477 11.7997 44.5174 11.4662 43.9866 11.1597C43.6995 10.9934 43.3322 11.0919 43.1664 11.3796C43.0007 11.6668 43.0991 12.0338 43.3863 12.1996C43.8909 12.491 44.3951 12.8085 44.8833 13.142Z" fill="white"/>
<path d="M23.0471 52.97C22.5063 52.7396 21.9691 52.4839 21.4489 52.2118C21.1539 52.057 20.7931 52.1719 20.6388 52.4651C20.4853 52.7588 20.5985 53.1216 20.892 53.2756C21.4397 53.5623 22.0057 53.8313 22.5745 54.0745C22.6519 54.1075 22.7316 54.1226 22.8108 54.1226C23.0434 54.1226 23.2651 53.9861 23.3631 53.7584C23.4931 53.4538 23.3516 53.1006 23.0471 52.97Z" fill="white"/>
<path d="M14.8628 15.1691C14.43 15.6107 14.0092 16.0748 13.6126 16.5485C13.3992 16.8023 13.4317 17.1812 13.6863 17.3942C13.799 17.4886 13.9354 17.5348 14.0714 17.5348C14.2432 17.5348 14.4131 17.462 14.5317 17.32C14.909 16.8701 15.3088 16.4294 15.7196 16.0102C15.9518 15.7733 15.9486 15.3927 15.7113 15.1608C15.4741 14.9281 15.0945 14.9327 14.8628 15.1691Z" fill="white"/>
<path d="M17.0735 49.2272C16.823 49.01 16.4447 49.0375 16.2267 49.2872C16.0097 49.5382 16.0367 49.9175 16.2872 50.1347C16.7543 50.5392 17.2424 50.9309 17.7393 51.2988C17.8469 51.3785 17.9724 51.4165 18.0961 51.4165C18.2802 51.4165 18.461 51.3327 18.5787 51.1732C18.7766 50.9071 18.7202 50.5305 18.4537 50.3335C17.9816 49.984 17.5172 49.6115 17.0735 49.2272Z" fill="white"/>
<path d="M55.1862 28.6145C54.8569 28.6534 54.6215 28.9516 54.6605 29.2815C54.7292 29.8647 54.7759 30.4575 54.7997 31.0448C54.813 31.3678 55.079 31.6211 55.3991 31.6211C55.4074 31.6211 55.4152 31.6211 55.4234 31.6206C55.7549 31.6069 56.0128 31.3279 55.999 30.9967C55.9748 30.3787 55.9248 29.7547 55.8525 29.1404C55.8136 28.811 55.5177 28.5741 55.1862 28.6145Z" fill="white"/>
<path d="M33.4109 54.7562C32.9497 54.7837 32.478 54.7983 32.0095 54.7988L31.6409 54.796C31.3171 54.7883 31.0369 55.0563 31.0323 55.3884C31.0277 55.7196 31.2924 55.9922 31.6244 55.9968L32.01 56C32.5032 55.9991 32.9982 55.9839 33.4837 55.9546C33.8143 55.9349 34.0662 55.6504 34.0465 55.3192C34.0263 54.9885 33.7374 54.7438 33.4109 54.7562Z" fill="white"/>
<path d="M38.6199 53.8263C38.0594 53.9949 37.4842 54.1451 36.9095 54.2711C36.5853 54.3421 36.3806 54.6624 36.4516 54.9858C36.5129 55.2671 36.7611 55.4581 37.0373 55.4581C37.0799 55.4581 37.1229 55.4535 37.166 55.4439C37.7714 55.3115 38.3772 55.1539 38.9666 54.9753C39.2844 54.88 39.4639 54.5446 39.3678 54.2271C39.273 53.9092 38.9373 53.7301 38.6199 53.8263Z" fill="white"/>
<path d="M9.0875 27.1681C9.13421 27.1787 9.18046 27.1837 9.2258 27.1837C9.49782 27.1837 9.74419 26.9973 9.80968 26.721C9.94477 26.1475 10.1037 25.5743 10.2818 25.0177C10.383 24.7016 10.209 24.364 9.89303 24.2628C9.57521 24.1629 9.23954 24.336 9.13879 24.6517C8.95103 25.2381 8.78342 25.8414 8.641 26.4457C8.56544 26.7682 8.76465 27.0916 9.0875 27.1681Z" fill="white"/>
<path d="M51.1709 50.223H47.6232C47.9337 49.9569 48.2401 49.6857 48.5332 49.4076C48.7736 49.179 48.7832 48.7987 48.5551 48.5582C48.3266 48.3182 47.9474 48.3086 47.7066 48.5362C47.3343 48.8899 46.9418 49.2335 46.5411 49.5652V45.5914C46.5411 45.2593 46.2727 44.9908 45.9412 44.9908C45.6092 44.9908 45.3408 45.2593 45.3408 45.5914V50.8236C45.3408 51.1558 45.6092 51.4242 45.9412 51.4242H51.1709C51.5025 51.4242 51.7708 51.1558 51.7708 50.8236C51.7708 50.492 51.5025 50.223 51.1709 50.223Z" fill="white"/>
<path d="M18.0044 19.136C18.3359 19.136 18.6043 18.8676 18.6043 18.5359V13.5227C19.0073 13.2295 19.4185 12.9459 19.8353 12.6816C20.1155 12.5048 20.1993 12.1341 20.0221 11.8538C19.8463 11.5743 19.4758 11.4896 19.1941 11.6673C18.6826 11.9907 18.1761 12.3389 17.6875 12.7031H12.7737C12.4422 12.7031 12.1738 12.9716 12.1738 13.3033C12.1738 13.6354 12.4422 13.9039 12.7737 13.9039H17.404V18.5359C17.404 18.8676 17.6724 19.136 18.0044 19.136Z" fill="white"/>
</svg>
