<svg width="224" height="65" viewBox="0 0 224 65" fill="none" xmlns="http://www.w3.org/2000/svg">
<path d="M103.787 41.8613H107.162C106.986 43.4785 106.523 44.9258 105.773 46.2031C105.023 47.4805 103.963 48.4941 102.592 49.2441C101.221 49.9824 99.5098 50.3516 97.459 50.3516C95.959 50.3516 94.5938 50.0703 93.3633 49.5078C92.1445 48.9453 91.0957 48.1484 90.2168 47.1172C89.3379 46.0742 88.6582 44.8262 88.1777 43.373C87.709 41.9082 87.4746 40.2793 87.4746 38.4863V35.9375C87.4746 34.1445 87.709 32.5215 88.1777 31.0684C88.6582 29.6035 89.3438 28.3496 90.2344 27.3066C91.1367 26.2637 92.2207 25.4609 93.4863 24.8984C94.752 24.3359 96.1758 24.0547 97.7578 24.0547C99.6914 24.0547 101.326 24.418 102.662 25.1445C103.998 25.8711 105.035 26.8789 105.773 28.168C106.523 29.4453 106.986 30.9277 107.162 32.6152H103.787C103.623 31.4199 103.318 30.3945 102.873 29.5391C102.428 28.6719 101.795 28.0039 100.975 27.5352C100.154 27.0664 99.082 26.832 97.7578 26.832C96.6211 26.832 95.6191 27.0488 94.752 27.4824C93.8965 27.916 93.1758 28.5312 92.5898 29.3281C92.0156 30.125 91.582 31.0801 91.2891 32.1934C90.9961 33.3066 90.8496 34.543 90.8496 35.9023V38.4863C90.8496 39.7402 90.9785 40.918 91.2363 42.0195C91.5059 43.1211 91.9102 44.0879 92.4492 44.9199C92.9883 45.752 93.6738 46.4082 94.5059 46.8887C95.3379 47.3574 96.3223 47.5918 97.459 47.5918C98.9004 47.5918 100.049 47.3633 100.904 46.9062C101.76 46.4492 102.404 45.793 102.838 44.9375C103.283 44.082 103.6 43.0566 103.787 41.8613ZM114.826 30.9805V50H111.574V30.9805H114.826ZM127.307 30.9805L118.289 41.8789H113.736L113.244 39.0312H116.971L123.352 30.9805H127.307ZM123.809 50L116.812 41.3867L118.904 39.0312L127.939 50H123.809ZM141.984 46.748V36.957C141.984 36.207 141.832 35.5566 141.527 35.0059C141.234 34.4434 140.789 34.0098 140.191 33.7051C139.594 33.4004 138.855 33.248 137.977 33.248C137.156 33.248 136.436 33.3887 135.814 33.6699C135.205 33.9512 134.725 34.3203 134.373 34.7773C134.033 35.2344 133.863 35.7266 133.863 36.2539H130.611C130.611 35.5742 130.787 34.9004 131.139 34.2324C131.49 33.5645 131.994 32.9609 132.65 32.4219C133.318 31.8711 134.115 31.4375 135.041 31.1211C135.979 30.793 137.021 30.6289 138.17 30.6289C139.553 30.6289 140.771 30.8633 141.826 31.332C142.893 31.8008 143.725 32.5098 144.322 33.459C144.932 34.3965 145.236 35.5742 145.236 36.9922V45.8516C145.236 46.4844 145.289 47.1582 145.395 47.873C145.512 48.5879 145.682 49.2031 145.904 49.7188V50H142.512C142.348 49.625 142.219 49.127 142.125 48.5059C142.031 47.873 141.984 47.2871 141.984 46.748ZM142.547 38.4688L142.582 40.7539H139.295C138.369 40.7539 137.543 40.8301 136.816 40.9824C136.09 41.123 135.48 41.3398 134.988 41.6328C134.496 41.9258 134.121 42.2949 133.863 42.7402C133.605 43.1738 133.477 43.6836 133.477 44.2695C133.477 44.8672 133.611 45.4121 133.881 45.9043C134.15 46.3965 134.555 46.7891 135.094 47.082C135.645 47.3633 136.318 47.5039 137.115 47.5039C138.111 47.5039 138.99 47.293 139.752 46.8711C140.514 46.4492 141.117 45.9336 141.562 45.3242C142.02 44.7148 142.266 44.123 142.301 43.5488L143.689 45.1133C143.607 45.6055 143.385 46.1504 143.021 46.748C142.658 47.3457 142.172 47.9199 141.562 48.4707C140.965 49.0098 140.25 49.4609 139.418 49.8242C138.598 50.1758 137.672 50.3516 136.641 50.3516C135.352 50.3516 134.221 50.0996 133.248 49.5957C132.287 49.0918 131.537 48.418 130.998 47.5742C130.471 46.7188 130.207 45.7637 130.207 44.709C130.207 43.6895 130.406 42.793 130.805 42.0195C131.203 41.2344 131.777 40.584 132.527 40.0684C133.277 39.541 134.18 39.1426 135.234 38.873C136.289 38.6035 137.467 38.4688 138.768 38.4688H142.547ZM164.695 30.9805V50H161.443V30.9805H164.695ZM163.588 39.7168V42.3887C162.932 42.6348 162.264 42.8574 161.584 43.0566C160.916 43.2441 160.207 43.3965 159.457 43.5137C158.719 43.6191 157.916 43.6719 157.049 43.6719C155.549 43.6719 154.248 43.4141 153.146 42.8984C152.045 42.3711 151.195 41.5801 150.598 40.5254C150 39.459 149.701 38.1172 149.701 36.5V30.9453H152.953V36.5C152.953 37.5547 153.111 38.4102 153.428 39.0664C153.744 39.7227 154.207 40.209 154.816 40.5254C155.426 40.8301 156.17 40.9824 157.049 40.9824C157.893 40.9824 158.684 40.9297 159.422 40.8242C160.172 40.707 160.887 40.5547 161.566 40.3672C162.258 40.1797 162.932 39.9629 163.588 39.7168ZM181.148 46.748V36.957C181.148 36.207 180.996 35.5566 180.691 35.0059C180.398 34.4434 179.953 34.0098 179.355 33.7051C178.758 33.4004 178.02 33.248 177.141 33.248C176.32 33.248 175.6 33.3887 174.979 33.6699C174.369 33.9512 173.889 34.3203 173.537 34.7773C173.197 35.2344 173.027 35.7266 173.027 36.2539H169.775C169.775 35.5742 169.951 34.9004 170.303 34.2324C170.654 33.5645 171.158 32.9609 171.814 32.4219C172.482 31.8711 173.279 31.4375 174.205 31.1211C175.143 30.793 176.186 30.6289 177.334 30.6289C178.717 30.6289 179.936 30.8633 180.99 31.332C182.057 31.8008 182.889 32.5098 183.486 33.459C184.096 34.3965 184.4 35.5742 184.4 36.9922V45.8516C184.4 46.4844 184.453 47.1582 184.559 47.873C184.676 48.5879 184.846 49.2031 185.068 49.7188V50H181.676C181.512 49.625 181.383 49.127 181.289 48.5059C181.195 47.873 181.148 47.2871 181.148 46.748ZM181.711 38.4688L181.746 40.7539H178.459C177.533 40.7539 176.707 40.8301 175.98 40.9824C175.254 41.123 174.645 41.3398 174.152 41.6328C173.66 41.9258 173.285 42.2949 173.027 42.7402C172.77 43.1738 172.641 43.6836 172.641 44.2695C172.641 44.8672 172.775 45.4121 173.045 45.9043C173.314 46.3965 173.719 46.7891 174.258 47.082C174.809 47.3633 175.482 47.5039 176.279 47.5039C177.275 47.5039 178.154 47.293 178.916 46.8711C179.678 46.4492 180.281 45.9336 180.727 45.3242C181.184 44.7148 181.43 44.123 181.465 43.5488L182.854 45.1133C182.771 45.6055 182.549 46.1504 182.186 46.748C181.822 47.3457 181.336 47.9199 180.727 48.4707C180.129 49.0098 179.414 49.4609 178.582 49.8242C177.762 50.1758 176.836 50.3516 175.805 50.3516C174.516 50.3516 173.385 50.0996 172.412 49.5957C171.451 49.0918 170.701 48.418 170.162 47.5742C169.635 46.7188 169.371 45.7637 169.371 44.709C169.371 43.6895 169.57 42.793 169.969 42.0195C170.367 41.2344 170.941 40.584 171.691 40.0684C172.441 39.541 173.344 39.1426 174.398 38.873C175.453 38.6035 176.631 38.4688 177.932 38.4688H181.711ZM196.986 30.9805V50H193.717V30.9805H196.986ZM203.367 30.9805V33.6172H187.459V30.9805H203.367ZM209.238 37.5195H214.951C216.486 37.5195 217.781 37.7891 218.836 38.3281C219.891 38.8555 220.688 39.5879 221.227 40.5254C221.777 41.4512 222.053 42.5059 222.053 43.6895C222.053 44.5684 221.9 45.3945 221.596 46.168C221.291 46.9297 220.834 47.5977 220.225 48.1719C219.627 48.7461 218.883 49.1973 217.992 49.5254C217.113 49.8418 216.1 50 214.951 50H206.865V30.9805H210.117V47.3281H214.951C215.889 47.3281 216.639 47.1582 217.201 46.8184C217.764 46.4785 218.168 46.0391 218.414 45.5C218.66 44.9609 218.783 44.3984 218.783 43.8125C218.783 43.2383 218.66 42.6758 218.414 42.125C218.168 41.5742 217.764 41.1172 217.201 40.7539C216.639 40.3789 215.889 40.1914 214.951 40.1914H209.238V37.5195Z" fill="black"/>
<path d="M16.25 0C14.0156 0 12.1875 1.82812 12.1875 4.0625V60.9375C12.1875 63.1719 14.0156 65 16.25 65H56.875C59.1094 65 60.9375 63.1719 60.9375 60.9375V16.25L44.6875 0H16.25Z" fill="#E2E5E7"/>
<path d="M48.75 16.25H60.9375L44.6875 0V12.1875C44.6875 14.4219 46.5156 16.25 48.75 16.25Z" fill="#B0B7BD"/>
<path d="M60.9375 28.4375L48.75 16.25H60.9375V28.4375Z" fill="#CAD1D8"/>
<path d="M52.8125 52.8125C52.8125 53.9297 51.8984 54.8438 50.7812 54.8438H6.09375C4.97656 54.8438 4.0625 53.9297 4.0625 52.8125V32.5C4.0625 31.3828 4.97656 30.4688 6.09375 30.4688H50.7812C51.8984 30.4688 52.8125 31.3828 52.8125 32.5V52.8125Z" fill="#F15642"/>
<path d="M12.9165 38.4861C12.9165 37.9499 13.339 37.3649 14.0195 37.3649H17.7712C19.8837 37.3649 21.7849 38.7786 21.7849 41.4883C21.7849 44.0558 19.8837 45.4858 17.7712 45.4858H15.0595V47.6308C15.0595 48.3458 14.6045 48.75 14.0195 48.75C13.4832 48.75 12.9165 48.3458 12.9165 47.6308V38.4861ZM15.0595 39.4103V43.4566H17.7712C18.8599 43.4566 19.7212 42.4958 19.7212 41.4883C19.7212 40.3528 18.8599 39.4103 17.7712 39.4103H15.0595Z" fill="white"/>
<path d="M24.966 48.75C24.4297 48.75 23.8447 48.4575 23.8447 47.7445V38.5186C23.8447 37.9356 24.4297 37.5111 24.966 37.5111H28.6852C36.1074 37.5111 35.9449 48.75 28.8314 48.75H24.966ZM25.9897 39.4936V46.7695H28.6852C33.0707 46.7695 33.2657 39.4936 28.6852 39.4936H25.9897Z" fill="white"/>
<path d="M38.5773 39.6236V42.2053H42.719C43.304 42.2053 43.889 42.7903 43.889 43.3571C43.889 43.8933 43.304 44.3321 42.719 44.3321H38.5773V47.7425C38.5773 48.3113 38.1731 48.748 37.6044 48.748C36.8894 48.748 36.4526 48.3113 36.4526 47.7425V38.5166C36.4526 37.9336 36.8914 37.5091 37.6044 37.5091H43.3061C44.0211 37.5091 44.4436 37.9336 44.4436 38.5166C44.4436 39.0366 44.0211 39.6216 43.3061 39.6216H38.5773V39.6236Z" fill="white"/>
<path d="M50.7812 54.8438H12.1875V56.875H50.7812C51.8984 56.875 52.8125 55.9609 52.8125 54.8438V52.8125C52.8125 53.9297 51.8984 54.8438 50.7812 54.8438Z" fill="#CAD1D8"/>
</svg>
