<svg width="100" height="100" viewBox="0 0 100 100" fill="none" xmlns="http://www.w3.org/2000/svg">
<path d="M50 100C77.6142 100 100 77.6142 100 50C100 22.3858 77.6142 0 50 0C22.3858 0 0 22.3858 0 50C0 77.6142 22.3858 100 50 100Z" fill="#4B7BA3"/>
<path d="M83.268 73.307H16.7326C16.3783 73.307 16.083 73.0118 16.083 72.6574V27.3425C16.083 26.9881 16.3783 26.6929 16.7326 26.6929H83.268C83.6224 26.6929 83.9176 26.9881 83.9176 27.3425V72.6574C83.9176 73.0118 83.6224 73.307 83.268 73.307Z" fill="#E6E9EE"/>
<path d="M16.9492 72.638C17.402 73.0514 18.0122 73.3073 18.6815 73.3073H81.3193C81.9886 73.3073 82.5988 73.0514 83.0516 72.638L50.0004 46.5356L16.9492 72.638Z" fill="#CED5E0"/>
<path d="M53.2281 52.9726L83.0903 27.382C82.6178 26.9489 82.0076 26.6733 81.3186 26.6733H18.6808C17.9919 26.6733 17.3816 26.9489 16.9092 27.382L46.7714 52.9726C48.6218 54.567 51.3777 54.567 53.2281 52.9726Z" fill="white"/>
</svg>
