<svg width="101" height="100" viewBox="0 0 101 100" fill="none" xmlns="http://www.w3.org/2000/svg">
<ellipse cx="50.0261" cy="50" rx="50.0261" ry="50" fill="white"/>
<path d="M71.4761 15H23.504C22.6747 15 22 15.6849 22 16.5267V83.4876C22.0141 84.2723 22.6044 84.9429 23.3915 85H71.3637C74.484 85 77 82.4317 77 79.2784V20.7216C77 17.6111 74.5543 15.0713 71.4761 15ZM24.8955 18.0391H71.4902C72.952 18.0391 74.1326 19.2377 74.1326 20.7216V71.0314C74.1326 72.5153 72.952 73.7138 71.4902 73.7138H24.8955V18.0391ZM74.1467 79.3355C74.1467 80.8194 72.966 82.0179 71.5042 82.0179H24.8955V76.753H71.4902C71.9118 76.753 72.3335 76.6959 72.7552 76.596H73.1487L73.964 76.2964H74.1467V79.3355Z" fill="#3D4CD9"/>
<path d="M58.0524 40.0407H56.7593C55.8457 40.0407 55.0726 39.3701 54.9321 38.4569C56.3517 37.3155 57.195 35.5747 57.2091 33.7341V28.2551C57.2091 24.8878 54.5244 22.1626 51.2073 22.1626H47.6934C44.3762 22.1626 41.6916 24.8878 41.6916 28.2551V33.7341C41.7056 35.5747 42.549 37.3155 43.9686 38.4569C43.828 39.3701 43.055 40.0407 42.1414 40.0407H40.9466C37.0813 40.0407 33.9609 43.2225 33.9609 47.132V51.0273C33.9609 51.8691 34.6356 52.554 35.4649 52.554H37.2781C36.8986 53.7953 36.6877 55.108 36.6877 56.4635C36.6877 63.569 42.3241 69.3619 49.2817 69.3619C49.3098 69.3619 49.3379 69.3619 49.366 69.3619C51.1089 69.3477 52.7534 68.9767 54.2714 68.2918C55.7895 67.664 57.181 66.7651 58.3476 65.5666C61.0603 62.8414 62.3394 59.046 61.9459 55.3077C61.8756 54.3518 61.7069 53.4243 61.4399 52.5397H63.2952C64.1245 52.5397 64.7992 51.8548 64.7992 51.013V47.1178C64.7992 43.3081 61.8194 40.1834 58.0524 40.0407ZM49.3519 66.0945H49.2957C47.4263 66.0945 45.6975 65.5238 44.2357 64.5678C47.3982 62.4704 51.4603 62.3848 54.7072 64.311C53.1329 65.4524 51.2776 66.0802 49.3519 66.0945ZM56.8577 62.0994C52.388 58.8177 46.2878 58.889 41.8884 62.3562C40.9607 61.1292 40.3141 59.6595 40.0611 58.0615H58.5725C58.3054 59.5311 57.7151 60.9009 56.8577 62.0994ZM40.033 55.0509C40.2579 53.5527 40.8201 52.1687 41.6354 50.9702C46.1613 54.7227 52.641 54.7513 57.2091 51.0701C58.0103 52.2686 58.5163 53.6241 58.699 55.0509H40.033ZM43.6313 48.8157C45.2336 47.5886 47.2155 46.8467 49.366 46.8467C51.5025 46.8467 53.5265 47.5601 55.171 48.8727C51.7133 51.384 47.0609 51.3554 43.6313 48.8157ZM61.8896 49.5148H60.0624C57.8135 45.9478 53.8498 43.565 49.3801 43.565C47.9042 43.565 46.4705 43.8218 45.1493 44.3069C44.9525 44.3782 44.7557 44.4496 44.5589 44.5209L44.4887 44.5637C42.2257 45.534 40.286 47.1463 38.9085 49.1866H36.997V46.8181C37.1656 44.7207 38.8804 43.1084 40.9607 43.1084H42.2538C44.9384 43.1084 47.1171 40.8968 47.1171 38.1716V37.6864C47.1171 37.13 46.8219 36.6163 46.344 36.3452C45.4163 35.8173 44.8401 34.8328 44.8119 33.7627V28.2837C44.8119 26.6 46.1613 25.2445 47.8058 25.2445H51.3197C52.9783 25.2445 54.3136 26.6143 54.3136 28.2837V33.7627C54.2855 34.8328 53.7092 35.8173 52.7815 36.3452C52.3036 36.6163 51.9944 37.13 52.0085 37.6864V38.1716C52.0085 40.8968 54.1871 43.1084 56.8717 43.1084H58.1649C60.3716 43.1084 62.1567 44.9204 62.1567 47.1606L61.8896 49.5148Z" fill="#3D4CD9"/>
</svg>
