<svg width="100" height="100" viewBox="0 0 100 100" fill="none" xmlns="http://www.w3.org/2000/svg">
<path d="M50 100C77.6142 100 100 77.6142 100 50C100 22.3858 77.6142 0 50 0C22.3858 0 0 22.3858 0 50C0 77.6142 22.3858 100 50 100Z" fill="#59AAE7"/>
<path d="M50.0004 0C47.79 0 45.6135 0.145313 43.4787 0.423242C68.0113 3.61914 86.9568 24.5963 86.9568 50C86.9568 75.4037 68.0111 96.3809 43.4785 99.5768C45.6135 99.8547 47.79 100 50.0004 100C77.6146 100 100 77.6141 100 50C100 22.3859 77.6146 0 50.0004 0Z" fill="#3D9AE3"/>
<path d="M32.1655 60.7698L16.0401 52.7072C15.5981 52.4861 15.5938 51.857 16.0327 51.6298L77.2946 19.9425C77.7446 19.7097 78.2641 20.1009 78.1649 20.5978L67.6172 73.3355C67.542 73.7118 67.1395 73.9236 66.7866 73.7724L52.452 67.6292C52.2803 67.5556 52.084 67.5656 51.9206 67.6564L33.3973 77.947C32.9946 78.1706 32.4995 77.8796 32.4995 77.4187V61.3105C32.4997 61.0814 32.3704 60.8722 32.1655 60.7698Z" fill="#FCFCFC"/>
<path d="M39.1227 66.2047L39.0225 50.1055C39.0219 50.0024 39.0752 49.9067 39.1631 49.853L65.3152 33.8768C65.6117 33.6957 65.9219 34.0883 65.677 34.3348L45.7746 54.3785C45.7527 54.4008 45.7342 54.4262 45.7203 54.4541L42.316 61.2623L39.6775 66.3381C39.5359 66.6106 39.1246 66.5116 39.1227 66.2047Z" fill="#D8D7DA"/>
</svg>
