<svg width="70" height="70" viewBox="0 0 70 70" fill="none" xmlns="http://www.w3.org/2000/svg">
<path d="M35 70C15.6558 70 0 54.3462 0 35C0 15.6555 15.6538 0 35 0C54.3442 0 70 15.6538 70 35C70 54.3445 54.3462 70 35 70Z" fill="#3D4CD9" fill-opacity="0.6"/>
<path d="M35.0003 0C34.9731 0 34.9462 0.000957031 34.9189 0.000957031V69.9989C34.9462 69.9989 34.9731 69.9999 35.0003 69.9999C54.3465 69.9999 70.0003 54.3443 70.0003 34.9999C70.0003 15.6537 54.3445 0 35.0003 0Z" fill="#3D4CD9"/>
<path d="M22.5297 47.4701C21.576 46.5167 21.576 44.9705 22.5297 44.0169L29.7352 36.8114C30.6886 35.8578 32.2348 35.8578 33.1884 36.8114C34.142 37.7649 34.142 39.311 33.1884 40.2646L25.9829 47.4701C25.0294 48.4237 23.4831 48.4239 22.5297 47.4701Z" fill="white"/>
<path d="M35.0004 32.3956C33.6518 32.3956 32.5586 31.3023 32.5586 29.9538V15.3026C32.5586 13.954 33.6519 12.8608 35.0004 12.8608C36.3488 12.8608 37.4422 13.9542 37.4422 15.3026V29.9538C37.4422 31.3023 36.349 32.3956 35.0004 32.3956Z" fill="white"/>
<path d="M35.0003 12.8604C34.9728 12.8604 34.9462 12.8636 34.9189 12.8645V32.391C34.9462 32.3919 34.9728 32.3951 35.0003 32.3951C36.3489 32.3951 37.4421 31.3018 37.4421 29.9533V15.3023C37.4421 13.9537 36.3489 12.8604 35.0003 12.8604Z" fill="white"/>
<path d="M34.9187 42.3253C30.8345 42.3253 27.5117 39.0026 27.5117 34.9182C27.5117 30.8339 30.8344 27.5112 34.9187 27.5112C39.0031 27.5112 42.3257 30.8339 42.3257 34.9182C42.3257 39.0026 39.0029 42.3253 34.9187 42.3253Z" fill="white"/>
<path d="M34.9189 27.5117V42.3256C39.0031 42.3256 42.326 39.0029 42.326 34.9186C42.326 30.8343 39.0031 27.5117 34.9189 27.5117Z" fill="white"/>
</svg>
