<svg width="70" height="70" viewBox="0 0 70 70" fill="none" xmlns="http://www.w3.org/2000/svg">
<path d="M70 35C70 15.67 54.33 4.17233e-06 35 4.17233e-06C15.67 4.17233e-06 0 15.67 0 35C0 54.33 15.67 70 35 70C54.33 70 70 54.33 70 35Z" fill="#3D4CD9"/>
<path fill-rule="evenodd" clip-rule="evenodd" d="M33.4208 31.7053V27.3447L39.8034 23.7036C36.4054 21.4283 31.7452 21.7768 28.7354 24.7521C26.5691 26.8923 25.779 29.8773 26.3647 32.6338L23.0377 35.922C22.3467 34.3368 21.9635 32.5895 21.9635 30.7529C21.9635 23.5292 27.8906 17.672 35.2024 17.672C42.5137 17.672 48.4405 23.5293 48.4405 30.7529C48.4405 37.978 42.5138 43.8352 35.2024 43.8352C33.2427 43.8352 31.3832 43.414 29.7103 42.6593L33.1102 39.2997C35.9003 39.8785 38.9211 39.0978 41.0874 36.9576C42.9497 35.1172 43.796 32.6515 43.624 30.2439L37.2417 33.8851L33.4208 31.7053ZM50.0694 16.0624C41.892 7.98246 28.5122 7.98246 20.3349 16.0624C12.1579 24.1428 12.1579 37.3642 20.3349 45.4442L34.4547 59.3975C34.8667 59.8041 35.5381 59.8041 35.9497 59.3975L50.0696 45.4442C58.2464 37.3642 58.2464 24.1428 50.0694 16.0624Z" fill="white"/>
</svg>
