<svg width="65" height="141" viewBox="0 0 65 141" fill="none" xmlns="http://www.w3.org/2000/svg">
<path d="M1.85317 138.691C1.02871 138.61 0.426024 137.876 0.507025 137.052L1.82701 123.616C1.90801 122.792 2.64203 122.189 3.46649 122.27C4.29095 122.351 4.89364 123.085 4.81264 123.91L3.63931 135.852L15.5818 137.026C16.4063 137.107 17.009 137.841 16.928 138.665C16.847 139.49 16.1129 140.092 15.2885 140.011L1.85317 138.691ZM17.2419 0.592578C27.8888 5.25098 38.6409 10.9835 47.1899 18.2863C55.7481 25.5972 62.1816 34.5557 63.9979 45.6538C65.8147 56.7552 62.9686 69.7348 53.4954 84.9994C44.0295 100.252 27.8936 117.878 2.95171 138.358L1.04797 136.039C25.8562 115.67 41.7203 98.2839 50.9464 83.4175C60.1651 68.5629 62.7028 56.3158 61.0373 46.1383C59.3711 35.9574 53.456 27.5847 45.2413 20.5674C37.0173 13.5421 26.5721 7.94946 16.0394 3.34102L17.2419 0.592578Z" fill="white"/>
</svg>
