<svg width="1920" height="2075" viewBox="0 0 1920 2075" fill="none" xmlns="http://www.w3.org/2000/svg">
<path d="M1954.53 790.099L1954.53 587.491C1954.53 575.09 1944.34 565 1931.81 565H1732.73C1720.21 565 1710.02 575.09 1710.02 587.492L1710.02 790.244C1704.2 792.185 1700 797.632 1700 804.037V814.813C1700 821.218 1704.2 826.666 1710.02 828.607V845.07C1710.02 856.059 1719.05 865 1730.15 865H1747.57C1758.67 865 1767.7 856.059 1767.7 845.069V829.367H1896.85V845.069C1896.85 856.059 1905.88 865 1916.98 865H1934.4C1945.5 865 1954.53 856.059 1954.53 845.069V828.752C1960.58 826.949 1965 821.384 1965 814.813V804.037C1965 797.467 1960.58 791.901 1954.53 790.099ZM1953.16 814.813C1953.16 817.461 1950.61 817.649 1948.61 817.649H1715.94C1714.03 817.649 1711.84 817.196 1711.84 814.813V804.037C1711.84 801.66 1714.03 801.202 1715.94 801.202H1948.61C1950.61 801.202 1953.16 801.381 1953.16 804.037V814.813ZM1942.69 789.483H1908.09C1908.73 783.528 1910.31 777.682 1912.8 772.221H1935.09C1939.28 772.221 1942.69 775.597 1942.69 779.746V789.483ZM1832.18 737.567C1828.91 737.567 1826.26 740.191 1826.26 743.426V789.483H1817L1800.63 780.239C1796.31 777.803 1793.45 773.424 1792.98 768.526L1788.85 725.577H1875.76L1871.62 768.526C1871.15 773.423 1868.29 777.803 1863.98 780.239L1847.6 789.483H1838.1V743.426C1838.1 740.19 1835.45 737.567 1832.18 737.567ZM1917.6 627.45C1917.74 632.562 1912.5 632.925 1908.64 632.925C1905.04 632.925 1760.71 632.925 1756.82 632.925C1754 632.925 1750.32 633.37 1748.27 631.138C1747.38 630.162 1746.97 628.825 1746.99 627.522C1747.05 624.304 1749.68 622.21 1752.79 622.178H1911.65C1914.79 622.21 1917.51 624.14 1917.6 627.45ZM1752.49 644.624C1758.15 644.818 1905.07 644.692 1910.91 644.644C1913.18 644.625 1915.45 644.395 1917.62 643.718V691.337C1886.3 687.149 1854.65 685.267 1823.05 685.722C1819.78 685.769 1817.17 688.431 1817.21 691.667V691.668V691.67C1817.26 694.877 1819.9 697.444 1823.13 697.444C1850.31 697.444 1877.34 698.405 1904.36 701.503L1880.79 713.859H1783.81L1760.26 701.511C1764.08 701.073 1767.9 700.659 1771.72 700.29C1774.98 699.977 1777.36 697.111 1777.04 693.89C1777.02 693.688 1776.99 693.49 1776.95 693.296C1776.36 690.382 1773.64 688.322 1770.58 688.623C1762.7 689.383 1754.82 690.287 1746.98 691.339V643.713C1748.64 644.233 1750.48 644.554 1752.49 644.624ZM1768.36 789.483C1767.72 780.692 1765.09 771.501 1760.79 763.769L1746.98 736.016L1746.98 707.808L1776.75 723.417L1781.19 769.637C1781.97 777.733 1786.43 785.027 1793.23 789.483H1768.36ZM1883.41 769.637L1887.85 723.418L1917.62 707.809V735.902L1903.75 763.769C1902.15 767.579 1900.28 771.177 1899.04 775.146C1897.58 779.805 1896.61 784.625 1896.19 789.484H1871.37C1878.17 785.027 1882.63 777.733 1883.41 769.637ZM1935.09 760.502H1918.6L1927.22 743.24H1933.96C1938.77 743.24 1942.69 747.117 1942.69 751.882V762.036C1940.35 761.049 1937.79 760.502 1935.09 760.502ZM1721.86 751.882C1721.86 747.117 1725.77 743.24 1730.58 743.24H1737.38L1745.97 760.502H1729.45C1726.76 760.502 1724.19 761.049 1721.85 762.036L1721.86 751.882ZM1721.86 779.746C1721.86 775.597 1725.26 772.221 1729.46 772.221H1751.75C1754.23 777.674 1755.83 783.535 1756.46 789.483H1721.86V779.746ZM1721.85 587.492C1721.85 581.552 1726.73 576.719 1732.73 576.719H1931.81C1937.81 576.719 1942.69 581.552 1942.69 587.492V733.449C1939.98 732.182 1936.96 731.522 1933.96 731.522H1929.46V627.551C1929.46 622.861 1927.46 618.159 1923.97 614.965C1920.45 611.735 1915.88 610.457 1911.16 610.457L1752.89 610.454C1748.28 610.454 1743.78 611.999 1740.44 615.205C1737.09 618.418 1735.14 622.938 1735.14 627.555V731.521H1730.58C1727.58 731.521 1724.57 732.183 1721.85 733.446L1721.85 587.492ZM1755.86 845.069C1755.86 849.597 1752.14 853.281 1747.57 853.281H1730.15C1725.58 853.281 1721.85 849.597 1721.85 845.069V829.367H1755.86L1755.86 845.069ZM1942.69 845.069C1942.69 849.597 1938.97 853.281 1934.4 853.281H1916.98C1912.4 853.281 1908.68 849.597 1908.68 845.069V829.367H1942.69V845.069H1942.69Z" fill="#3D4CD9" fill-opacity="0.2"/>
<path d="M1791.3 694.744C1792.54 697.693 1796.04 699.135 1799.03 697.914C1802.01 696.696 1803.47 693.212 1802.23 690.261C1801 687.312 1797.48 685.874 1794.5 687.092C1791.53 688.308 1790.06 691.798 1791.3 694.744Z" fill="#3D4CD9" fill-opacity="0.2"/>
<path d="M1807.99 737.567C1804.72 737.567 1802.07 740.191 1802.07 743.426V767.039C1802.07 770.274 1804.72 772.898 1807.99 772.898C1811.25 772.898 1813.9 770.274 1813.9 767.039V743.426C1813.9 740.19 1811.25 737.567 1807.99 737.567Z" fill="#3D4CD9" fill-opacity="0.2"/>
<path d="M1856.38 772.898C1859.65 772.898 1862.3 770.274 1862.3 767.039V743.426C1862.3 740.191 1859.65 737.567 1856.38 737.567C1853.11 737.567 1850.46 740.191 1850.46 743.426V767.039C1850.46 770.274 1853.11 772.898 1856.38 772.898Z" fill="#3D4CD9" fill-opacity="0.2"/>
<path d="M198.851 105.126C206.002 101.76 208.996 96.4336 209.899 91.9766C215.647 90.8526 220 85.7717 220 79.6871C220 72.7799 214.394 67.1603 207.502 67.1603H203.702C196.811 67.1603 191.204 72.7794 191.204 79.6871C191.204 85.4765 195.149 90.3479 200.483 91.7757C200.418 91.9272 200.349 92.0782 200.272 92.2321C199.172 94.4103 197.079 96.1157 194.043 97.3277C192.478 94.9769 191.206 93.2397 190.397 92.1782C190.069 86.6766 188.417 67.2579 180.797 47.5537C168.767 16.4439 147.684 0 119.829 0H55.4839C52.981 0 50.9515 2.03349 50.9515 4.54271C50.9515 7.05194 52.981 9.08543 55.4839 9.08543H119.829C143.903 9.08543 161.547 23.0672 172.27 50.6414C178.27 66.072 180.369 81.7229 181.074 89.3039H-31.0743C-30.3686 81.7217 -28.2689 66.0709 -22.2695 50.6414C-11.5474 23.0672 6.09668 9.08543 30.1706 9.08543H37.3538C39.8568 9.08543 41.8862 7.05194 41.8862 4.54271C41.8862 2.03349 39.8568 0 37.3538 0H30.1706C2.31535 0 -18.7674 16.4434 -30.7973 47.5537C-38.4166 67.2579 -40.0694 86.676 -40.3979 92.1782C-41.2067 93.2397 -42.4789 94.9769 -44.0433 97.3277C-47.0798 96.1157 -49.1721 94.4098 -50.2726 92.2321C-50.3502 92.0782 -50.4188 91.9261 -50.4833 91.7757C-45.1501 90.3468 -41.205 85.4765 -41.205 79.6871C-41.205 72.7799 -46.8113 67.1603 -53.7028 67.1603H-57.5022C-64.3937 67.1614 -70 72.7805 -70 79.6877C-70 85.7728 -65.6466 90.8526 -59.8987 91.9772C-58.9959 96.4342 -56.0024 101.76 -48.8504 105.127C-50.711 108.376 -52.6991 112.143 -54.673 116.378C-54.6878 116.407 -54.7002 116.437 -54.7144 116.467C-55.0916 117.277 -55.4683 118.098 -55.8427 118.942C-62.9126 134.86 -70.704 160.033 -67.7582 189.652V241.526C-67.7582 254.469 -57.2519 264.999 -44.3384 264.999C-31.4249 264.999 -20.9186 254.469 -20.9186 241.526V222.077H36.754V228.966C36.754 231.475 38.7834 233.509 41.2864 233.509H108.714C111.217 233.509 113.247 231.475 113.247 228.966V222.078H170.919V241.527C170.919 254.47 181.425 265 194.339 265C207.252 265 217.759 254.47 217.759 241.527V189.653C220.705 160.034 212.913 134.86 205.843 118.941C203.492 113.647 201.08 109.019 198.851 105.126ZM200.27 79.6877C200.27 77.7904 201.81 76.2469 203.703 76.2469H207.502C209.395 76.2469 210.935 77.791 210.935 79.6877C210.935 81.5849 209.395 83.1279 207.502 83.1279H203.703C201.81 83.1279 200.27 81.5849 200.27 79.6877ZM-53.7022 83.1279H-57.5022C-59.3952 83.1279 -60.9347 81.5844 -60.9347 79.6877C-60.9347 77.7904 -59.3946 76.2469 -57.5022 76.2469H-53.7022C-51.8093 76.2469 -50.2698 77.791 -50.2698 79.6877C-50.2698 81.5844 -51.8099 83.1279 -53.7022 83.1279ZM-33.7104 98.3922H183.71C185.811 101.243 190.246 107.681 194.846 116.94C192.291 118.689 189.619 120.269 186.858 121.671C183.429 119.401 179.327 118.074 174.919 118.074C166.73 118.074 159.587 122.64 155.885 129.363C155.481 129.37 155.078 129.38 154.676 129.38H-4.67523C-5.07738 129.38 -5.48066 129.37 -5.88451 129.363C-9.58654 122.64 -16.7295 118.074 -24.918 118.074C-29.3252 118.074 -33.4288 119.4 -36.8573 121.671C-39.6253 120.265 -42.305 118.679 -44.8669 116.925C-40.2756 107.708 -35.8179 101.247 -33.7104 98.3922ZM187.579 139.85C187.579 146.847 181.9 152.54 174.919 152.54C167.937 152.54 162.258 146.847 162.258 139.85C162.258 132.853 167.937 127.16 174.919 127.16C181.9 127.16 187.579 132.853 187.579 139.85ZM-12.2571 139.85C-12.2571 146.847 -17.9365 152.54 -24.918 152.54C-31.8995 152.54 -37.5789 146.847 -37.5789 139.85C-37.5789 132.853 -31.8995 127.16 -24.918 127.16C-17.9371 127.16 -12.2571 132.853 -12.2571 139.85ZM-59.1511 170.088C-59.0553 170.259 -59.0287 170.362 -59.0287 170.362L-59.1675 170.419C-59.1624 170.309 -59.1573 170.198 -59.1511 170.088ZM-29.9834 241.526C-29.9834 249.46 -36.4223 255.913 -44.3378 255.913C-52.2534 255.913 -58.6928 249.46 -58.6928 241.526V210.364C-58.6577 210.402 -58.6203 210.438 -58.5852 210.477C-53.3669 216.191 -46.233 220.144 -38.6268 221.507C-35.7579 222.021 -32.8862 222.077 -29.9834 222.077V241.526ZM104.182 224.423H45.8187V210.645H104.181V224.423H104.182ZM194.338 255.913C186.423 255.913 179.984 249.46 179.984 241.526V222.077C184.314 222.077 188.56 221.809 192.725 220.518C196.427 219.37 199.897 217.652 203.054 215.399C205.062 213.966 206.922 212.303 208.585 210.478C208.62 210.44 208.658 210.403 208.693 210.364V241.526H208.693C208.693 249.46 202.254 255.913 194.338 255.913ZM208.717 188.99C207.328 202.673 195.964 212.991 182.283 212.991H175.452H113.247V206.103C113.247 203.593 111.217 201.56 108.714 201.56H41.2858C38.7829 201.56 36.7534 203.593 36.7534 206.103V212.992H-25.451H-32.283C-45.964 212.992 -57.3278 202.673 -58.7166 188.991C-58.9811 186.382 -59.1562 183.809 -59.2502 181.277C-56.5122 182.807 -52.8849 184.409 -48.0755 185.936C-45.3404 189.684 -40.9218 192.126 -35.9437 192.126C-33.3626 192.126 -30.9321 191.47 -28.8081 190.316C-13.6749 192.753 5.29635 193.992 27.6428 193.992H122.358C144.704 193.992 163.675 192.754 178.808 190.316C180.932 191.47 183.363 192.126 185.944 192.126C190.922 192.126 195.34 189.684 198.076 185.936C202.884 184.409 206.51 182.808 209.248 181.277C209.152 183.812 208.981 186.383 208.717 188.99ZM-41.9029 177.067C-41.9029 173.774 -39.2294 171.095 -35.9437 171.095C-32.658 171.095 -29.9845 173.774 -29.9845 177.067C-29.9845 180.361 -32.658 183.04 -35.9437 183.04C-39.2294 183.04 -41.9029 180.361 -41.9029 177.067ZM179.983 177.067C179.983 173.774 182.657 171.095 185.943 171.095C189.228 171.095 191.902 173.774 191.902 177.067C191.902 180.361 189.228 183.04 185.943 183.04C182.657 183.04 179.983 180.361 179.983 177.067ZM209.179 170.423L209.028 170.361C209.028 170.361 209.056 170.251 209.162 170.068C209.169 170.186 209.173 170.305 209.179 170.423ZM200.856 175.263C199.963 167.808 193.618 162.009 185.944 162.009C177.659 162.009 170.919 168.764 170.919 177.068C170.919 178.855 171.234 180.57 171.806 182.162C158.127 183.982 141.546 184.907 122.358 184.907H27.6422C8.45407 184.907 -8.12748 183.982 -21.8062 182.162C-21.2336 180.57 -20.9192 178.855 -20.9192 177.068C-20.9192 168.764 -27.6594 162.009 -35.9437 162.009C-43.6185 162.009 -49.9634 167.808 -50.856 175.263C-56.9981 172.676 -58.8486 170.477 -59.1505 170.072C-58.1774 151.983 -53.4105 136.502 -48.7009 125.28C-46.9846 126.408 -45.2254 127.47 -43.4282 128.463C-45.4661 131.779 -46.6442 135.679 -46.6442 139.85C-46.6442 151.857 -36.8981 161.625 -24.9186 161.625C-12.9391 161.625 -3.19295 151.857 -3.19295 139.85C-3.19295 139.385 -3.21277 138.924 -3.24166 138.466H153.241C153.212 138.924 153.192 139.385 153.192 139.85C153.192 151.857 162.939 161.625 174.918 161.625C186.898 161.625 196.644 151.857 196.644 139.85C196.644 135.679 195.465 131.779 193.428 128.464C195.215 127.476 196.964 126.42 198.671 125.299C203.725 137.324 208.229 152.598 209.162 170.057C208.893 170.422 207.072 172.645 200.856 175.263Z" fill="#3D4CD9" fill-opacity="0.2"/>
<path d="M137.888 157.584H88.7281C86.8215 151.811 81.3897 147.633 74.9995 147.633C68.6093 147.633 63.1769 151.811 61.2709 157.584H12.112C9.60902 157.584 7.57959 159.617 7.57959 162.126C7.57959 164.635 9.60902 166.669 12.112 166.669H61.2715C63.1775 172.441 68.6099 176.62 75.0001 176.62C81.3903 176.62 86.8221 172.441 88.7286 166.669H137.888C140.391 166.669 142.421 164.635 142.421 162.126C142.421 159.617 140.391 157.584 137.888 157.584ZM75.0006 167.534C72.0253 167.534 69.605 165.108 69.605 162.126C69.605 159.144 72.0253 156.718 75.0006 156.718C77.976 156.718 80.3962 159.144 80.3962 162.126C80.3957 165.108 77.9748 167.534 75.0006 167.534Z" fill="#3D4CD9" fill-opacity="0.2"/>
<path d="M169.789 74.7841C168.296 67.3291 166.313 60.3777 163.893 54.1222C159.648 43.1412 154.181 34.544 147.643 28.5685C139.992 21.5739 130.894 18.1739 119.83 18.1739H108.666C106.163 18.1739 104.134 20.2074 104.134 22.7166C104.134 25.2259 106.163 27.2593 108.666 27.2593H119.83C128.53 27.2593 135.63 29.8832 141.535 35.2809C147.028 40.3022 151.707 47.7458 155.442 57.4058C157.08 61.6414 158.505 66.242 159.697 71.1355H34.4997C31.9967 71.1355 29.9673 73.169 29.9673 75.6783C29.9673 78.1875 31.9967 80.221 34.4997 80.221H165.344C166.702 80.221 167.989 79.6101 168.85 78.557C169.711 77.5045 170.055 76.1199 169.789 74.7841Z" fill="#3D4CD9" fill-opacity="0.2"/>
<path d="M90.5355 18.1739H30.1707C19.2306 18.1734 10.2185 21.4955 2.62073 28.3306C-3.88105 34.1784 -9.34007 42.6087 -13.6045 53.3865C-16.159 59.844 -18.2406 67.0436 -19.7897 74.7841C-20.057 76.1194 -19.7132 77.504 -18.8523 78.557C-17.9919 79.6101 -16.7045 80.221 -15.3462 80.221H16.3708C18.8738 80.221 20.9032 78.1875 20.9032 75.6783C20.9032 73.169 18.8738 71.1355 16.3708 71.1355H-9.69804C-8.44288 65.9877 -6.92888 61.1617 -5.17755 56.7359C-1.43531 47.2764 3.22565 39.9939 8.67504 35.0936C14.5351 29.8225 21.5665 27.2599 30.1713 27.2599H90.536C93.039 27.2599 95.0684 25.2264 95.0684 22.7172C95.0679 20.2074 93.0384 18.1739 90.5355 18.1739Z" fill="#3D4CD9" fill-opacity="0.2"/>
<path d="M1809.88 1959.98H1757.2C1753.91 1959.98 1751.03 1962.75 1751.03 1965.93V1988.53C1751.03 1991.71 1753.91 1994.48 1757.2 1994.48H1809.88C1813.17 1994.48 1816.05 1991.71 1816.05 1988.53V1965.93C1816.05 1962.36 1813.17 1959.98 1809.88 1959.98ZM1777.37 1982.58H1763.37V1971.87H1777.37V1982.58ZM1803.7 1982.19H1789.71V1971.48H1803.7V1982.19Z" fill="#3D4CD9" fill-opacity="0.2"/>
<path d="M1939.09 1959.98H1886.42C1883.13 1959.98 1880.25 1962.75 1880.25 1965.93V1988.53C1880.25 1991.71 1883.13 1994.48 1886.42 1994.48H1939.09C1942.39 1994.48 1945.27 1991.71 1945.27 1988.53V1965.93C1945.27 1962.36 1942.39 1959.98 1939.09 1959.98ZM1906.58 1982.58H1892.59V1971.87H1906.58V1982.58ZM1932.92 1982.19H1918.93V1971.48H1932.92V1982.19Z" fill="#3D4CD9" fill-opacity="0.2"/>
<path d="M1870.78 1770.38H1825.1C1821.81 1770.38 1818.93 1773.16 1818.93 1776.33C1818.93 1779.51 1821.81 1782.28 1825.1 1782.28H1870.78C1874.07 1782.28 1876.96 1779.51 1876.96 1776.33C1876.96 1773.16 1874.07 1770.38 1870.78 1770.38Z" fill="#3D4CD9" fill-opacity="0.2"/>
<path d="M1979.84 1799.34H1972.02V1784.27C1972.02 1762.45 1953.91 1745 1931.28 1745H1768.31C1745.68 1745 1727.57 1762.45 1727.57 1784.27V1799.34H1719.75C1709.05 1799.34 1700 1808.06 1700 1818.77V1862.8C1700 1873.51 1709.05 1882.24 1720.16 1882.24H1727.98V1991.71V2004V2058.74C1727.98 2067.46 1735.39 2075 1744.86 2075H1794.24C1803.29 2075 1811.11 2067.86 1811.11 2058.74V2043.27H1888.89V2058.74C1888.89 2067.46 1896.3 2075 1905.76 2075H1955.14C1964.2 2075 1972.02 2067.86 1972.02 2058.74V2004.4V1992.1V1882.24H1979.84C1990.95 1882.24 2000 1873.51 2000 1862.8V1818.77C2000 1808.06 1990.95 1799.34 1979.84 1799.34ZM1727.57 1870.34H1719.75C1715.64 1870.34 1711.93 1867.16 1711.93 1862.8V1818.77C1711.93 1814.81 1715.23 1811.24 1719.75 1811.24H1727.57V1870.34ZM1793.42 2063.1H1744.03C1741.56 2063.1 1739.51 2061.12 1739.51 2058.74V2032.16C1746.91 2038.91 1756.79 2043.27 1767.9 2043.27H1797.53V2058.74H1797.94C1797.94 2061.12 1795.88 2063.1 1793.42 2063.1ZM1953.5 2063.1H1904.12C1901.65 2063.1 1899.59 2061.12 1899.59 2058.74V2043.27H1929.22C1940.33 2043.27 1950.21 2038.91 1957.61 2032.16V2058.74C1958.02 2061.12 1955.97 2063.1 1953.5 2063.1ZM1958.02 1991.71V2004.4C1958.02 2019.47 1945.27 2031.77 1929.63 2031.77H1768.31C1752.67 2031.77 1739.92 2019.47 1739.92 2004.4V1992.1V1948.87H1956.38C1957.2 1948.87 1957.61 1948.87 1958.02 1948.47V1991.71ZM1958.02 1937.76C1957.61 1937.76 1956.79 1937.37 1956.38 1937.37H1944.03L1853.09 1880.25C1850.21 1878.67 1846.5 1879.06 1844.44 1881.84C1842.8 1884.62 1843.21 1888.19 1846.09 1890.17L1920.99 1936.97H1849.79L1759.26 1880.25C1756.38 1878.67 1752.67 1879.06 1750.62 1881.84C1748.97 1884.62 1749.38 1888.19 1752.26 1890.17L1827.16 1936.97H1739.92V1811.24H1958.02V1937.76ZM1958.02 1799.34H1739.92V1784.27C1739.92 1769.19 1752.67 1756.9 1768.31 1756.9H1929.63C1945.27 1756.9 1958.02 1769.19 1958.02 1784.27V1799.34ZM1985.6 1862.8C1985.6 1866.77 1982.3 1870.34 1977.78 1870.34H1969.96V1811.24H1977.78C1982.3 1811.24 1985.6 1814.81 1985.6 1818.77V1862.8Z" fill="#3D4CD9" fill-opacity="0.2"/>
<path d="M77.1875 1338.33C57.4401 1338.33 40.2119 1349.47 31.25 1365.88C22.2881 1349.47 5.05988 1338.33 -14.6875 1338.33C-41.1672 1338.33 -63.1188 1358.36 -66.6723 1384.28C-78.2396 1381.5 -86.875 1370.92 -86.875 1358.33V1347.5H-68.0078C-64.3837 1347.5 -61.4453 1344.52 -61.4453 1340.83C-61.4453 1337.15 -64.3837 1334.17 -68.0078 1334.17H-86.875V1322.5H-59.8047C-56.1805 1322.5 -53.2422 1319.52 -53.2422 1315.83C-53.2422 1312.15 -56.1805 1309.17 -59.8047 1309.17H-86.875V1274.38C-86.875 1270.69 -89.8134 1267.71 -93.4375 1267.71C-97.0616 1267.71 -100 1270.69 -100 1274.38V1358.33C-100 1378.25 -85.6011 1394.8 -66.8257 1397.83C-63.8054 1424.35 -41.5823 1445 -14.6875 1445C5.05988 1445 22.2881 1433.86 31.25 1417.45C40.2119 1433.86 57.4401 1445 77.1875 1445C106.136 1445 129.688 1421.08 129.688 1391.67C129.688 1362.26 106.136 1338.33 77.1875 1338.33ZM-14.6875 1431.67C-36.3995 1431.67 -54.0625 1413.72 -54.0625 1391.67C-54.0625 1369.61 -36.3995 1351.67 -14.6875 1351.67C7.02453 1351.67 24.6875 1369.61 24.6875 1391.67C24.6875 1413.72 7.02453 1431.67 -14.6875 1431.67ZM77.1875 1431.67C55.4755 1431.67 37.8125 1413.72 37.8125 1391.67C37.8125 1369.61 55.4755 1351.67 77.1875 1351.67C98.8995 1351.67 116.562 1369.61 116.562 1391.67C116.562 1413.72 98.8995 1431.67 77.1875 1431.67Z" fill="#3D4CD9" fill-opacity="0.2"/>
<path d="M77.1875 1378.33C69.9507 1378.33 64.0625 1384.32 64.0625 1391.67C64.0625 1399.02 69.9507 1405 77.1875 1405C84.4243 1405 90.3125 1399.02 90.3125 1391.67C90.3125 1384.32 84.4243 1378.33 77.1875 1378.33Z" fill="#3D4CD9" fill-opacity="0.2"/>
<path d="M-15.4673 1295.83H88.6722C103.147 1295.83 114.922 1283.87 114.922 1269.17V1230.83C114.922 1216.13 103.147 1204.17 88.6722 1204.17H-10.6619C-26.5308 1204.17 -40.445 1215.61 -43.7467 1231.38L-48.5513 1254.32C-53.0335 1275.72 -36.9594 1295.83 -15.4673 1295.83ZM101.797 1230.83V1269.17C101.797 1276.52 95.909 1282.5 88.6722 1282.5H36.1722V1217.5H88.6722C95.909 1217.5 101.797 1223.48 101.797 1230.83ZM-35.7134 1257.09L-30.9088 1234.15C-28.8884 1224.5 -20.3736 1217.5 -10.6619 1217.5H23.0472V1282.5H-15.4673C-28.648 1282.5 -38.4516 1270.16 -35.7134 1257.09Z" fill="#3D4CD9" fill-opacity="0.2"/>
<path d="M218.281 1330.83V1319.17C218.281 1315.48 215.343 1312.5 211.719 1312.5C208.095 1312.5 205.156 1315.48 205.156 1319.17V1330.83C205.156 1334.51 208.095 1337.5 211.719 1337.5C215.343 1337.5 218.281 1334.51 218.281 1330.83Z" fill="#3D4CD9" fill-opacity="0.2"/>
<path d="M313.438 1362.5H278.984V1205C278.984 1182.94 261.321 1165 239.609 1165H-60.625C-82.337 1165 -100 1182.94 -100 1205V1222.5C-100 1226.18 -97.0616 1229.17 -93.4375 1229.17C-89.8134 1229.17 -86.875 1226.18 -86.875 1222.5V1205C-86.875 1190.3 -75.0994 1178.33 -60.625 1178.33H239.609C254.084 1178.33 265.859 1190.3 265.859 1205V1385H246.172V1273.33C246.172 1258.63 234.396 1246.67 219.922 1246.67H172.344C157.869 1246.67 146.094 1258.63 146.094 1273.33V1366.67C146.094 1370.35 149.032 1373.33 152.656 1373.33C156.28 1373.33 159.219 1370.35 159.219 1366.67V1273.33C159.219 1265.98 165.107 1260 172.344 1260H219.922C227.159 1260 233.047 1265.98 233.047 1273.33V1385H152.656C149.032 1385 146.094 1387.98 146.094 1391.67C146.094 1395.35 149.032 1398.33 152.656 1398.33H313.438C317.062 1398.33 320 1395.35 320 1391.67V1369.17C320 1365.48 317.062 1362.5 313.438 1362.5ZM306.875 1385H278.984V1375.83H306.875V1385Z" fill="#3D4CD9" fill-opacity="0.2"/>
</svg>
