<svg width="800" height="800" viewBox="0 0 800 800" fill="none" xmlns="http://www.w3.org/2000/svg">
<g clip-path="url(#clip0_311_109)">
<path d="M750.269 408.994C749.162 406.078 748.616 403.039 748.616 400C748.616 396.941 749.162 393.9 750.269 391.006L779.481 314.306C782.003 307.691 783.223 300.784 783.223 294.005C783.234 275.191 773.878 257.039 757.392 246.267L688.659 201.406C683.48 198.016 679.708 192.827 678.094 186.831L656.645 107.609C649.873 82.6563 627.258 65.4969 601.62 65.475C600.659 65.475 599.698 65.5172 598.727 65.5578L600.173 65.475L516.992 69.6516L515.555 69.6719C509.777 69.6719 504.184 67.7078 499.677 64.0906L435.766 12.611C425.356 4.21721 412.641 -0.0218518 400.011 2.31938e-05C387.367 -0.0218518 374.655 4.21721 364.223 12.611L364.234 12.6328L300.32 64.0891C295.823 67.7078 290.211 69.6703 284.442 69.6703L283.511 69.65L201.239 65.5563H201.395C200.269 65.4938 199.266 65.4938 198.377 65.4938C172.742 65.4938 150.134 82.6531 143.364 107.606L121.914 186.828C120.302 192.823 116.53 198.013 111.35 201.403L42.6187 246.266C26.1312 257.038 16.7656 275.209 16.7766 294.022C16.7766 300.803 17.9953 307.688 20.5078 314.303L49.7406 391.003C50.8375 393.897 51.3953 396.936 51.3953 399.997C51.3953 403.036 50.8469 406.075 49.7406 408.969L20.5187 485.691C17.9969 492.284 16.7766 499.169 16.7766 505.95C16.7656 524.764 26.1203 542.938 42.6187 553.728L111.35 598.594C116.528 601.984 120.302 607.153 121.914 613.148L143.364 692.37C150.134 717.323 172.752 734.483 198.377 734.483C199.266 734.483 200.206 734.483 201.22 734.42L283.214 730.327H283.369L284.486 730.286C290.223 730.306 295.816 732.27 300.322 735.889L364.236 787.388C374.656 795.781 387.359 799.998 400.012 799.998C412.644 799.998 425.358 795.781 435.778 787.388L499.692 735.889C504.198 732.25 509.781 730.286 515.527 730.286L516.758 730.327L598.367 734.4L598.916 734.42C599.764 734.461 600.662 734.483 601.623 734.483C627.248 734.483 649.877 717.344 656.648 692.37L678.097 613.148C679.709 607.153 683.473 601.984 688.652 598.594L757.394 553.731C773.881 542.941 783.236 524.788 783.225 505.975C783.225 499.194 782.005 492.289 779.483 485.673L750.269 408.994ZM740.014 527.145L671.294 572.008C659.581 579.656 651.095 591.338 647.436 604.858L625.986 684.059C623.008 695.141 612.95 702.728 601.62 702.728L600.236 702.706L519.825 698.675L518.43 698.613C517.5 698.572 516.537 698.53 515.523 698.53C502.541 698.53 489.909 702.975 479.758 711.161L415.845 762.661C411.203 766.381 405.642 768.242 400.009 768.242C394.366 768.242 388.803 766.381 384.162 762.661L320.248 711.161C310.097 702.975 297.466 698.53 284.483 698.53C283.634 698.55 282.664 698.55 281.62 698.613L199.647 702.706L198.375 702.728C187.056 702.748 176.998 695.12 174.02 684.081L152.572 604.838C148.913 591.338 140.425 579.656 128.703 572.008L59.9844 527.145C52.6766 522.369 48.5422 514.306 48.5312 505.953C48.5312 502.956 49.0687 499.938 50.1844 497.002L79.4078 420.302C81.8984 413.769 83.15 406.884 83.15 400C83.15 393.116 81.8984 386.231 79.4078 379.677L50.1844 302.997C49.0687 300.041 48.5312 297.022 48.5312 294.023C48.5422 285.672 52.6656 277.63 59.9734 272.853L128.716 227.991C140.427 220.32 148.914 208.639 152.573 195.139L174.022 115.895C177 104.856 187.069 97.2266 198.377 97.2485L199.494 97.2703L199.845 97.2906L280.742 101.322L281.692 101.363L284.442 101.423C297.436 101.423 310.067 97 320.239 88.8328L384.153 37.3328L374.198 24.9703L384.164 37.3328C388.805 33.5906 394.367 31.7516 400.011 31.7297C405.644 31.75 411.205 33.5906 415.847 37.3328L479.77 88.811C489.942 97.0188 502.584 101.422 515.558 101.422C516.519 101.422 517.398 101.402 518.194 101.381L600.88 97.2469L601.623 97.225C612.944 97.225 623.011 104.855 625.989 115.894L647.439 195.138C651.098 208.638 659.584 220.319 671.297 227.969L740.027 272.852C747.336 277.627 751.47 285.67 751.47 294.002C751.47 296.998 750.944 300.017 749.806 303.016L720.605 379.695C718.102 386.228 716.862 393.114 716.862 399.998C716.862 406.883 718.113 413.767 720.605 420.3L749.816 496.98C750.944 499.956 751.47 502.975 751.47 505.973C751.467 514.306 747.333 522.369 740.014 527.145Z" fill="white"/>
<path d="M481 256.916C477.858 252.098 472.544 249.163 466.819 249.163H456.388C449.834 249.163 443.891 252.988 441.12 258.961L317.892 527.02C315.577 532.167 315.95 538.267 319.03 543.083C322.152 547.9 327.505 550.836 333.242 550.836H343.62C350.195 550.836 356.17 547.031 358.898 541.056L482.145 272.998C484.505 267.853 484.102 261.753 481 256.916Z" fill="white"/>
<path d="M353.514 376.619C356.481 368.122 357.38 374.034 357.38 347.261C357.38 320.447 356.481 326.38 353.514 317.822C346.309 296.611 325.873 282.923 298.614 282.923C271.375 282.923 250.981 296.611 243.734 317.822C240.747 326.381 239.889 320.447 239.889 347.261C239.889 374.033 240.747 368.12 243.734 376.619C250.981 397.913 271.375 411.538 298.614 411.538C325.873 411.536 346.309 397.913 353.514 376.619ZM313.52 368.12C311.37 374.53 305.87 377.9 298.614 377.9C291.387 377.9 285.869 374.53 283.728 368.12C282.447 364.709 282.042 373.186 282.042 347.261C282.042 321.275 282.445 329.75 283.728 326.38C285.869 319.97 291.387 316.561 298.614 316.561C305.87 316.561 311.369 319.972 313.52 326.38C314.811 329.748 315.205 321.273 315.205 347.261C315.205 373.186 314.812 364.709 313.52 368.12Z" fill="white"/>
<path d="M501.384 388.484C474.116 388.484 453.711 402.109 446.464 423.341C443.53 431.9 442.65 425.925 442.65 452.739C442.65 479.553 443.528 473.641 446.464 482.095C453.711 503.411 474.116 517.077 501.384 517.077C528.613 517.077 549.08 503.411 556.295 482.095C559.273 473.641 560.12 479.553 560.12 452.739C560.12 425.925 559.273 431.9 556.295 423.341C549.08 402.109 528.613 388.484 501.384 388.484ZM516.25 473.641C514.152 480.008 508.631 483.419 501.384 483.419C494.138 483.419 488.609 480.008 486.469 473.641C485.197 470.25 484.805 478.684 484.805 452.739C484.805 426.752 485.197 435.27 486.469 431.9C488.609 425.45 494.139 422.059 501.384 422.059C508.631 422.059 514.152 425.45 516.25 431.9C517.584 435.27 517.997 426.753 517.997 452.739C517.995 478.686 517.583 470.25 516.25 473.641Z" fill="white"/>
</g>
<defs>
<clipPath id="clip0_311_109">
<rect width="800" height="800" fill="white"/>
</clipPath>
</defs>
</svg>
