<svg width="101" height="100" viewBox="0 0 101 100" fill="none" xmlns="http://www.w3.org/2000/svg">
<ellipse cx="50.0261" cy="50" rx="50.0261" ry="50" fill="white"/>
<path d="M94.9884 57.0016L94.1595 49.926C93.9314 47.9744 93.3256 46.0946 92.3804 44.406C91.4353 42.7173 90.1715 41.2566 88.6691 40.1164L86.6218 35.7488C85.8169 34.0173 84.5733 32.5609 83.032 31.5448C81.4907 30.5287 79.7133 29.9935 77.9014 30.0001H46.4023C44.5479 29.9992 42.732 30.5634 41.168 31.6261L26.9885 41.2508L21.2863 41.9266C16.1257 42.5454 11.3142 45.012 7.63738 48.9238L5.43931 51.2686C5.30003 51.4172 5.18954 51.5936 5.11416 51.7877C5.03879 51.9818 4.99999 52.1899 5 52.4V61.9999C4.99998 62.3358 5.09902 62.6631 5.28309 62.9355C5.46717 63.208 5.72695 63.4117 6.02563 63.5179L10.5256 65.1179C10.6786 65.1722 10.8388 65.1999 11 65.1999H15.2109C15.9997 66.6592 17.1349 67.871 18.5022 68.7136C19.8696 69.5563 21.4209 69.9999 23 69.9999C24.5792 69.9999 26.1304 69.5563 27.4978 68.7136C28.8652 67.871 30.0003 66.6592 30.7891 65.1999H72.5C72.6613 65.1999 72.8214 65.1722 72.9744 65.1179L73.5581 64.9103C74.4404 66.6795 75.8198 68.1097 77.5028 69.0002C79.1857 69.8908 81.0878 70.1971 82.9422 69.8761C84.7966 69.5551 86.5103 68.623 87.8429 67.2105C89.1755 65.798 90.0602 63.9759 90.3727 61.9999H92C92.2786 61.9999 92.5516 61.9172 92.7886 61.761C93.0255 61.6048 93.217 61.3813 93.3416 61.1156L94.8416 57.9156C94.9741 57.633 95.0251 57.315 94.9884 57.0016ZM74.0638 35.9362C73.722 37.0204 73.0783 37.9675 72.2186 38.6512C71.3589 39.3348 70.3242 39.7225 69.2525 39.7624L63.5 39.96V33.2H74.9188L74.0638 35.9362ZM42.7785 34.3256C43.8612 33.5899 45.1185 33.1994 46.4023 33.2H60.5V40.0636L32.9276 41.0124L42.7785 34.3256ZM19.9882 46.7018L13.5845 50.8H10.1375C12.8706 48.04 16.2796 46.1605 19.9711 45.3784L19.9882 46.7018ZM11.2438 61.9999L8 60.8468V54H13.3786L15.0894 55.825C14.1284 57.7099 13.7895 59.8848 14.1273 61.9999H11.2438ZM23 66.7999C21.8133 66.7999 20.6533 66.4246 19.6666 65.7213C18.6799 65.0181 17.9109 64.0186 17.4567 62.8491C17.0026 61.6797 16.8838 60.3929 17.1153 59.1514C17.3468 57.9099 17.9183 56.7695 18.7574 55.8745C19.5965 54.9794 20.6656 54.3699 21.8295 54.1229C22.9934 53.876 24.1998 54.0027 25.2961 54.4871C26.3925 54.9715 27.3295 55.7918 27.9888 56.8443C28.6481 57.8968 29 59.1342 29 60.4C28.9982 62.0967 28.3655 63.7235 27.2407 64.9233C26.1158 66.1231 24.5908 66.798 23 66.7999ZM23 50.8C20.765 50.7981 18.6099 51.6867 16.9573 53.2916L16.4193 52.7176L22.2718 48.972C22.4969 48.8279 22.6827 48.6233 22.8105 48.3787C22.9383 48.134 23.0036 47.8578 23 47.5778L22.9657 44.9472L27.6071 44.3972L60.5 43.2654V61.9999H31.8727C32.0922 60.6233 32.0273 59.2121 31.6825 57.865C31.3376 56.5179 30.7212 55.2674 29.8762 54.2008C29.0312 53.1342 27.9781 52.2773 26.7904 51.6899C25.6028 51.1025 24.3092 50.7988 23 50.8ZM81.5 66.7999C80.3134 66.7999 79.1533 66.4246 78.1666 65.7213C77.1799 65.0181 76.4109 64.0186 75.9568 62.8491C75.5026 61.6797 75.3838 60.3929 75.6153 59.1514C75.8468 57.9099 76.4183 56.7695 77.2574 55.8745C78.0965 54.9794 79.1656 54.3699 80.3295 54.1229C81.4934 53.876 82.6998 54.0027 83.7961 54.4871C84.8925 54.9715 85.8296 55.7918 86.4889 56.8443C87.1481 57.8968 87.5 59.1342 87.5 60.4C87.4983 62.0967 86.8655 63.7235 85.7407 64.9233C84.6159 66.1231 83.0908 66.798 81.5 66.7999ZM91.0731 58.8H90.3727C89.9645 56.3123 88.6538 54.0965 86.7245 52.6326C84.7952 51.1686 82.4028 50.5746 80.0658 50.9792C77.7288 51.3837 75.6353 52.7543 74.2391 54.7938C72.8428 56.8334 72.2563 59.3777 72.6065 61.8753L72.2563 61.9999H63.5V43.1622L69.3491 42.961C71.0332 42.8982 72.6592 42.2889 74.0102 41.2145C75.3612 40.1402 76.3728 38.6519 76.91 36.9482L78.0804 33.2026C79.3041 33.2328 80.4967 33.6193 81.5293 34.3203C82.5619 35.0214 83.3951 36.0103 83.9387 37.18L86.1585 41.9156C86.2752 42.1646 86.4508 42.3768 86.6679 42.5312C87.9012 43.4076 88.9428 44.5572 89.7219 45.9018C90.501 47.2464 90.9992 48.7543 91.1825 50.3228L91.9554 56.9178L91.0731 58.8Z" fill="#3D4CD9"/>
</svg>
