<svg width="271" height="600" viewBox="0 0 271 600" fill="none" xmlns="http://www.w3.org/2000/svg">
<g clip-path="url(#clip0_334_152)">
<g clip-path="url(#clip1_334_152)">
<path d="M256.911 549.676C252.985 549.676 249.79 552.871 249.79 556.797C249.79 560.723 252.985 563.918 256.911 563.918C260.837 563.918 264.032 560.723 264.032 556.797C264.032 552.871 260.837 549.676 256.911 549.676ZM256.911 559.849C255.228 559.849 253.859 558.48 253.859 556.797C253.859 555.114 255.228 553.745 256.911 553.745C258.594 553.745 259.963 555.114 259.963 556.797C259.963 558.48 258.594 559.849 256.911 559.849Z" fill="#FFC700"/>
<path d="M256.911 555.78C256.35 555.78 255.894 556.236 255.894 556.797C255.894 557.358 256.35 557.814 256.911 557.814C257.473 557.814 257.929 557.358 257.929 556.797C257.929 556.236 257.473 555.78 256.911 555.78Z" fill="#FFC700"/>
<path d="M274.273 556.797C274.273 556.235 273.818 555.78 273.256 555.78H272.202C272.146 554.998 272.027 554.205 271.844 553.411C272.858 551.82 272.913 549.806 271.957 548.15C271.674 547.661 271.052 547.494 270.567 547.777L269.648 548.309C269.198 547.635 268.633 547.003 268.094 546.42C268.169 544.54 267.211 542.706 265.558 541.752C265.072 541.469 264.449 541.636 264.169 542.124L263.637 543.044C262.922 542.691 262.177 542.396 261.411 542.16C260.538 540.489 258.824 539.435 256.911 539.435C256.349 539.435 255.894 539.89 255.894 540.452V541.506C255.112 541.562 254.319 541.681 253.526 541.864C251.934 540.849 249.92 540.795 248.264 541.752C247.777 542.033 247.611 542.656 247.892 543.141L248.423 544.06C247.749 544.51 247.117 545.075 246.535 545.614C244.596 545.509 242.819 546.499 241.866 548.15C241.585 548.637 241.752 549.258 242.239 549.54L243.159 550.071C242.806 550.786 242.511 551.531 242.274 552.297C240.603 553.17 239.549 554.884 239.549 556.797C239.549 557.359 240.004 557.814 240.567 557.814H241.621C241.676 558.596 241.796 559.389 241.978 560.183C240.965 561.774 240.909 563.788 241.866 565.444C242.147 565.931 242.768 566.095 243.256 565.817L244.175 565.285C244.625 565.96 245.122 566.659 245.661 567.241C245.586 569.121 246.612 570.887 248.264 571.842C248.747 572.122 249.372 571.955 249.654 571.47L250.186 570.55C250.901 570.902 251.646 571.197 252.412 571.434C253.284 573.105 254.999 574.159 256.911 574.159C257.474 574.159 257.929 573.704 257.929 573.142V572.088C258.711 572.032 259.503 571.913 260.297 571.73C261.889 572.743 263.901 572.799 265.558 571.842C266.045 571.561 266.212 570.938 265.931 570.452L265.4 569.533C266.074 569.083 266.706 568.587 267.288 568.047C269.205 568.124 271.003 567.095 271.957 565.444C272.238 564.957 272.071 564.335 271.584 564.054L270.664 563.523C271.017 562.807 271.312 562.062 271.548 561.296C273.219 560.424 274.273 558.709 274.273 556.797ZM256.911 565.953C251.863 565.953 247.756 561.846 247.756 556.797C247.756 551.748 251.863 547.641 256.911 547.641C261.96 547.641 266.067 551.748 266.067 556.797C266.067 561.846 261.96 565.953 256.911 565.953Z" fill="#FFC700"/>
</g>
<path fill-rule="evenodd" clip-rule="evenodd" d="M301.729 460.026C214.214 460.026 131.35 454.893 117.723 452.704C115.876 447.351 113.843 433.036 112.847 417.69C141.455 419.788 226.8 425.572 301.73 425.572L301.779 425.572C376.697 425.569 462.009 419.788 490.612 417.68C489.629 432.807 487.637 446.939 485.823 452.482C469.447 455.048 387.925 460.023 301.85 460.027C301.81 460.027 301.77 460.026 301.729 460.026ZM215.697 406.356C243.4 407.506 273.299 408.343 301.681 408.344L301.73 408.344C330.168 408.344 360.132 407.505 387.885 406.35C387.683 399.509 388.173 382.263 397.241 372.459C401.582 367.756 407.319 365.276 413.831 365.276C431.906 365.276 483.795 357.679 489.561 356.825C489.004 352.524 488.261 349.083 487.27 347.205C478.277 344 473.694 337.161 469.646 331.08L467.01 327.204C466.01 326.945 459.62 326.755 455.812 326.652L455.8 326.652C447.404 326.406 438.061 326.133 433.445 320.212C419.27 314.312 367.553 304.98 301.73 304.98C301.678 304.98 301.626 304.979 301.574 304.978C235.905 304.993 184.304 314.292 170.067 320.189C165.457 326.13 156.104 326.404 147.699 326.651L147.682 326.651L147.328 326.662H147.328C143.475 326.783 137.414 326.974 135.743 327.926L133.831 331.079C129.783 337.16 125.2 343.999 116.208 347.204C115.212 349.082 114.466 352.523 113.907 356.823L114.296 356.88C121.263 357.894 171.95 365.276 189.751 365.276C196.263 365.276 202 367.756 206.341 372.443C215.419 382.256 215.901 399.531 215.697 406.356ZM491.231 400.361C476.818 401.439 444.182 403.731 405.1 405.584C404.951 399.31 405.873 388.458 409.904 384.122C410.972 382.968 412.109 382.503 413.832 382.503C432.39 382.503 480.74 375.539 490.842 374.051C491.232 383.922 491.232 393.957 491.232 399.731C491.232 399.941 491.232 400.151 491.231 400.361ZM198.479 405.59C159.345 403.738 126.657 401.445 112.229 400.372C112.228 400.157 112.228 399.944 112.228 399.73C112.228 393.956 112.228 383.919 112.62 374.047C122.447 375.484 171.12 382.502 189.752 382.502C191.474 382.502 192.611 382.967 193.68 384.139C197.692 388.488 198.614 399.318 198.479 405.59ZM508.459 399.731C508.459 400.831 508.448 403.447 508.359 407.045C508.388 407.241 508.409 407.438 508.425 407.638C508.492 408.481 508.436 409.307 508.271 410.096C507.965 419.335 507.17 432.892 505.113 444.6C507.148 446.176 508.458 448.642 508.458 451.412V485.867C508.458 500.115 496.864 511.709 482.617 511.709H448.16C433.913 511.709 422.319 500.115 422.319 485.867V474.368C384.943 476.117 339.56 477.255 301.73 477.255C301.69 477.255 301.65 477.255 301.61 477.254C263.803 477.252 218.476 476.115 181.138 474.367V485.868C181.138 500.116 169.544 511.71 155.296 511.71H120.841C106.594 511.71 95 500.116 95 485.868V451.413C95 448.644 96.3092 446.178 98.3421 444.601C96.2891 432.901 95.4948 419.354 95.1891 410.115C95.0237 409.325 94.9671 408.499 95.0345 407.655C95.0497 407.456 95.0719 407.259 95.1008 407.065C95.0113 403.456 95 400.834 95 399.731C95 355.301 97.1359 334.869 109.798 331.165C113.657 330.045 115.673 327.237 119.497 321.518L122.443 317.211C127.594 310.01 137.552 309.717 147.164 309.442L147.463 309.433H147.463C150.259 309.346 154.41 309.219 156.571 308.77C157 307.767 157.566 306.489 158.25 304.98H138.068C133.314 304.98 129.454 301.121 129.454 296.366C129.454 291.611 133.314 287.752 138.068 287.752H166.449C177.604 265.11 194.465 233.603 202.499 228.714C215.3 220.927 291.875 218.843 301.729 218.843L301.737 218.843C311.619 218.843 388.163 220.929 400.959 228.714C408.994 233.603 425.855 265.11 437.01 287.752H465.391C470.145 287.752 474.005 291.611 474.005 296.366C474.005 301.121 470.145 304.98 465.391 304.98H445.209C445.893 306.489 446.459 307.767 446.888 308.77C449.127 309.218 453.503 309.355 456.294 309.442C465.925 309.717 475.882 310.01 481.033 317.211L483.979 321.518C487.803 327.237 489.819 330.045 493.678 331.165C506.324 334.869 508.459 355.301 508.459 399.731ZM391.623 243.133C396.527 247.388 412.134 276.16 422.324 296.572C422.346 297.495 422.513 298.383 422.803 299.213C395.702 292.935 349.835 287.752 301.73 287.752L301.669 287.752C253.586 287.756 207.745 292.938 180.655 299.213C180.942 298.395 181.109 297.521 181.134 296.612C191.279 276.226 206.764 247.519 211.268 243.546C218.555 240.066 272.211 236.07 301.723 236.07L301.73 236.07C331.241 236.07 384.904 240.066 391.623 243.133ZM439.547 473.486V485.868C439.547 490.623 443.423 494.482 448.161 494.482H482.616C487.354 494.482 491.23 490.623 491.23 485.868V468.805C482.832 470.504 463.792 472.126 439.547 473.486ZM112.227 485.868V468.806C120.636 470.505 139.673 472.126 163.91 473.485V485.868C163.91 490.622 160.033 494.482 155.296 494.482H120.841C116.103 494.482 112.227 490.622 112.227 485.868ZM241.433 373.89H362.026C366.781 373.89 370.639 377.748 370.639 382.503C370.639 387.258 366.78 391.117 362.025 391.117H241.433C236.678 391.117 232.819 387.258 232.819 382.504C232.819 377.749 236.678 373.89 241.433 373.89Z" fill="white"/>
<g clip-path="url(#clip2_334_152)">
<path d="M182.214 562.421C176.188 562.421 171.284 567.325 171.284 573.351C171.284 579.378 176.188 584.281 182.214 584.281C188.241 584.281 193.144 579.378 193.144 573.351C193.144 567.325 188.241 562.421 182.214 562.421ZM182.214 578.036C179.631 578.036 177.53 575.934 177.53 573.351C177.53 570.768 179.631 568.667 182.214 568.667C184.797 568.667 186.899 570.768 186.899 573.351C186.899 575.934 184.797 578.036 182.214 578.036Z" fill="white"/>
<path d="M182.214 571.79C181.353 571.79 180.653 572.49 180.653 573.351C180.653 574.213 181.353 574.913 182.214 574.913C183.076 574.913 183.776 574.213 183.776 573.351C183.776 572.49 183.076 571.79 182.214 571.79Z" fill="white"/>
<path d="M208.863 573.351C208.863 572.488 208.164 571.79 207.301 571.79H205.684C205.598 570.59 205.415 569.373 205.135 568.155C206.69 565.712 206.775 562.621 205.307 560.079C204.872 559.329 203.918 559.073 203.174 559.507L201.763 560.323C201.072 559.289 200.206 558.319 199.378 557.424C199.494 554.539 198.022 551.724 195.486 550.259C194.739 549.826 193.783 550.082 193.353 550.83L192.537 552.242C191.44 551.701 190.296 551.248 189.12 550.885C187.781 548.321 185.149 546.703 182.214 546.703C181.351 546.703 180.653 547.401 180.653 548.264V549.882C179.453 549.967 178.236 550.15 177.017 550.431C174.575 548.874 171.484 548.79 168.942 550.259C168.195 550.69 167.938 551.646 168.37 552.392L169.186 553.802C168.15 554.493 167.181 555.36 166.287 556.188C163.312 556.026 160.584 557.545 159.121 560.079C158.69 560.826 158.946 561.781 159.693 562.212L161.105 563.028C160.564 564.126 160.111 565.27 159.748 566.445C157.183 567.784 155.565 570.416 155.565 573.351C155.565 574.214 156.264 574.913 157.127 574.913H158.745C158.83 576.113 159.013 577.33 159.294 578.548C157.738 580.991 157.653 584.082 159.121 586.624C159.553 587.371 160.506 587.622 161.255 587.195L162.665 586.38C163.356 587.415 164.118 588.489 164.946 589.383C164.83 592.268 166.406 594.979 168.942 596.444C169.683 596.874 170.642 596.618 171.075 595.872L171.891 594.46C172.989 595.002 174.132 595.455 175.308 595.817C176.647 598.382 179.279 600 182.214 600C183.077 600 183.776 599.302 183.776 598.439V596.821C184.976 596.735 186.193 596.552 187.411 596.272C189.854 597.827 192.943 597.913 195.486 596.444C196.234 596.013 196.49 595.057 196.058 594.311L195.242 592.9C196.278 592.21 197.248 591.447 198.141 590.619C201.084 590.737 203.843 589.158 205.307 586.624C205.739 585.876 205.482 584.922 204.735 584.49L203.323 583.675C203.864 582.577 204.317 581.433 204.68 580.257C207.245 578.919 208.863 576.287 208.863 573.351ZM182.214 587.404C174.465 587.404 168.161 581.101 168.161 573.351C168.161 565.602 174.465 559.298 182.214 559.298C189.963 559.298 196.267 565.602 196.267 573.351C196.267 581.101 189.963 587.404 182.214 587.404Z" fill="white"/>
</g>
<g clip-path="url(#clip3_334_152)">
<path d="M223.802 45.4824C220.606 45.4824 218.006 48.083 218.006 51.2787C218.006 54.4744 220.606 57.075 223.802 57.075C226.998 57.075 229.598 54.4744 229.598 51.2787C229.598 48.083 226.998 45.4824 223.802 45.4824ZM223.802 53.7628C222.432 53.7628 221.318 52.6485 221.318 51.2787C221.318 49.9089 222.432 48.7946 223.802 48.7946C225.172 48.7946 226.286 49.9089 226.286 51.2787C226.286 52.6485 225.172 53.7628 223.802 53.7628Z" fill="white"/>
<path d="M223.802 50.4507C223.345 50.4507 222.974 50.8219 222.974 51.2787C222.974 51.7356 223.345 52.1068 223.802 52.1068C224.259 52.1068 224.63 51.7356 224.63 51.2787C224.63 50.8219 224.259 50.4507 223.802 50.4507Z" fill="white"/>
<path d="M237.934 51.2786C237.934 50.8209 237.564 50.4506 237.106 50.4506H236.248C236.203 49.8142 236.106 49.1689 235.957 48.5228C236.782 47.2274 236.827 45.5883 236.048 44.2403C235.818 43.8424 235.312 43.7066 234.917 43.9371L234.169 44.3697C233.803 43.8214 233.343 43.3071 232.904 42.8324C232.966 41.3025 232.185 39.8095 230.841 39.0325C230.444 38.8028 229.937 38.9387 229.709 39.3357L229.277 40.0845C228.695 39.7974 228.088 39.5572 227.465 39.3648C226.755 38.0047 225.359 37.1467 223.802 37.1467C223.345 37.1467 222.974 37.5171 222.974 37.9748V38.8327C222.338 38.878 221.693 38.975 221.046 39.1238C219.751 38.2982 218.112 38.2537 216.764 39.0325C216.368 39.2613 216.232 39.7683 216.461 40.1637L216.893 40.9117C216.344 41.278 215.83 41.7376 215.356 42.1766C213.778 42.0909 212.332 42.8963 211.556 44.2403C211.327 44.6365 211.463 45.1427 211.859 45.3715L212.608 45.8042C212.321 46.3864 212.081 46.9929 211.888 47.6163C210.528 48.3263 209.67 49.722 209.67 51.2786C209.67 51.7363 210.041 52.1067 210.498 52.1067H211.356C211.402 52.743 211.499 53.3884 211.647 54.0345C210.823 55.3299 210.777 56.969 211.556 58.317C211.785 58.7132 212.29 58.8466 212.687 58.6202L213.435 58.1876C213.802 58.7366 214.206 59.3062 214.645 59.78C214.584 61.31 215.419 62.7477 216.764 63.5248C217.157 63.7528 217.666 63.617 217.895 63.2216L218.328 62.4728C218.91 62.7599 219.517 63 220.14 63.1925C220.85 64.5526 222.246 65.4105 223.802 65.4105C224.26 65.4105 224.63 65.0402 224.63 64.5825V63.7245C225.267 63.6793 225.912 63.5822 226.558 63.4334C227.854 64.2582 229.492 64.3035 230.841 63.5248C231.237 63.2959 231.373 62.7889 231.144 62.3935L230.711 61.6455C231.26 61.2792 231.775 60.8749 232.248 60.4358C233.809 60.4981 235.272 59.6609 236.048 58.317C236.277 57.9207 236.141 57.4145 235.745 57.1857L234.996 56.7531C235.284 56.1709 235.524 55.5644 235.716 54.9409C237.076 54.2309 237.934 52.8352 237.934 51.2786ZM223.802 58.731C219.693 58.731 216.35 55.3881 216.35 51.2786C216.35 47.1692 219.693 43.8263 223.802 43.8263C227.912 43.8263 231.255 47.1692 231.255 51.2786C231.255 55.3881 227.912 58.731 223.802 58.731Z" fill="white"/>
</g>
<g clip-path="url(#clip4_334_152)">
<path d="M182 139.465C174.537 139.465 168.465 145.537 168.465 153C168.465 160.463 174.537 166.535 182 166.535C189.463 166.535 195.535 160.463 195.535 153C195.535 145.537 189.463 139.465 182 139.465ZM182 158.801C178.801 158.801 176.199 156.199 176.199 153C176.199 149.801 178.801 147.199 182 147.199C185.199 147.199 187.801 149.801 187.801 153C187.801 156.199 185.199 158.801 182 158.801Z" fill="#FFC700"/>
<path d="M182 151.066C180.933 151.066 180.066 151.933 180.066 153C180.066 154.067 180.933 154.934 182 154.934C183.067 154.934 183.934 154.067 183.934 153C183.934 151.933 183.067 151.066 182 151.066Z" fill="#FFC700"/>
<path d="M215 153C215 151.931 214.135 151.066 213.066 151.066H211.063C210.957 149.58 210.731 148.073 210.383 146.565C212.309 143.54 212.415 139.712 210.597 136.564C210.058 135.635 208.876 135.318 207.955 135.856L206.208 136.867C205.353 135.586 204.28 134.385 203.254 133.277C203.398 129.704 201.576 126.218 198.436 124.403C197.51 123.867 196.326 124.184 195.794 125.112L194.784 126.86C193.424 126.19 192.008 125.629 190.552 125.179C188.894 122.003 185.635 120 182 120C180.931 120 180.066 120.865 180.066 121.934V123.937C178.58 124.043 177.073 124.269 175.565 124.617C172.54 122.689 168.712 122.585 165.564 124.403C164.639 124.938 164.322 126.122 164.856 127.045L165.867 128.792C164.585 129.647 163.383 130.72 162.277 131.746C158.593 131.545 155.214 133.426 153.403 136.564C152.869 137.49 153.186 138.672 154.112 139.206L155.86 140.216C155.19 141.576 154.629 142.992 154.179 144.448C151.003 146.106 149 149.365 149 153C149 154.069 149.865 154.934 150.934 154.934H152.937C153.043 156.42 153.269 157.927 153.617 159.435C151.691 162.46 151.585 166.288 153.403 169.436C153.938 170.361 155.118 170.672 156.045 170.144L157.792 169.133C158.647 170.415 159.591 171.745 160.617 172.852C160.473 176.425 162.424 179.782 165.564 181.597C166.482 182.129 167.67 181.812 168.206 180.888L169.216 179.14C170.576 179.81 171.992 180.371 173.448 180.821C175.106 183.997 178.365 186 182 186C183.069 186 183.934 185.135 183.934 184.066V182.063C185.42 181.957 186.927 181.731 188.435 181.383C191.46 183.309 195.286 183.415 198.436 181.597C199.361 181.062 199.678 179.878 199.144 178.955L198.133 177.208C199.415 176.353 200.617 175.409 201.723 174.383C205.367 174.529 208.784 172.574 210.597 169.436C211.131 168.51 210.814 167.328 209.888 166.794L208.14 165.784C208.81 164.424 209.371 163.008 209.821 161.552C212.997 159.894 215 156.635 215 153ZM182 170.402C172.404 170.402 164.598 162.596 164.598 153C164.598 143.404 172.404 135.598 182 135.598C191.596 135.598 199.402 143.404 199.402 153C199.402 162.596 191.596 170.402 182 170.402Z" fill="#FFC700"/>
</g>
<g clip-path="url(#clip5_334_152)">
<path d="M264 117.535C271.463 117.535 277.535 111.463 277.535 104C277.535 96.5375 271.463 90.4648 264 90.4648C256.537 90.4648 250.465 96.5375 250.465 104C250.465 111.463 256.537 117.535 264 117.535ZM264 98.1992C267.199 98.1992 269.801 100.801 269.801 104C269.801 107.199 267.199 109.801 264 109.801C260.801 109.801 258.199 107.199 258.199 104C258.199 100.801 260.801 98.1992 264 98.1992Z" fill="white"/>
<path d="M264 105.934C265.067 105.934 265.934 105.067 265.934 104C265.934 102.933 265.067 102.066 264 102.066C262.933 102.066 262.066 102.933 262.066 104C262.066 105.067 262.933 105.934 264 105.934Z" fill="white"/>
<path d="M231 104C231 105.069 231.865 105.934 232.934 105.934L234.937 105.934C235.043 107.42 235.269 108.927 235.617 110.435C233.691 113.46 233.585 117.288 235.403 120.436C235.942 121.365 237.124 121.682 238.045 121.144L239.792 120.133C240.647 121.414 241.72 122.615 242.746 123.723C242.602 127.296 244.424 130.782 247.564 132.597C248.49 133.133 249.674 132.816 250.206 131.888L251.216 130.14C252.576 130.81 253.992 131.371 255.448 131.821C257.106 134.997 260.365 137 264 137C265.069 137 265.934 136.135 265.934 135.066L265.934 133.063C267.42 132.957 268.927 132.731 270.435 132.383C273.46 134.311 277.288 134.415 280.436 132.597C281.361 132.062 281.678 130.878 281.144 129.955L280.133 128.208C281.415 127.353 282.617 126.28 283.723 125.254C287.407 125.455 290.786 123.574 292.597 120.436C293.131 119.51 292.814 118.328 291.888 117.794L290.14 116.784C290.81 115.424 291.371 114.008 291.821 112.552C294.997 110.894 297 107.635 297 104C297 102.931 296.135 102.066 295.066 102.066L293.063 102.066C292.957 100.58 292.731 99.0735 292.383 97.5647C294.309 94.5397 294.415 90.7122 292.597 87.5645C292.062 86.6392 290.882 86.3276 289.955 86.8564L288.208 87.8666C287.353 86.5845 286.409 85.2546 285.383 84.1481C285.527 80.5754 283.576 77.2181 280.436 75.4034C279.518 74.8709 278.33 75.1882 277.794 76.1115L276.784 77.86C275.424 77.1897 274.008 76.6288 272.552 76.1794C270.894 73.0035 267.635 71 264 71C262.931 71 262.066 71.8648 262.066 72.9336L262.066 74.9371C260.58 75.0428 259.073 75.2694 257.565 75.6168C254.54 73.6908 250.714 73.585 247.564 75.4034C246.639 75.9379 246.322 77.1218 246.856 78.0451L247.867 79.7918C246.585 80.6472 245.383 81.5913 244.277 82.6166C240.633 82.4712 237.216 84.4261 235.403 87.5644C234.869 88.4897 235.186 89.6718 236.112 90.2061L237.86 91.2164C237.19 92.5759 236.629 93.9921 236.179 95.448C233.003 97.106 231 100.365 231 104ZM264 86.5977C273.596 86.5977 281.402 94.4038 281.402 104C281.402 113.596 273.596 121.402 264 121.402C254.404 121.402 246.598 113.596 246.598 104C246.598 94.4038 254.404 86.5977 264 86.5977Z" fill="white"/>
</g>
</g>
<defs>
<clipPath id="clip0_334_152">
<rect width="271" height="600" fill="white"/>
</clipPath>
<clipPath id="clip1_334_152">
<rect width="34.7241" height="34.7241" fill="white" transform="translate(239.549 539.435)"/>
</clipPath>
<clipPath id="clip2_334_152">
<rect width="53.2974" height="53.2974" fill="white" transform="translate(155.565 546.703)"/>
</clipPath>
<clipPath id="clip3_334_152">
<rect width="28.2638" height="28.2638" fill="white" transform="translate(209.67 37.1467)"/>
</clipPath>
<clipPath id="clip4_334_152">
<rect width="66" height="66" fill="white" transform="translate(149 120)"/>
</clipPath>
<clipPath id="clip5_334_152">
<rect width="66" height="66" fill="white" transform="translate(297 137) rotate(-180)"/>
</clipPath>
</defs>
</svg>
