<svg width="800" height="800" viewBox="0 0 800 800" fill="none" xmlns="http://www.w3.org/2000/svg">
<path d="M219.656 95.9044V290.711C219.656 291.487 219.695 292.262 219.773 293.036C219.806 293.367 219.869 293.689 219.916 294.017C219.975 294.445 220.025 294.876 220.111 295.301C220.188 295.684 220.292 296.056 220.388 296.431C220.478 296.797 220.559 297.165 220.667 297.526C220.781 297.897 220.92 298.254 221.052 298.617C221.18 298.976 221.297 299.337 221.444 299.69C221.583 300.031 221.75 300.356 221.905 300.689C222.077 301.05 222.236 301.412 222.425 301.769C222.597 302.086 222.791 302.387 222.975 302.698C223.183 303.044 223.38 303.397 223.605 303.734C223.834 304.076 224.091 304.4 224.338 304.729C224.548 305.012 224.744 305.301 224.969 305.573C225.459 306.17 225.975 306.745 226.522 307.292L364.219 444.989C330.839 471.253 288.764 486.937 243.094 486.937C134.898 486.937 46.875 398.914 46.875 290.72C46.875 190.454 122.47 107.525 219.656 95.9044ZM437.908 267.283H266.531V95.9044C356.03 106.608 427.206 177.783 437.908 267.283ZM397.363 411.844L299.677 314.158H437.908C433.533 350.737 419.067 384.262 397.363 411.844ZM243.094 533.812C377.136 533.812 486.188 424.761 486.188 290.72C486.188 156.678 377.136 47.6263 243.094 47.6263C109.052 47.6263 0 156.678 0 290.72C0 424.761 109.052 533.812 243.094 533.812Z" fill="white"/>
<path d="M538.922 135.296H570.547C583.491 135.296 593.984 124.802 593.984 111.859C593.984 98.9148 583.491 88.421 570.547 88.421H538.922C525.978 88.421 515.484 98.9148 515.484 111.859C515.484 124.802 525.978 135.296 538.922 135.296Z" fill="white"/>
<path d="M646.703 135.296H774.547C787.491 135.296 797.984 124.802 797.984 111.859C797.984 98.9148 787.491 88.421 774.547 88.421H646.703C633.759 88.421 623.266 98.9148 623.266 111.859C623.266 124.802 633.759 135.296 646.703 135.296Z" fill="white"/>
<path d="M538.922 254.531H633.047C645.991 254.531 656.484 244.036 656.484 231.094C656.484 218.148 645.991 207.656 633.047 207.656H538.922C525.978 207.656 515.484 218.148 515.484 231.094C515.484 244.036 525.978 254.531 538.922 254.531Z" fill="white"/>
<path d="M774.547 207.656H709.203C696.259 207.656 685.766 218.148 685.766 231.094C685.766 244.036 696.259 254.531 709.203 254.531H774.547C787.491 254.531 797.984 244.036 797.984 231.094C797.984 218.148 787.491 207.656 774.547 207.656Z" fill="white"/>
<path d="M538.922 373.779H570.547C583.491 373.779 593.984 363.286 593.984 350.342C593.984 337.398 583.491 326.904 570.547 326.904H538.922C525.978 326.904 515.484 337.398 515.484 350.342C515.484 363.286 525.978 373.779 538.922 373.779Z" fill="white"/>
<path d="M774.547 326.904H646.703C633.759 326.904 623.266 337.398 623.266 350.342C623.266 363.286 633.759 373.779 646.703 373.779H774.547C787.491 373.779 797.984 363.286 797.984 350.342C797.984 337.398 787.491 326.904 774.547 326.904Z" fill="white"/>
<path d="M538.922 493.014H604.922C617.866 493.014 628.359 482.522 628.359 469.576C628.359 456.634 617.866 446.139 604.922 446.139H538.922C525.978 446.139 515.484 456.634 515.484 469.576C515.484 482.522 525.978 493.014 538.922 493.014Z" fill="white"/>
<path d="M774.547 446.139H681.078C668.134 446.139 657.641 456.634 657.641 469.576C657.641 482.522 668.134 493.014 681.078 493.014H774.547C787.491 493.014 797.984 482.522 797.984 469.576C797.984 456.634 787.491 446.139 774.547 446.139Z" fill="white"/>
<path d="M741.703 694.084C734.342 701.447 724.558 705.5 714.153 705.5H435.981V627.562H714.153C724.558 627.562 734.342 631.617 741.705 638.978C749.067 646.34 753.122 656.126 753.122 666.531C753.122 676.786 748.961 686.828 741.703 694.084ZM69.6939 694.083C62.3424 686.733 58.2939 676.947 58.2939 666.531C58.2939 656.115 62.3424 646.331 69.6939 638.979C77.0564 631.617 86.8486 627.562 97.2627 627.562H170.997V705.5H97.2627C86.8471 705.5 77.0564 701.445 69.6939 694.083ZM389.106 705.5H217.872V627.562H389.106V705.5ZM774.852 605.834C758.636 589.619 737.08 580.687 714.153 580.687H97.2627C74.3268 580.687 52.7658 589.619 36.5486 605.834C20.3439 622.039 11.4189 643.595 11.4189 666.531C11.4189 689.469 20.3439 711.026 36.5486 727.229C52.7642 743.445 74.3268 752.375 97.2627 752.375H714.153C737.08 752.375 758.638 743.445 774.85 727.229C791.066 711.014 799.997 689.458 799.997 666.531C799.997 643.604 791.066 622.048 774.852 605.834Z" fill="white"/>
</svg>
