<svg width="337" height="88" viewBox="0 0 337 88" fill="none" xmlns="http://www.w3.org/2000/svg">
<path d="M151.822 1.60073C151.791 1.60073 151.759 1.5986 151.727 1.59485C151.054 1.50346 150.364 1.43772 149.679 1.39924C149.293 1.37786 148.998 1.04755 149.02 0.660594C149.041 0.27417 149.367 -0.0139116 149.757 0.000519093C150.478 0.0411391 151.205 0.110086 151.915 0.205757C152.297 0.257601 152.565 0.610888 152.514 0.994106C152.466 1.34579 152.166 1.60073 151.822 1.60073Z" fill="white"/>
<path d="M137.344 3.59272C137.437 3.59272 137.531 3.57454 137.622 3.53553C138.251 3.26241 138.896 3.01228 139.54 2.79208C139.905 2.66647 140.099 2.26829 139.974 1.90164C139.849 1.53606 139.453 1.34312 139.086 1.46605C138.41 1.69854 137.729 1.96204 137.066 2.24958C136.712 2.40351 136.549 2.81559 136.702 3.17102C136.816 3.43505 137.073 3.59272 137.344 3.59272Z" fill="white"/>
<path fill-rule="evenodd" clip-rule="evenodd" d="M19.878 1.52454L0 45.0502H4.78315L9.98128 33.4226H34.2473L39.4455 45.0502H44.2907L24.4127 1.52454H19.878ZM32.5795 29.6918L22.1143 6.28254L11.6491 29.6918H32.5795Z" fill="white"/>
<path fill-rule="evenodd" clip-rule="evenodd" d="M51.5674 12.4059V45.0502H66.4138C70.7207 45.0502 73.8887 44.2833 75.918 42.7495C77.9886 41.1743 79.0239 38.9773 79.0239 36.1585C79.0239 33.4226 78.1128 31.3292 76.2907 29.8784C75.2979 29.0879 73.9977 28.5128 72.3902 28.153C73.2992 27.8266 74.1231 27.4069 74.8619 26.8938C76.8911 25.4429 77.9058 23.391 77.9058 20.738C77.9058 18.0021 76.829 15.9295 74.6756 14.5201C72.5635 13.1106 69.6647 12.4059 65.9789 12.4059H51.5674ZM66.2274 41.5681H55.8536V30.1893H66.6622C69.4369 30.1893 71.4661 30.6453 72.7499 31.5572C74.0337 32.4692 74.6756 33.9201 74.6756 35.9098C74.6756 37.8995 73.9509 39.3504 72.5014 40.2624C71.0934 41.1329 69.0021 41.5681 66.2274 41.5681ZM65.6683 26.8938H55.8536V15.8258H65.6683C68.1945 15.8258 70.1202 16.2818 71.4454 17.1938C72.812 18.1057 73.4953 19.4737 73.4953 21.2976C73.4953 23.1215 72.812 24.5102 71.4454 25.4636C70.1202 26.4171 68.1945 26.8938 65.6683 26.8938Z" fill="white"/>
<path d="M95.5723 16.2611V45.0502H99.9827V16.2611H112.344V12.4059H83.2106V16.2611H95.5723Z" fill="white"/>
<path d="M183.752 12.4059V45.0502H187.79V19.1131L201.021 41.0707H203.009L216.24 19.1532V45.0502H220.278V12.4059H216.178L202.085 35.8981L188.224 12.4059H183.752Z" fill="white"/>
<path d="M232.828 12.4059V45.0502H236.804L258.545 19.0592V45.0502H262.956V12.4059H259.042L237.239 38.3348V12.4059H232.828Z" fill="white"/>
<path d="M287.435 30.5002L299.511 45.0502H304.729L290.959 28.1778L303.797 12.4059H299.014L287.529 26.7072H280.006V12.4059H275.596V45.0502H280.006V30.5002H287.435Z" fill="white"/>
<path d="M315.507 43.247C318.074 44.6564 320.973 45.3611 324.204 45.3611C326.978 45.3611 329.484 44.8222 331.72 43.7444C333.956 42.6252 335.716 41.0085 337 38.8944L333.708 36.6559C332.59 38.2726 331.202 39.4748 329.546 40.2624C327.889 41.05 326.088 41.4438 324.141 41.4438C321.822 41.4438 319.731 40.9256 317.867 39.8893C316.004 38.8115 314.534 37.3192 313.457 35.4124C312.38 33.5055 311.842 31.2671 311.842 28.697C311.842 26.1269 312.38 23.8884 313.457 21.9816C314.534 20.0748 316.004 18.6032 317.867 17.5668C319.731 16.4891 321.822 15.9502 324.141 15.9502C326.088 15.9502 327.889 16.344 329.546 17.1316C331.202 17.9192 332.59 19.1421 333.708 20.8002L337 18.5617C335.716 16.4062 333.956 14.7895 331.72 13.7117C329.484 12.6339 326.978 12.0951 324.204 12.0951C320.973 12.0951 318.074 12.7998 315.507 14.2092C312.981 15.6186 310.993 17.5668 309.543 20.054C308.094 22.5412 307.369 25.4222 307.369 28.697C307.369 31.9303 308.094 34.8113 309.543 37.3399C310.993 39.8271 312.981 41.7961 315.507 43.247Z" fill="white"/>
<path fill-rule="evenodd" clip-rule="evenodd" d="M140.6 27.9781C140.6 23.7664 144.02 20.3399 148.223 20.3399C152.425 20.3399 155.845 23.7664 155.845 27.9781C155.845 32.1892 152.425 35.6162 148.223 35.6162C144.02 35.6162 140.6 32.1892 140.6 27.9781ZM141.998 27.9781C141.998 31.4169 144.79 34.2154 148.223 34.2154C151.654 34.2154 154.447 31.4169 154.447 27.9781C154.447 24.5387 151.654 21.7408 148.223 21.7408C144.79 21.7408 141.998 24.5387 141.998 27.9781Z" fill="white"/>
<path fill-rule="evenodd" clip-rule="evenodd" d="M161.237 37.2207C161.392 37.3463 161.592 37.4014 161.788 37.3677C161.983 37.3362 162.156 37.2234 162.264 37.0561C163.365 35.3506 164.137 33.4837 164.56 31.5083C164.602 31.3137 164.56 31.1106 164.443 30.9497C164.326 30.7889 164.147 30.6852 163.95 30.6643C162.576 30.5195 161.54 29.3645 161.54 27.9781C161.54 26.5911 162.576 25.4367 163.95 25.2913C164.147 25.271 164.326 25.1667 164.443 25.0059C164.56 24.8455 164.602 24.6424 164.56 24.4479C164.137 22.4719 163.365 20.605 162.264 18.8995C162.156 18.7328 161.983 18.62 161.788 18.5884C161.592 18.5553 161.392 18.6104 161.237 18.7354C160.164 19.6034 158.616 19.5206 157.639 18.5419C156.662 17.5623 156.579 16.0117 157.446 14.9364C157.571 14.7819 157.624 14.5815 157.593 14.3848C157.562 14.1892 157.449 14.0155 157.282 13.9075C155.58 12.8049 153.717 12.0305 151.745 11.6066C151.552 11.566 151.349 11.6077 151.188 11.7247C151.028 11.8407 150.924 12.0208 150.903 12.2186C150.759 13.5949 149.606 14.6333 148.223 14.6333C146.839 14.6333 145.686 13.5949 145.541 12.2186C145.521 12.0208 145.417 11.8407 145.257 11.7247C145.097 11.6077 144.892 11.5665 144.7 11.6066C142.728 12.0305 140.866 12.8049 139.163 13.9075C138.996 14.0155 138.883 14.1887 138.852 14.3848C138.821 14.5815 138.874 14.7819 138.999 14.9364C139.867 16.0117 139.784 17.5623 138.806 18.5419C137.829 19.5206 136.281 19.6029 135.208 18.7354C135.053 18.6104 134.855 18.5553 134.658 18.5884C134.463 18.62 134.289 18.7328 134.181 18.8995C133.082 20.6029 132.309 22.4693 131.885 24.4479C131.843 24.6424 131.885 24.8455 132.002 25.0059C132.118 25.1667 132.298 25.271 132.495 25.2913C133.869 25.4367 134.905 26.5911 134.905 27.9781C134.905 29.3645 133.869 30.5195 132.495 30.6643C132.298 30.6852 132.118 30.7889 132.002 30.9497C131.885 31.1106 131.843 31.3137 131.885 31.5083C132.309 33.4864 133.082 35.3527 134.181 37.0561C134.289 37.2234 134.463 37.3362 134.658 37.3677C134.855 37.4014 135.053 37.3463 135.208 37.2207C136.281 36.3522 137.829 36.4356 138.806 37.4142C139.784 38.3939 139.867 39.9439 138.999 41.0192C138.874 41.1742 138.821 41.3747 138.852 41.5708C138.883 41.767 138.996 41.9401 139.163 42.0486C140.866 43.1512 142.728 43.9257 144.7 44.349C144.891 44.3907 145.096 44.3485 145.257 44.2314C145.417 44.1149 145.521 43.9353 145.541 43.7376C145.686 42.3613 146.839 41.3223 148.223 41.3223C149.606 41.3223 150.759 42.3613 150.903 43.7376C150.924 43.9353 151.028 44.1149 151.188 44.2314C151.308 44.3191 151.452 44.365 151.598 44.365C151.647 44.365 151.697 44.3592 151.745 44.349C153.717 43.9257 155.58 43.1512 157.282 42.0486C157.449 41.9401 157.562 41.7664 157.593 41.5708C157.624 41.3747 157.571 41.1742 157.446 41.0192C156.579 39.9439 156.662 38.3939 157.639 37.4142C158.616 36.4351 160.164 36.3522 161.237 37.2207ZM156.651 36.4233C155.356 37.7205 155.095 39.6772 155.924 41.241C154.733 41.9375 153.464 42.465 152.137 42.8151C151.62 41.1213 150.055 39.9214 148.223 39.9214C146.39 39.9214 144.824 41.1208 144.308 42.8151C142.981 42.465 141.713 41.9375 140.521 41.241C141.351 39.6772 141.09 37.7205 139.795 36.4233C138.5 35.1267 136.548 34.8653 134.987 35.6948C134.292 34.5029 133.766 33.232 133.415 31.9C135.107 31.3827 136.303 29.814 136.303 27.9781C136.303 26.1416 135.107 24.5729 133.415 24.0561C133.766 22.7237 134.292 21.4527 134.987 20.2608C136.548 21.0914 138.5 20.8295 139.795 19.5323C141.09 18.2352 141.351 16.279 140.521 14.7146C141.713 14.0182 142.981 13.4912 144.308 13.1406C144.824 14.8354 146.39 16.0347 148.223 16.0347C150.055 16.0347 151.62 14.8343 152.137 13.1406C153.464 13.4912 154.733 14.0182 155.924 14.7146C155.095 16.279 155.356 18.2352 156.651 19.5323C157.945 20.8284 159.896 21.0908 161.458 20.2608C162.153 21.4532 162.68 22.7253 163.029 24.0561C161.338 24.5729 160.142 26.1416 160.142 27.9781C160.142 29.814 161.338 31.3827 163.029 31.9C162.68 33.2309 162.153 34.5019 161.458 35.6948C159.898 34.8653 157.945 35.1267 156.651 36.4233Z" fill="white"/>
<path d="M174.561 31.0075C174.604 30.6227 174.947 30.3405 175.334 30.3902C175.718 30.4335 175.994 30.7803 175.95 31.1646C175.869 31.8829 175.759 32.6056 175.623 33.3116C175.559 33.6467 175.266 33.8792 174.937 33.8792C174.894 33.8792 174.849 33.8749 174.804 33.8669C174.425 33.7937 174.177 33.4265 174.25 33.046C174.379 32.3757 174.484 31.6895 174.561 31.0075Z" fill="white"/>
<path d="M123.605 38.147C123.456 37.7899 123.046 37.6216 122.691 37.768C122.334 37.9161 122.165 38.326 122.313 38.6831C122.59 39.3527 122.895 40.016 123.218 40.6542C123.342 40.8968 123.587 41.0374 123.842 41.0374C123.949 41.0374 124.057 41.0128 124.158 40.9615C124.503 40.7862 124.64 40.364 124.465 40.0192C124.157 39.4131 123.868 38.783 123.605 38.147Z" fill="white"/>
<path d="M170.401 42.55C170.612 42.2261 171.046 42.1352 171.368 42.3479C171.691 42.5601 171.781 42.9941 171.57 43.3175C171.175 43.9214 170.752 44.5168 170.313 45.0871C170.175 45.2656 169.968 45.3597 169.758 45.3597C169.61 45.3597 169.459 45.3116 169.332 45.2138C169.027 44.977 168.97 44.5371 169.205 44.2309C169.623 43.6889 170.025 43.1229 170.401 42.55Z" fill="white"/>
<path d="M172.628 14.3934C172.28 13.7648 171.902 13.1406 171.504 12.5371C171.29 12.2138 170.857 12.1261 170.535 12.3394C170.213 12.5532 170.125 12.9872 170.338 13.3105C170.716 13.8829 171.075 14.4767 171.407 15.0732C171.534 15.3041 171.772 15.434 172.018 15.434C172.133 15.434 172.25 15.4057 172.357 15.3458C172.695 15.1582 172.816 14.7311 172.628 14.3934Z" fill="white"/>
<path d="M168.327 10.2859C168.137 10.2859 167.948 10.2084 167.81 10.0572C167.349 9.54889 166.862 9.0545 166.366 8.5863C166.084 8.32174 166.071 7.87813 166.335 7.59646C166.599 7.31319 167.044 7.30143 167.323 7.56546C167.846 8.05824 168.357 8.57882 168.844 9.1133C169.103 9.39977 169.083 9.84232 168.798 10.1031C168.663 10.2255 168.495 10.2859 168.327 10.2859Z" fill="white"/>
<path d="M126.607 43.5398C126.382 43.2266 125.946 43.1545 125.632 43.3816C125.318 43.6082 125.248 44.046 125.474 44.3592C125.894 44.9439 126.343 45.519 126.808 46.0689C126.947 46.233 127.144 46.3175 127.342 46.3175C127.502 46.3175 127.662 46.2624 127.793 46.1518C128.088 45.9017 128.125 45.4596 127.876 45.1646C127.434 44.6414 127.007 44.0946 126.607 43.5398Z" fill="white"/>
<path d="M123.166 15.4067C123.489 14.7621 123.842 14.1224 124.215 13.5045C124.414 13.1737 124.844 13.0679 125.175 13.2678C125.505 13.4682 125.611 13.8984 125.411 14.2298C125.057 14.8161 124.721 15.4244 124.415 16.0358C124.292 16.2806 124.046 16.4217 123.79 16.4217C123.685 16.4217 123.577 16.3976 123.476 16.3474C123.131 16.1732 122.992 15.752 123.166 15.4067Z" fill="white"/>
<path d="M121.599 28.0957L121.598 27.9781C121.598 27.2923 121.625 26.5986 121.677 25.9155C121.706 25.5297 121.418 25.1929 121.033 25.1635C120.634 25.139 120.312 25.4228 120.283 25.8087C120.228 26.5275 120.2 27.2576 120.2 27.9904L120.2 28.0957C120.2 28.4826 120.514 28.7964 120.9 28.7964C121.286 28.7964 121.599 28.4826 121.599 28.0957Z" fill="white"/>
<path d="M174.611 21.2688C174.548 21.2865 174.484 21.2945 174.421 21.2945C174.116 21.2945 173.835 21.0925 173.749 20.783C173.565 20.1229 173.352 19.4628 173.118 18.8209C172.984 18.4575 173.17 18.0545 173.533 17.922C173.897 17.7873 174.296 17.9754 174.43 18.3378C174.677 19.0144 174.901 19.7103 175.095 20.4051C175.199 20.7782 174.982 21.1646 174.611 21.2688Z" fill="white"/>
<path d="M161.514 50.9984C160.922 51.3442 160.311 51.6697 159.698 51.9663C159.351 52.1336 159.205 52.5526 159.373 52.9011C159.493 53.1518 159.743 53.2977 160.003 53.2977C160.105 53.2977 160.208 53.2747 160.306 53.2277C160.951 52.9166 161.594 52.5735 162.219 52.209C162.552 52.0139 162.665 51.5852 162.471 51.2507C162.277 50.9166 161.849 50.8038 161.514 50.9984Z" fill="white"/>
<path d="M173.158 37.0214C173.289 36.6574 173.689 36.4671 174.053 36.6007C174.416 36.7322 174.604 37.1336 174.473 37.4976C174.23 38.1742 173.955 38.8519 173.657 39.5115C173.541 39.7702 173.286 39.9236 173.019 39.9236C172.923 39.9236 172.826 39.9038 172.732 39.861C172.38 39.7018 172.224 39.287 172.384 38.9343C172.666 38.3084 172.927 37.6643 173.158 37.0214Z" fill="white"/>
<path d="M122.334 34.2266C122.175 33.5644 122.039 32.884 121.931 32.2031C121.87 31.8215 121.513 31.5612 121.13 31.6221C120.749 31.6831 120.49 32.0422 120.55 32.4249C120.664 33.1411 120.807 33.8573 120.974 34.5537C121.051 34.8755 121.338 35.0909 121.653 35.0909C121.707 35.0909 121.763 35.0844 121.817 35.0716C122.193 34.9808 122.424 34.6023 122.334 34.2266Z" fill="white"/>
<path d="M141.626 53.7862C142.282 53.953 142.959 54.0973 143.639 54.2143C144.02 54.2801 144.275 54.6419 144.209 55.0235C144.151 55.364 143.856 55.605 143.521 55.605C143.482 55.605 143.442 55.6018 143.402 55.5949C142.687 55.4714 141.974 55.3196 141.282 55.1448C140.908 55.0497 140.681 54.6686 140.776 54.2929C140.871 53.9182 141.252 53.6927 141.626 53.7862Z" fill="white"/>
<path d="M143.523 1.76214C144.196 1.64403 144.883 1.54996 145.563 1.48368C145.947 1.4468 146.228 1.10421 146.19 0.718852C146.154 0.334565 145.817 0.0582423 145.427 0.0897762C144.712 0.158723 143.99 0.257601 143.28 0.383202C142.9 0.450011 142.646 0.813453 142.713 1.19453C142.773 1.53446 143.068 1.77337 143.401 1.77337C143.441 1.77337 143.482 1.76963 143.523 1.76214Z" fill="white"/>
<path d="M157.951 3.17102C157.868 3.17102 157.782 3.15605 157.7 3.12452C157.064 2.87866 156.409 2.65525 155.751 2.45856C155.382 2.34846 155.171 1.95776 155.282 1.58737C155.391 1.21752 155.776 1.00586 156.152 1.1165C156.843 1.32281 157.533 1.55851 158.203 1.81613C158.563 1.95509 158.742 2.36075 158.604 2.72206C158.497 3.00052 158.232 3.17102 157.951 3.17102Z" fill="white"/>
<path d="M163.158 5.99892C163.279 6.08176 163.416 6.12131 163.552 6.12131C163.775 6.12131 163.995 6.01495 164.13 5.81613C164.348 5.49705 164.267 5.06092 163.948 4.84285C163.35 4.43291 162.732 4.04381 162.114 3.68625C161.78 3.49224 161.352 3.60715 161.159 3.9428C160.966 4.27791 161.08 4.70603 161.415 4.8995C162.002 5.23943 162.59 5.60982 163.158 5.99892Z" fill="white"/>
<path d="M135.864 51.5804C136.47 51.8979 137.096 52.1961 137.726 52.465C138.08 52.6173 138.245 53.0294 138.094 53.3848C137.98 53.6504 137.721 53.8097 137.45 53.8097C137.358 53.8097 137.265 53.7921 137.175 53.7536C136.513 53.4698 135.854 53.1561 135.216 52.8215C134.874 52.6419 134.742 52.2186 134.921 51.876C135.1 51.5339 135.521 51.3998 135.864 51.5804Z" fill="white"/>
<path d="M128.193 8.36396C127.689 8.8792 127.198 9.42062 126.736 9.97326C126.488 10.2694 126.526 10.7114 126.822 10.9599C126.954 11.07 127.113 11.124 127.271 11.124C127.471 11.124 127.669 11.039 127.807 10.8733C128.246 10.3485 128.712 9.8343 129.191 9.34526C129.461 9.06893 129.457 8.62479 129.181 8.35434C128.905 8.08283 128.463 8.08818 128.193 8.36396Z" fill="white"/>
<path d="M129.782 48.1684C130.036 47.8771 130.477 47.845 130.768 48.0983C131.285 48.5468 131.826 48.9813 132.376 49.3891C132.686 49.6189 132.752 50.0583 132.522 50.3688C132.384 50.5548 132.174 50.6526 131.959 50.6526C131.815 50.6526 131.669 50.6082 131.544 50.5152C130.965 50.086 130.397 49.6291 129.853 49.1571C129.561 48.9038 129.529 48.4612 129.782 48.1684Z" fill="white"/>
<path d="M175.159 24.0502C174.776 24.0957 174.502 24.4436 174.547 24.8284C174.627 25.5088 174.681 26.2004 174.709 26.8856C174.725 27.2624 175.035 27.558 175.407 27.558C175.417 27.558 175.426 27.558 175.436 27.5574C175.822 27.5414 176.122 27.2159 176.106 26.8295C176.078 26.1085 176.02 25.3805 175.935 24.6638C175.89 24.2795 175.546 24.0032 175.159 24.0502Z" fill="white"/>
<path d="M148.164 54.5986C148.71 54.5981 149.26 54.581 149.797 54.5489C150.177 54.5345 150.513 54.8199 150.537 55.2058C150.56 55.5922 150.267 55.9241 149.881 55.9471C149.316 55.9813 148.739 55.9989 148.165 56L147.716 55.9963C147.329 55.9909 147.021 55.6729 147.026 55.2865C147.032 54.899 147.358 54.5863 147.735 54.5954L148.164 54.5986Z" fill="white"/>
<path d="M155.864 53.4639C155.211 53.6606 154.542 53.8359 153.872 53.9829C153.495 54.0657 153.256 54.4393 153.339 54.8167C153.41 55.1448 153.699 55.3677 154.021 55.3677C154.071 55.3677 154.121 55.3624 154.171 55.3511C154.876 55.1967 155.582 55.0128 156.268 54.8044C156.638 54.6932 156.847 54.302 156.735 53.9316C156.625 53.5607 156.234 53.3517 155.864 53.4639Z" fill="white"/>
<path d="M121.627 22.3811C121.574 22.3811 121.521 22.3752 121.466 22.3629C121.09 22.2736 120.858 21.8963 120.946 21.52C121.112 20.8151 121.307 20.1112 121.526 19.427C121.643 19.0588 122.034 18.8568 122.404 18.9733C122.772 19.0914 122.975 19.4853 122.857 19.8541C122.65 20.5035 122.465 21.1721 122.307 21.8413C122.231 22.1635 121.944 22.3811 121.627 22.3811Z" fill="white"/>
<path d="M170.482 49.2603H166.35C166.712 48.9498 167.069 48.6333 167.41 48.3089C167.69 48.0422 167.701 47.5986 167.435 47.318C167.169 47.0379 166.728 47.0267 166.447 47.2924C166.014 47.705 165.556 48.1058 165.09 48.4928V43.8568C165.09 43.4693 164.777 43.1561 164.391 43.1561C164.004 43.1561 163.692 43.4693 163.692 43.8568V49.961C163.692 50.3485 164.004 50.6617 164.391 50.6617H170.482C170.868 50.6617 171.181 50.3485 171.181 49.961C171.181 49.574 170.868 49.2603 170.482 49.2603Z" fill="white"/>
<path d="M132.551 12.2918C132.551 12.6788 132.238 12.992 131.852 12.992C131.465 12.992 131.153 12.6788 131.153 12.2918V6.88775H125.76C125.374 6.88775 125.061 6.57455 125.061 6.18705C125.061 5.80009 125.374 5.48689 125.76 5.48689H131.483C132.052 5.06198 132.642 4.65579 133.238 4.27845C133.566 4.07107 133.997 4.16995 134.202 4.49598C134.409 4.82308 134.311 5.25546 133.985 5.46177C133.499 5.77016 133.02 6.101 132.551 6.44306V12.2918Z" fill="white"/>
<path d="M7.60938 79.3281H8.75C8.75 80.1458 8.51562 80.7604 8.04688 81.1719C7.58333 81.5781 6.95312 81.7812 6.15625 81.7812C5.60417 81.7812 5.125 81.6536 4.71875 81.3984C4.31771 81.1432 4.00521 80.7891 3.78125 80.3359C3.5625 79.8828 3.45312 79.3568 3.45312 78.7578V77.8594C3.45312 77.2604 3.5625 76.7344 3.78125 76.2812C4.00521 75.8281 4.31771 75.474 4.71875 75.2188C5.125 74.9635 5.60417 74.8359 6.15625 74.8359C6.95312 74.8359 7.58594 75.0391 8.05469 75.4453C8.52344 75.8516 8.75781 76.4635 8.75781 77.2812H7.61719C7.61719 76.7656 7.49219 76.3958 7.24219 76.1719C6.9974 75.9479 6.63542 75.8359 6.15625 75.8359C5.8125 75.8359 5.52344 75.9219 5.28906 76.0938C5.05469 76.2656 4.8776 76.5052 4.75781 76.8125C4.63802 77.1146 4.57812 77.4609 4.57812 77.8516V78.7578C4.57812 79.1536 4.63802 79.5052 4.75781 79.8125C4.8776 80.1146 5.05469 80.3516 5.28906 80.5234C5.52344 80.6953 5.8125 80.7812 6.15625 80.7812C6.63542 80.7812 6.9974 80.6693 7.24219 80.4453C7.48698 80.2214 7.60938 79.849 7.60938 79.3281ZM1.61719 78.3047C1.61719 78.9974 1.73698 79.6432 1.97656 80.2422C2.21615 80.8411 2.54948 81.3646 2.97656 81.8125C3.40365 82.2604 3.89844 82.6094 4.46094 82.8594C5.02344 83.1094 5.625 83.2344 6.26562 83.2344C6.90625 83.2344 7.50521 83.1094 8.0625 82.8594C8.625 82.6094 9.11719 82.2604 9.53906 81.8125C9.96615 81.3646 10.2995 80.8411 10.5391 80.2422C10.7786 79.6432 10.8984 78.9974 10.8984 78.3047C10.8984 77.6068 10.7786 76.9609 10.5391 76.3672C10.2995 75.7734 9.96615 75.2552 9.53906 74.8125C9.11719 74.3646 8.625 74.0182 8.0625 73.7734C7.50521 73.5234 6.90625 73.3984 6.26562 73.3984C5.625 73.3984 5.02344 73.5234 4.46094 73.7734C3.89844 74.0182 3.40365 74.3646 2.97656 74.8125C2.54948 75.2552 2.21615 75.7734 1.97656 76.3672C1.73698 76.9609 1.61719 77.6068 1.61719 78.3047ZM0.71875 78.3047C0.71875 77.4766 0.861979 76.7083 1.14844 76C1.4349 75.2917 1.83333 74.6745 2.34375 74.1484C2.85417 73.6172 3.44271 73.2057 4.10938 72.9141C4.78125 72.6172 5.5 72.4688 6.26562 72.4688C7.03125 72.4688 7.7474 72.6172 8.41406 72.9141C9.08594 73.2057 9.67448 73.6172 10.1797 74.1484C10.6901 74.6745 11.0885 75.2917 11.375 76C11.6615 76.7083 11.8047 77.4766 11.8047 78.3047C11.8047 79.1328 11.6615 79.901 11.375 80.6094C11.0885 81.3177 10.6901 81.9401 10.1797 82.4766C9.67448 83.0078 9.08594 83.4219 8.41406 83.7188C7.7474 84.0156 7.03125 84.1641 6.26562 84.1641C5.5 84.1641 4.78125 84.0156 4.10938 83.7188C3.44271 83.4219 2.85417 83.0078 2.34375 82.4766C1.83333 81.9401 1.4349 81.3177 1.14844 80.6094C0.861979 79.901 0.71875 79.1328 0.71875 78.3047ZM20.9766 82.8125V84H13.5312V82.9609L17.2578 78.8125C17.7161 78.3021 18.0703 77.8698 18.3203 77.5156C18.5755 77.1562 18.7526 76.8359 18.8516 76.5547C18.9557 76.2682 19.0078 75.9766 19.0078 75.6797C19.0078 75.3047 18.9297 74.9661 18.7734 74.6641C18.6224 74.3568 18.3984 74.112 18.1016 73.9297C17.8047 73.7474 17.4453 73.6562 17.0234 73.6562C16.5182 73.6562 16.0964 73.7552 15.7578 73.9531C15.4245 74.1458 15.1745 74.4167 15.0078 74.7656C14.8411 75.1146 14.7578 75.5156 14.7578 75.9688H13.3125C13.3125 75.3281 13.4531 74.7422 13.7344 74.2109C14.0156 73.6797 14.4323 73.2578 14.9844 72.9453C15.5365 72.6276 16.2161 72.4688 17.0234 72.4688C17.7422 72.4688 18.3568 72.5964 18.8672 72.8516C19.3776 73.1016 19.7682 73.4557 20.0391 73.9141C20.3151 74.3672 20.4531 74.8984 20.4531 75.5078C20.4531 75.8411 20.3958 76.1797 20.2812 76.5234C20.1719 76.862 20.0182 77.2005 19.8203 77.5391C19.6276 77.8776 19.401 78.2109 19.1406 78.5391C18.8854 78.8672 18.612 79.1901 18.3203 79.5078L15.2734 82.8125H20.9766ZM29.6641 77.4062V79.1406C29.6641 80.0729 29.5807 80.8594 29.4141 81.5C29.2474 82.1406 29.0078 82.6562 28.6953 83.0469C28.3828 83.4375 28.0052 83.7214 27.5625 83.8984C27.125 84.0703 26.6302 84.1562 26.0781 84.1562C25.6406 84.1562 25.237 84.1016 24.8672 83.9922C24.4974 83.8828 24.1641 83.7083 23.8672 83.4688C23.5755 83.224 23.3255 82.9062 23.1172 82.5156C22.9089 82.125 22.75 81.651 22.6406 81.0938C22.5312 80.5365 22.4766 79.8854 22.4766 79.1406V77.4062C22.4766 76.474 22.5599 75.6927 22.7266 75.0625C22.8984 74.4323 23.1406 73.9271 23.4531 73.5469C23.7656 73.1615 24.1406 72.8854 24.5781 72.7188C25.0208 72.5521 25.5156 72.4688 26.0625 72.4688C26.5052 72.4688 26.9115 72.5234 27.2812 72.6328C27.6562 72.737 27.9896 72.9062 28.2812 73.1406C28.5729 73.3698 28.8203 73.6771 29.0234 74.0625C29.2318 74.4427 29.3906 74.9089 29.5 75.4609C29.6094 76.013 29.6641 76.6615 29.6641 77.4062ZM28.2109 79.375V77.1641C28.2109 76.6536 28.1797 76.2057 28.1172 75.8203C28.0599 75.4297 27.974 75.0964 27.8594 74.8203C27.7448 74.5443 27.599 74.3203 27.4219 74.1484C27.25 73.9766 27.0495 73.8516 26.8203 73.7734C26.5964 73.6901 26.3438 73.6484 26.0625 73.6484C25.7188 73.6484 25.4141 73.7135 25.1484 73.8438C24.8828 73.9688 24.6589 74.1693 24.4766 74.4453C24.2995 74.7214 24.1641 75.0833 24.0703 75.5312C23.9766 75.9792 23.9297 76.5234 23.9297 77.1641V79.375C23.9297 79.8854 23.9583 80.3359 24.0156 80.7266C24.0781 81.1172 24.1693 81.4557 24.2891 81.7422C24.4089 82.0234 24.5547 82.2552 24.7266 82.4375C24.8984 82.6198 25.0964 82.7552 25.3203 82.8438C25.5495 82.9271 25.8021 82.9688 26.0781 82.9688C26.4323 82.9688 26.7422 82.901 27.0078 82.7656C27.2734 82.6302 27.4948 82.4193 27.6719 82.1328C27.8542 81.8411 27.9896 81.4688 28.0781 81.0156C28.1667 80.5573 28.2109 80.0104 28.2109 79.375ZM38.9766 82.8125V84H31.5312V82.9609L35.2578 78.8125C35.7161 78.3021 36.0703 77.8698 36.3203 77.5156C36.5755 77.1562 36.7526 76.8359 36.8516 76.5547C36.9557 76.2682 37.0078 75.9766 37.0078 75.6797C37.0078 75.3047 36.9297 74.9661 36.7734 74.6641C36.6224 74.3568 36.3984 74.112 36.1016 73.9297C35.8047 73.7474 35.4453 73.6562 35.0234 73.6562C34.5182 73.6562 34.0964 73.7552 33.7578 73.9531C33.4245 74.1458 33.1745 74.4167 33.0078 74.7656C32.8411 75.1146 32.7578 75.5156 32.7578 75.9688H31.3125C31.3125 75.3281 31.4531 74.7422 31.7344 74.2109C32.0156 73.6797 32.4323 73.2578 32.9844 72.9453C33.5365 72.6276 34.2161 72.4688 35.0234 72.4688C35.7422 72.4688 36.3568 72.5964 36.8672 72.8516C37.3776 73.1016 37.7682 73.4557 38.0391 73.9141C38.3151 74.3672 38.4531 74.8984 38.4531 75.5078C38.4531 75.8411 38.3958 76.1797 38.2812 76.5234C38.1719 76.862 38.0182 77.2005 37.8203 77.5391C37.6276 77.8776 37.401 78.2109 37.1406 78.5391C36.8854 78.8672 36.612 79.1901 36.3203 79.5078L33.2734 82.8125H38.9766ZM42.6328 77.6016H43.6641C44.1693 77.6016 44.5859 77.5182 44.9141 77.3516C45.2474 77.1797 45.4948 76.9479 45.6562 76.6562C45.8229 76.3594 45.9062 76.026 45.9062 75.6562C45.9062 75.2188 45.8333 74.8516 45.6875 74.5547C45.5417 74.2578 45.3229 74.0339 45.0312 73.8828C44.7396 73.7318 44.3698 73.6562 43.9219 73.6562C43.5156 73.6562 43.1562 73.737 42.8438 73.8984C42.5365 74.0547 42.2943 74.2786 42.1172 74.5703C41.9453 74.862 41.8594 75.2057 41.8594 75.6016H40.4141C40.4141 75.0234 40.5599 74.4974 40.8516 74.0234C41.1432 73.5495 41.5521 73.1719 42.0781 72.8906C42.6094 72.6094 43.224 72.4688 43.9219 72.4688C44.6094 72.4688 45.2109 72.5911 45.7266 72.8359C46.2422 73.0755 46.6432 73.4349 46.9297 73.9141C47.2161 74.388 47.3594 74.9792 47.3594 75.6875C47.3594 75.974 47.2917 76.2812 47.1562 76.6094C47.026 76.9323 46.8203 77.2344 46.5391 77.5156C46.263 77.7969 45.9036 78.0286 45.4609 78.2109C45.0182 78.388 44.487 78.4766 43.8672 78.4766H42.6328V77.6016ZM42.6328 78.7891V77.9219H43.8672C44.5911 77.9219 45.1901 78.0078 45.6641 78.1797C46.138 78.3516 46.5104 78.5807 46.7812 78.8672C47.0573 79.1536 47.25 79.4688 47.3594 79.8125C47.474 80.151 47.5312 80.4896 47.5312 80.8281C47.5312 81.3594 47.4401 81.8307 47.2578 82.2422C47.0807 82.6536 46.8281 83.0026 46.5 83.2891C46.1771 83.5755 45.7969 83.7917 45.3594 83.9375C44.9219 84.0833 44.4453 84.1562 43.9297 84.1562C43.4349 84.1562 42.9688 84.0859 42.5312 83.9453C42.099 83.8047 41.7161 83.6016 41.3828 83.3359C41.0495 83.0651 40.7891 82.7344 40.6016 82.3438C40.4141 81.9479 40.3203 81.4974 40.3203 80.9922H41.7656C41.7656 81.388 41.8516 81.7344 42.0234 82.0312C42.2005 82.3281 42.4505 82.5599 42.7734 82.7266C43.1016 82.888 43.487 82.9688 43.9297 82.9688C44.3724 82.9688 44.7526 82.8932 45.0703 82.7422C45.3932 82.5859 45.6406 82.3516 45.8125 82.0391C45.9896 81.7266 46.0781 81.3333 46.0781 80.8594C46.0781 80.3854 45.9792 79.9974 45.7812 79.6953C45.5833 79.388 45.3021 79.1615 44.9375 79.0156C44.5781 78.8646 44.1536 78.7891 43.6641 78.7891H42.6328Z" fill="white"/>
</svg>
