<svg width="577" height="689" viewBox="0 0 577 689" fill="none" xmlns="http://www.w3.org/2000/svg">
<path d="M345.355 250.254C293.557 250.254 251.408 292.412 251.408 344.23C251.408 396.042 293.557 438.207 345.355 438.207C397.147 438.207 439.296 396.042 439.296 344.23C439.296 292.412 397.147 250.254 345.355 250.254ZM345.355 420.972C303.056 420.972 268.644 386.54 268.644 344.23C268.644 301.914 303.056 267.489 345.355 267.489C387.649 267.489 422.061 301.914 422.061 344.23C422.061 386.54 387.649 420.972 345.355 420.972Z" fill="white"/>
<path d="M505.745 457.948C507.658 459.493 510.123 460.171 512.529 459.756C514.935 459.368 517.071 457.981 518.399 455.923C531.966 434.939 541.478 411.969 546.697 387.664C547.21 385.271 546.691 382.772 545.251 380.793C543.818 378.813 541.61 377.538 539.177 377.281C522.244 375.499 509.472 361.288 509.472 344.23C509.472 327.166 522.244 312.962 539.177 311.173C541.61 310.923 543.818 309.641 545.251 307.662C546.691 305.689 547.21 303.19 546.697 300.796C541.478 276.485 531.966 253.515 518.399 232.532C517.071 230.48 514.935 229.092 512.529 228.704C510.123 228.297 507.658 228.974 505.745 230.513C492.519 241.192 473.443 240.173 461.407 228.132C449.358 216.079 448.339 197.002 459.021 183.771C460.566 181.871 461.217 179.405 460.835 176.985C460.448 174.578 459.061 172.441 457.003 171.112C436.021 157.546 413.066 148.018 388.765 142.803C386.385 142.303 383.88 142.816 381.902 144.256C379.923 145.683 378.648 147.899 378.392 150.332C376.61 167.265 362.405 180.043 345.354 180.043C328.296 180.043 314.091 167.265 312.309 150.332C312.059 147.899 310.778 145.683 308.799 144.256C306.833 142.816 304.309 142.31 301.936 142.803C277.641 148.018 254.693 157.546 233.698 171.112C231.647 172.441 230.253 174.571 229.872 176.985C229.484 179.405 230.141 181.871 231.68 183.771C242.375 197.002 241.356 216.079 229.307 228.132C217.258 240.173 198.181 241.186 184.962 230.513C183.056 228.974 180.611 228.297 178.185 228.704C175.773 229.092 173.636 230.48 172.308 232.532C158.754 253.489 149.229 276.452 144.003 300.796C143.491 303.19 144.01 305.689 145.449 307.662C146.882 309.641 149.098 310.923 151.53 311.173C168.456 312.962 181.229 327.166 181.229 344.23C181.229 361.288 168.456 375.499 151.53 377.281C149.098 377.538 146.882 378.813 145.449 380.793C144.01 382.772 143.491 385.271 144.003 387.664C149.229 412.002 158.754 434.965 172.308 455.923C173.636 457.981 175.773 459.368 178.185 459.756C180.611 460.171 183.056 459.493 184.962 457.948C198.181 447.262 217.264 448.288 229.307 460.329C241.356 472.382 242.375 491.452 231.68 504.683C230.141 506.59 229.484 509.056 229.872 511.47C230.253 513.883 231.647 516.014 233.698 517.348C254.693 530.915 277.641 540.443 301.936 545.651C304.296 546.164 306.82 545.645 308.799 544.205C310.778 542.771 312.059 540.562 312.309 538.128C314.091 521.195 328.296 508.412 345.354 508.412C362.405 508.412 376.61 521.195 378.392 538.128C378.648 540.562 379.923 542.771 381.902 544.205C383.381 545.283 385.156 545.849 386.957 545.849C387.562 545.849 388.173 545.776 388.765 545.651C413.066 540.443 436.021 530.915 457.003 517.348C459.061 516.014 460.448 513.876 460.835 511.47C461.217 509.056 460.566 506.59 459.021 504.683C448.339 491.452 449.358 472.382 461.407 460.329C473.437 448.281 492.519 447.262 505.745 457.948ZM449.22 448.137C433.267 464.097 430.046 488.171 440.261 507.412C425.589 515.981 409.951 522.471 393.589 526.778C387.226 505.939 367.933 491.176 345.354 491.176C322.767 491.176 303.474 505.933 297.111 526.778C280.757 522.471 265.125 515.981 250.44 507.412C260.662 488.171 257.447 464.097 241.487 448.137C225.527 432.184 201.475 428.968 182.241 439.174C173.669 424.509 167.188 408.872 162.869 392.485C183.713 386.119 198.458 366.819 198.458 344.23C198.458 321.636 183.713 302.335 162.869 295.976C167.188 279.582 173.669 263.945 182.241 249.281C201.475 259.5 225.527 256.277 241.487 240.318C257.447 224.358 260.662 200.29 250.44 181.042C265.125 172.474 280.757 165.99 297.111 161.676C303.474 182.528 322.767 197.285 345.354 197.285C367.933 197.285 387.226 182.515 393.589 161.676C409.951 165.99 425.589 172.474 440.261 181.042C430.046 200.29 433.267 224.358 449.22 240.318C465.167 256.264 489.213 259.493 508.473 249.281C517.038 263.951 523.526 279.602 527.832 295.976C506.994 302.335 492.243 321.636 492.243 344.23C492.243 366.819 506.994 386.119 527.832 392.485C523.526 408.859 517.038 424.496 508.473 439.174C489.239 428.968 465.174 432.184 449.22 448.137Z" fill="white"/>
<path d="M41.9593 469.344C40.1253 464.951 35.0769 462.88 30.7056 464.682C26.3014 466.503 24.2176 471.547 26.0451 475.94C29.4567 484.179 33.2101 492.34 37.2001 500.192C38.7252 503.177 41.749 504.907 44.891 504.907C46.1992 504.907 47.5336 504.604 48.7825 503.973C53.0289 501.816 54.7183 496.621 52.5622 492.38C48.7694 484.922 45.2066 477.169 41.9593 469.344Z" fill="white"/>
<path d="M586.75 123.739C588.446 125.6 590.78 126.553 593.12 126.553C595.191 126.553 597.268 125.81 598.924 124.305C602.441 121.095 602.691 115.651 599.49 112.126C593.495 105.55 587.197 99.145 580.749 93.082C577.311 89.8334 571.829 89.9781 568.575 93.4634C565.321 96.9289 565.485 102.387 568.956 105.642C575.07 111.403 581.064 117.485 586.75 123.739Z" fill="white"/>
<path d="M78.9663 535.695C76.1857 531.842 70.8087 530.954 66.9435 533.749C63.0783 536.537 62.2106 541.923 64.9978 545.776C70.1776 552.97 75.7059 560.046 81.4379 566.813C83.147 568.831 85.5791 569.87 88.0244 569.87C89.9899 569.87 91.9619 569.193 93.579 567.832C97.2141 564.754 97.6677 559.316 94.5979 555.686C89.1485 549.248 83.8963 542.521 78.9663 535.695Z" fill="white"/>
<path d="M49.4857 166.154C44.8909 173.756 40.5393 181.627 36.5492 189.558C34.4129 193.806 36.1285 198.988 40.3815 201.131C41.6239 201.749 42.9452 202.045 44.2401 202.045C47.3954 202.045 50.4323 200.309 51.9508 197.298C55.7239 189.775 59.8586 182.291 64.2233 175.077C66.6884 171 65.3868 165.707 61.3113 163.241C57.2358 160.781 51.9376 162.083 49.4857 166.154Z" fill="white"/>
<path d="M17.2421 345.677L17.2289 344.23C17.2289 335.793 17.5576 327.258 18.2018 318.854C18.5633 314.106 15.0137 309.963 10.2677 309.602C5.34419 309.299 1.38042 312.791 1.01888 317.539C0.341818 326.383 0 335.366 0 344.382L0.00657342 345.677C0.00657342 350.438 3.86517 354.298 8.62432 354.298C13.3835 354.298 17.2421 350.438 17.2421 345.677Z" fill="white"/>
<path d="M509.163 627.462C501.86 631.717 494.327 635.722 486.78 639.371C482.501 641.43 480.7 646.585 482.77 650.873C484.249 653.957 487.326 655.752 490.534 655.752C491.789 655.752 493.058 655.469 494.267 654.891C502.215 651.063 510.149 646.842 517.846 642.357C521.955 639.957 523.342 634.683 520.949 630.566C518.563 626.456 513.284 625.069 509.163 627.462Z" fill="white"/>
<path d="M26.3 421.11C24.3411 412.962 22.6649 404.591 21.3305 396.213C20.5811 391.518 16.1769 388.316 11.4572 389.065C6.76376 389.815 3.56908 394.234 4.31845 398.942C5.71859 407.754 7.48684 416.566 9.54432 425.134C10.4909 429.093 14.0274 431.743 17.9123 431.743C18.5762 431.743 19.2598 431.664 19.9303 431.506C24.558 430.389 27.4109 425.733 26.3 421.11Z" fill="white"/>
<path d="M288.868 667.03C280.487 665.589 272.139 663.814 264.053 661.762C259.445 660.611 254.752 663.386 253.582 667.996C252.412 672.619 255.205 677.308 259.813 678.478C268.339 680.629 277.128 682.496 285.943 684.015C286.436 684.101 286.935 684.14 287.415 684.14C291.537 684.14 295.172 681.174 295.895 676.985C296.703 672.29 293.555 667.838 288.868 667.03Z" fill="white"/>
<path d="M211.29 44.2035C212.427 44.2035 213.591 43.98 214.708 43.4999C222.465 40.1396 230.419 37.0621 238.346 34.3528C242.842 32.8075 245.242 27.9084 243.703 23.3973C242.152 18.8994 237.275 16.5254 232.759 18.0379C224.417 20.8984 216.036 24.1404 207.859 27.6782C203.494 29.5721 201.489 34.6421 203.376 39.0151C204.782 42.2636 207.951 44.2035 211.29 44.2035Z" fill="white"/>
<path d="M388.548 19.6224C388.943 19.6684 389.33 19.6947 389.712 19.6947C393.958 19.6947 397.652 16.558 398.244 12.2311C398.875 7.51611 395.569 3.16941 390.855 2.53155C382.106 1.35445 373.153 0.506158 364.259 0.0063867C359.454 -0.171162 355.438 3.37327 355.182 8.12767C354.912 12.8886 358.547 16.9526 363.3 17.2156C371.747 17.6891 380.246 18.4979 388.548 19.6224Z" fill="white"/>
<path d="M287.436 21.681C295.732 20.2277 304.192 19.0703 312.573 18.2549C317.306 17.8012 320.776 13.586 320.31 8.84473C319.856 4.11663 315.702 0.716871 310.903 1.10485C302.088 1.95315 293.188 3.16969 284.445 4.71504C279.758 5.53703 276.629 10.0087 277.458 14.6973C278.194 18.8796 281.829 21.819 285.931 21.819C286.43 21.819 286.936 21.773 287.436 21.681Z" fill="white"/>
<path d="M462.158 38.4429C463.17 38.8309 464.222 39.015 465.254 39.015C468.712 39.015 471.972 36.9173 473.293 33.4912C475.002 29.0459 472.787 24.0548 468.35 22.345C460.094 19.1754 451.588 16.2754 443.075 13.7371C438.448 12.3759 433.702 14.98 432.354 19.5305C430.987 24.0877 433.59 28.8947 438.139 30.2493C446.244 32.6693 454.322 35.418 462.158 38.4429Z" fill="white"/>
<path d="M529.424 73.8081C530.917 74.8274 532.606 75.314 534.282 75.314C537.03 75.314 539.732 74.0054 541.401 71.5591C544.09 67.6333 543.084 62.2673 539.153 59.5844C531.784 54.5406 524.172 49.7533 516.554 45.354C512.432 42.967 507.16 44.3808 504.781 48.5105C502.401 52.6336 503.814 57.9009 507.936 60.2814C515.18 64.4637 522.417 69.0208 529.424 73.8081Z" fill="white"/>
<path d="M215.989 645.507C208.226 642.199 200.515 638.53 193.048 634.624C188.814 632.401 183.635 634.052 181.419 638.26C179.217 642.475 180.841 647.683 185.054 649.893C192.916 654.009 201.041 657.87 209.205 661.361C210.316 661.835 211.46 662.052 212.597 662.052C215.936 662.052 219.118 660.092 220.525 656.824C222.392 652.451 220.36 647.381 215.989 645.507Z" fill="white"/>
<path d="M98.5031 102.906C92.2912 109.246 86.2502 115.907 80.5577 122.706C77.4944 126.35 77.9612 131.788 81.616 134.846C83.233 136.2 85.1919 136.864 87.1442 136.864C89.6092 136.864 92.048 135.819 93.7505 133.78C99.167 127.323 104.906 120.997 110.802 114.98C114.135 111.58 114.089 106.115 110.684 102.788C107.279 99.4474 101.829 99.5132 98.5031 102.906Z" fill="white"/>
<path d="M130.246 591.781C126.65 588.664 121.22 589.059 118.091 592.643C114.975 596.246 115.363 601.691 118.959 604.808C125.664 610.615 132.671 616.237 139.803 621.518C141.348 622.662 143.149 623.208 144.924 623.208C147.566 623.208 150.163 622.004 151.852 619.716C154.692 615.895 153.884 610.49 150.058 607.662C143.281 602.645 136.615 597.298 130.246 591.781Z" fill="white"/>
<path d="M364.752 671.146C358.132 671.541 351.362 671.751 344.637 671.758L339.345 671.718C334.698 671.607 330.675 675.454 330.609 680.221C330.544 684.976 334.343 688.888 339.109 688.954L344.643 689C351.723 688.987 358.829 688.77 365.797 688.349C370.543 688.066 374.158 683.983 373.875 679.228C373.586 674.48 369.438 670.969 364.752 671.146Z" fill="white"/>
<path d="M439.532 657.797C431.486 660.217 423.229 662.374 414.98 664.182C410.326 665.202 407.388 669.798 408.406 674.441C409.287 678.478 412.85 681.221 416.814 681.221C417.425 681.221 418.043 681.155 418.661 681.017C427.351 679.116 436.048 676.854 444.508 674.29C449.07 672.922 451.646 668.108 450.266 663.551C448.905 658.987 444.087 656.416 439.532 657.797Z" fill="white"/>
<path d="M15.6051 275.143C16.2756 275.295 16.9395 275.367 17.5903 275.367C21.4949 275.367 25.0314 272.691 25.9714 268.725C27.9105 260.492 30.1915 252.266 32.7486 244.276C34.2013 239.739 31.7034 234.892 27.1677 233.439C22.6058 232.005 17.7875 234.491 16.3413 239.022C13.6462 247.439 11.2403 256.099 9.196 264.773C8.11138 269.403 10.9708 274.045 15.6051 275.143Z" fill="white"/>
<path d="M619.683 606.077H568.759C573.215 602.257 577.613 598.364 581.82 594.372C585.271 591.091 585.409 585.633 582.135 582.18C578.855 578.734 573.412 578.596 569.955 581.865C564.611 586.941 558.977 591.873 553.226 596.634V539.594C553.226 534.827 549.373 530.973 544.614 530.973C539.849 530.973 535.997 534.827 535.997 539.594V614.698C535.997 619.466 539.849 623.319 544.614 623.319H619.683C624.442 623.319 628.294 619.466 628.294 614.698C628.294 609.937 624.442 606.077 619.683 606.077Z" fill="white"/>
<path d="M143.603 159.847C148.362 159.847 152.214 155.994 152.214 151.233V79.2725C157.999 75.0639 163.902 70.9934 169.883 67.1991C173.906 64.6608 175.109 59.3408 172.565 55.3164C170.041 51.3051 164.723 50.0885 160.681 52.64C153.338 57.2826 146.068 62.2803 139.054 67.5082H68.5213C63.7622 67.5082 59.9102 71.3617 59.9102 76.1226C59.9102 80.8902 63.7622 84.7437 68.5213 84.7437H134.985V151.233C134.985 155.994 138.837 159.847 143.603 159.847Z" fill="white"/>
</svg>
