<svg width="689" height="689" viewBox="0 0 689 689" fill="none" xmlns="http://www.w3.org/2000/svg">
<path d="M345.355 250.254C293.557 250.254 251.408 292.412 251.408 344.23C251.408 396.042 293.557 438.207 345.355 438.207C397.147 438.207 439.296 396.042 439.296 344.23C439.296 292.412 397.147 250.254 345.355 250.254ZM345.355 420.972C303.055 420.972 268.643 386.54 268.643 344.23C268.643 301.914 303.055 267.489 345.355 267.489C387.649 267.489 422.06 301.914 422.06 344.23C422.06 386.54 387.649 420.972 345.355 420.972Z" fill="white"/>
<path d="M505.745 457.948C507.658 459.493 510.123 460.171 512.529 459.757C514.934 459.369 517.071 457.981 518.399 455.923C531.966 434.939 541.478 411.969 546.697 387.665C547.21 385.271 546.691 382.772 545.251 380.793C543.818 378.813 541.609 377.538 539.177 377.281C522.244 375.499 509.472 361.288 509.472 344.23C509.472 327.166 522.244 312.962 539.177 311.173C541.609 310.923 543.818 309.641 545.251 307.662C546.691 305.689 547.21 303.19 546.697 300.796C541.478 276.485 531.966 253.515 518.399 232.532C517.071 230.48 514.934 229.092 512.529 228.704C510.123 228.297 507.658 228.974 505.745 230.513C492.519 241.192 473.443 240.173 461.407 228.132C449.358 216.079 448.339 197.002 459.021 183.771C460.566 181.871 461.217 179.405 460.835 176.985C460.447 174.578 459.06 172.441 457.003 171.112C436.021 157.546 413.066 148.018 388.764 142.803C386.385 142.303 383.88 142.816 381.902 144.256C379.923 145.683 378.648 147.899 378.391 150.332C376.61 167.266 362.405 180.043 345.353 180.043C328.295 180.043 314.09 167.266 312.309 150.332C312.059 147.899 310.777 145.683 308.799 144.256C306.833 142.816 304.309 142.31 301.936 142.803C277.641 148.018 254.693 157.546 233.697 171.112C231.646 172.441 230.253 174.571 229.872 176.985C229.484 179.405 230.141 181.871 231.679 183.771C242.374 197.002 241.355 216.079 229.306 228.132C217.257 240.173 198.181 241.186 184.962 230.513C183.056 228.974 180.61 228.297 178.185 228.704C175.772 229.092 173.636 230.48 172.308 232.532C158.754 253.489 149.229 276.452 144.003 300.796C143.49 303.19 144.01 305.689 145.449 307.662C146.882 309.641 149.097 310.923 151.53 311.173C168.456 312.962 181.228 327.166 181.228 344.23C181.228 361.288 168.456 375.499 151.53 377.281C149.097 377.538 146.882 378.813 145.449 380.793C144.01 382.772 143.49 385.271 144.003 387.665C149.229 412.002 158.754 434.965 172.308 455.923C173.636 457.981 175.772 459.369 178.185 459.757C180.61 460.171 183.056 459.493 184.962 457.948C198.181 447.262 217.264 448.288 229.306 460.329C241.355 472.382 242.374 491.453 231.679 504.683C230.141 506.59 229.484 509.056 229.872 511.47C230.253 513.883 231.646 516.014 233.697 517.349C254.693 530.915 277.641 540.443 301.936 545.651C304.296 546.164 306.82 545.645 308.799 544.205C310.777 542.771 312.059 540.562 312.309 538.129C314.09 521.195 328.295 508.412 345.353 508.412C362.405 508.412 376.61 521.195 378.391 538.129C378.648 540.562 379.923 542.771 381.902 544.205C383.381 545.283 385.155 545.849 386.957 545.849C387.561 545.849 388.173 545.776 388.764 545.651C413.066 540.443 436.021 530.915 457.003 517.349C459.06 516.014 460.447 513.876 460.835 511.47C461.217 509.056 460.566 506.59 459.021 504.683C448.339 491.453 449.358 472.382 461.407 460.329C473.436 448.282 492.519 447.262 505.745 457.948ZM449.22 448.137C433.266 464.097 430.045 488.171 440.26 507.412C425.589 515.981 409.95 522.471 393.589 526.778C387.226 505.939 367.933 491.176 345.353 491.176C322.767 491.176 303.474 505.933 297.111 526.778C280.756 522.471 265.125 515.981 250.44 507.412C260.662 488.171 257.447 464.097 241.487 448.137C225.527 432.184 201.474 428.968 182.241 439.174C173.669 424.51 167.188 408.872 162.869 392.485C183.713 386.119 198.457 366.819 198.457 344.23C198.457 321.636 183.713 302.335 162.869 295.976C167.188 279.582 173.669 263.945 182.241 249.281C201.474 259.5 225.527 256.277 241.487 240.318C257.447 224.358 260.662 200.29 250.44 181.042C265.125 172.474 280.756 165.99 297.111 161.676C303.474 182.528 322.767 197.285 345.353 197.285C367.933 197.285 387.226 182.515 393.589 161.676C409.95 165.99 425.589 172.474 440.26 181.042C430.045 200.29 433.266 224.358 449.22 240.318C465.167 256.264 489.213 259.493 508.473 249.281C517.038 263.951 523.526 279.602 527.832 295.976C506.994 302.335 492.243 321.636 492.243 344.23C492.243 366.819 506.994 386.119 527.832 392.485C523.526 408.859 517.038 424.496 508.473 439.174C489.239 428.968 465.174 432.184 449.22 448.137Z" fill="white"/>
<path d="M679.481 373.907C674.702 373.296 670.482 376.768 669.956 381.502C668.997 389.893 667.708 398.337 666.117 406.583C665.223 411.265 668.28 415.783 672.947 416.684C673.506 416.782 674.052 416.835 674.591 416.835C678.64 416.835 682.249 413.974 683.044 409.851C684.714 401.164 686.068 392.274 687.067 383.436C687.606 378.708 684.208 374.44 679.481 373.907Z" fill="white"/>
<path d="M41.9591 469.344C40.1251 464.951 35.0767 462.88 30.7054 464.682C26.3012 466.503 24.2174 471.547 26.0448 475.94C29.4564 484.179 33.2098 492.34 37.1999 500.192C38.7249 503.177 41.7487 504.907 44.8908 504.907C46.1989 504.907 47.5333 504.604 48.7823 503.973C53.0287 501.816 54.7181 496.621 52.562 492.38C48.7691 484.922 45.2063 477.169 41.9591 469.344Z" fill="white"/>
<path d="M630.6 521.031C626.636 518.414 621.279 519.531 618.676 523.516C614.048 530.566 609.092 537.53 603.945 544.198C601.046 547.966 601.743 553.378 605.503 556.291C607.074 557.494 608.927 558.086 610.761 558.086C613.345 558.086 615.895 556.929 617.591 554.732C623.001 547.716 628.22 540.39 633.085 532.96C635.694 528.981 634.583 523.641 630.6 521.031Z" fill="white"/>
<path d="M646.134 177.09C641.841 169.356 637.181 161.676 632.277 154.251C629.641 150.273 624.297 149.195 620.339 151.818C616.363 154.449 615.278 159.788 617.907 163.767C622.568 170.81 626.992 178.115 631.074 185.454C632.645 188.295 635.583 189.893 638.614 189.893C640.027 189.893 641.466 189.544 642.788 188.808C646.949 186.5 648.447 181.246 646.134 177.09Z" fill="white"/>
<path d="M586.75 123.739C588.446 125.6 590.78 126.553 593.12 126.553C595.191 126.553 597.268 125.81 598.924 124.304C602.441 121.095 602.691 115.651 599.49 112.126C593.495 105.55 587.197 99.145 580.749 93.0819C577.311 89.8334 571.829 89.9781 568.575 93.4633C565.321 96.9289 565.485 102.387 568.956 105.642C575.07 111.402 581.064 117.485 586.75 123.739Z" fill="white"/>
<path d="M78.966 535.695C76.1855 531.842 70.8084 530.954 66.9433 533.749C63.0781 536.537 62.2104 541.923 64.9975 545.776C70.1774 552.97 75.7056 560.046 81.4376 566.812C83.1467 568.831 85.5789 569.87 88.0242 569.87C89.9897 569.87 91.9617 569.193 93.5787 567.832C97.2138 564.754 97.6674 559.316 94.5976 555.686C89.1483 549.248 83.8961 542.521 78.966 535.695Z" fill="white"/>
<path d="M49.4857 166.154C44.8909 173.756 40.5393 181.627 36.5492 189.558C34.4129 193.806 36.1285 198.987 40.3815 201.131C41.6239 201.749 42.9452 202.045 44.2401 202.045C47.3954 202.045 50.4323 200.309 51.9508 197.297C55.7239 189.775 59.8586 182.291 64.2233 175.077C66.6884 171 65.3868 165.707 61.3113 163.241C57.2358 160.781 51.9376 162.083 49.4857 166.154Z" fill="white"/>
<path d="M17.2421 345.677L17.2289 344.23C17.2289 335.793 17.5576 327.258 18.2018 318.854C18.5633 314.106 15.0137 309.963 10.2677 309.601C5.34419 309.299 1.38042 312.791 1.01888 317.539C0.341818 326.383 0 335.366 0 344.382L0.00657342 345.677C0.00657342 350.438 3.86517 354.298 8.62432 354.298C13.3835 354.298 17.2421 350.438 17.2421 345.677Z" fill="white"/>
<path d="M668.227 261.998C669.002 261.998 669.785 261.899 670.56 261.682C675.135 260.4 677.811 255.646 676.536 251.056C674.143 242.507 671.382 233.945 668.332 225.62C666.689 221.161 661.765 218.847 657.275 220.504C652.806 222.135 650.518 227.093 652.161 231.564C655.054 239.462 657.67 247.583 659.944 255.705C661.003 259.512 664.467 261.998 668.227 261.998Z" fill="white"/>
<path d="M509.162 627.462C501.859 631.717 494.326 635.722 486.78 639.371C482.501 641.43 480.7 646.585 482.77 650.873C484.249 653.957 487.326 655.752 490.533 655.752C491.789 655.752 493.058 655.469 494.267 654.891C502.214 651.063 510.148 646.842 517.846 642.357C521.954 639.957 523.341 634.683 520.949 630.566C518.562 626.456 513.284 625.069 509.162 627.462Z" fill="white"/>
<path d="M663.693 450.319C659.203 448.675 654.273 451.017 652.663 455.495C649.81 463.406 646.595 471.33 643.118 479.03C641.153 483.37 643.079 488.473 647.417 490.433C648.567 490.959 649.77 491.202 650.954 491.202C654.24 491.202 657.376 489.315 658.815 486.132C662.483 478.017 665.869 469.679 668.873 461.354C670.483 456.876 668.169 451.937 663.693 450.319Z" fill="white"/>
<path d="M26.3002 421.11C24.3413 412.962 22.6651 404.591 21.3307 396.213C20.5813 391.518 16.1771 388.316 11.4574 389.065C6.76401 389.815 3.56933 394.234 4.3187 398.942C5.71884 407.754 7.48709 416.566 9.54457 425.134C10.4911 429.093 14.0276 431.743 17.9125 431.743C18.5764 431.743 19.2601 431.664 19.9306 431.506C24.5583 430.389 27.4111 425.733 26.3002 421.11Z" fill="white"/>
<path d="M288.868 667.03C280.487 665.589 272.139 663.814 264.053 661.762C259.445 660.611 254.752 663.387 253.582 667.996C252.412 672.619 255.205 677.308 259.813 678.478C268.339 680.629 277.128 682.496 285.943 684.015C286.436 684.101 286.935 684.14 287.415 684.14C291.537 684.14 295.172 681.174 295.895 676.986C296.703 672.29 293.555 667.838 288.868 667.03Z" fill="white"/>
<path d="M211.29 44.2036C212.427 44.2036 213.59 43.9801 214.708 43.5C222.464 40.1397 230.418 37.0622 238.346 34.3529C242.842 32.8075 245.241 27.9085 243.703 23.3974C242.152 18.8994 237.274 16.5255 232.758 18.038C224.417 20.8985 216.036 24.1405 207.858 27.6783C203.494 29.5722 201.489 34.6422 203.375 39.0152C204.782 42.2637 207.95 44.2036 211.29 44.2036Z" fill="white"/>
<path d="M388.548 19.6224C388.943 19.6684 389.331 19.6947 389.712 19.6947C393.958 19.6947 397.653 16.558 398.244 12.2311C398.875 7.51611 395.569 3.16941 390.856 2.53155C382.107 1.35445 373.154 0.506158 364.26 0.0063867C359.455 -0.171162 355.438 3.37327 355.182 8.12767C354.912 12.8886 358.547 16.9526 363.3 17.2156C371.747 17.6891 380.246 18.4979 388.548 19.6224Z" fill="white"/>
<path d="M287.436 21.6809C295.731 20.2276 304.191 19.0702 312.573 18.2548C317.305 17.8011 320.776 13.5859 320.309 8.84467C319.856 4.11657 315.702 0.71681 310.903 1.10479C302.088 1.95309 293.188 3.16963 284.445 4.71498C279.758 5.53697 276.629 10.0086 277.457 14.6972C278.194 18.8795 281.829 21.819 285.931 21.819C286.43 21.819 286.936 21.773 287.436 21.6809Z" fill="white"/>
<path d="M462.158 38.4428C463.17 38.8308 464.222 39.0149 465.254 39.0149C468.712 39.0149 471.972 36.9172 473.293 33.4912C475.002 29.0458 472.787 24.0547 468.35 22.3449C460.094 19.1753 451.588 16.2754 443.075 13.737C438.448 12.3758 433.702 14.9799 432.354 19.5304C430.987 24.0876 433.59 28.8946 438.139 30.2492C446.244 32.6692 454.322 35.4179 462.158 38.4428Z" fill="white"/>
<path d="M529.424 73.8081C530.917 74.8273 532.606 75.314 534.282 75.314C537.03 75.314 539.732 74.0053 541.401 71.5591C544.09 67.6333 543.084 62.2673 539.153 59.5843C531.784 54.5406 524.172 49.7533 516.554 45.354C512.432 42.9669 507.16 44.3808 504.781 48.5104C502.401 52.6336 503.814 57.9009 507.936 60.2814C515.18 64.4637 522.417 69.0208 529.424 73.8081Z" fill="white"/>
<path d="M215.989 645.507C208.226 642.199 200.515 638.53 193.048 634.624C188.814 632.401 183.634 634.052 181.419 638.26C179.217 642.475 180.841 647.683 185.054 649.893C192.916 654.009 201.041 657.87 209.205 661.361C210.316 661.835 211.46 662.052 212.597 662.052C215.936 662.052 219.118 660.092 220.524 656.824C222.391 652.451 220.36 647.381 215.989 645.507Z" fill="white"/>
<path d="M98.5028 102.906C92.291 109.246 86.25 115.907 80.5574 122.707C77.4942 126.35 77.9609 131.788 81.6157 134.846C83.2328 136.2 85.1917 136.865 87.144 136.865C89.609 136.865 92.0477 135.819 93.7503 133.78C99.1668 127.323 104.905 120.997 110.802 114.98C114.134 111.58 114.088 106.116 110.683 102.788C107.278 99.4475 101.829 99.5133 98.5028 102.906Z" fill="white"/>
<path d="M130.246 591.781C126.65 588.664 121.22 589.059 118.091 592.643C114.975 596.246 115.363 601.691 118.959 604.808C125.664 610.615 132.671 616.237 139.803 621.517C141.348 622.662 143.149 623.207 144.924 623.207C147.566 623.207 150.163 622.004 151.852 619.716C154.692 615.895 153.884 610.49 150.058 607.662C143.281 602.645 136.615 597.298 130.246 591.781Z" fill="white"/>
<path d="M677.325 295.904C672.599 296.463 669.22 300.744 669.779 305.478C670.765 313.85 671.435 322.359 671.777 330.789C671.968 335.425 675.787 339.062 680.382 339.062C680.5 339.062 680.612 339.062 680.73 339.055C685.489 338.858 689.19 334.853 688.993 330.099C688.644 321.228 687.928 312.271 686.889 303.453C686.331 298.725 682.084 295.325 677.325 295.904Z" fill="white"/>
<path d="M364.752 671.146C358.132 671.541 351.362 671.751 344.637 671.758L339.346 671.718C334.698 671.607 330.675 675.454 330.609 680.221C330.544 684.976 334.343 688.888 339.109 688.954L344.644 689C351.723 688.987 358.829 688.77 365.797 688.349C370.543 688.066 374.158 683.983 373.876 679.228C373.586 674.48 369.439 670.969 364.752 671.146Z" fill="white"/>
<path d="M439.531 657.797C431.485 660.217 423.229 662.374 414.98 664.182C410.326 665.202 407.387 669.798 408.406 674.441C409.287 678.478 412.85 681.221 416.814 681.221C417.425 681.221 418.043 681.155 418.661 681.017C427.351 679.116 436.047 676.854 444.507 674.29C449.069 672.922 451.646 668.108 450.266 663.551C448.905 658.987 444.087 656.416 439.531 657.797Z" fill="white"/>
<path d="M15.6053 275.143C16.2758 275.295 16.9397 275.367 17.5905 275.367C21.4951 275.367 25.0316 272.691 25.9716 268.725C27.9108 260.492 30.1917 252.266 32.7488 244.276C34.2015 239.739 31.7036 234.892 27.168 233.439C22.606 232.005 17.7877 234.491 16.3415 239.022C13.6464 247.439 11.2406 256.099 9.19624 264.773C8.11162 269.403 10.9711 274.045 15.6053 275.143Z" fill="white"/>
<path d="M619.683 606.077H568.758C573.215 602.257 577.613 598.364 581.82 594.372C585.271 591.091 585.409 585.633 582.135 582.18C578.855 578.734 573.412 578.596 569.955 581.865C564.611 586.941 558.977 591.873 553.226 596.634V539.594C553.226 534.827 549.373 530.973 544.614 530.973C539.849 530.973 535.997 534.827 535.997 539.594V614.698C535.997 619.466 539.849 623.319 544.614 623.319H619.683C624.442 623.319 628.294 619.466 628.294 614.698C628.294 609.937 624.442 606.077 619.683 606.077Z" fill="white"/>
<path d="M143.603 159.848C148.362 159.848 152.214 155.994 152.214 151.233V79.2726C157.999 75.064 163.902 70.9935 169.883 67.1992C173.906 64.6609 175.109 59.341 172.565 55.3165C170.041 51.3052 164.723 50.0886 160.681 52.6401C153.338 57.2827 146.068 62.2804 139.054 67.5083H68.5213C63.7622 67.5083 59.9102 71.3618 59.9102 76.1227C59.9102 80.8903 63.7622 84.7438 68.5213 84.7438H134.985V151.233C134.985 155.994 138.837 159.848 143.603 159.848Z" fill="white"/>
</svg>
