<svg width="180" height="150" viewBox="0 0 180 150" fill="none" xmlns="http://www.w3.org/2000/svg">
<path d="M149.13 37.1671L113.934 0.896776C113.377 0.322558 112.621 0 111.834 0H44.4365C36.476 0 30 6.6744 30 14.8781V135.122C30 143.326 36.4763 150 44.4368 150H135.563C143.524 150 150 143.326 150 135.122V39.3319C150 38.52 149.687 37.7413 149.13 37.1671ZM114.805 10.4528L139.858 36.2709H123.301C121.031 36.2709 118.897 35.3601 117.293 33.7066C115.689 32.0534 114.805 29.8546 114.805 27.5159V10.4528ZM144.059 135.122C144.059 139.95 140.248 143.877 135.563 143.877H44.4365C39.7518 143.877 35.9407 139.95 35.9407 135.122V14.8781C35.941 10.0503 39.7521 6.12245 44.4365 6.12245H108.864V27.5153C108.864 31.4894 110.365 35.2256 113.092 38.0355C115.819 40.8456 119.444 42.3931 123.301 42.3931H144.058L144.059 135.122Z" fill="#0014CD" fill-opacity="0.8"/>
<path d="M95.4268 102.976H94.097C92.4566 102.976 91.1265 104.347 91.1265 106.037C91.1265 107.728 92.4566 109.098 94.097 109.098H95.4268C97.0672 109.098 98.3973 107.728 98.3973 106.037C98.3973 104.347 97.0672 102.976 95.4268 102.976Z" fill="#0014CD" fill-opacity="0.8"/>
<path d="M84.4876 102.976H55.635C53.9947 102.976 52.6646 104.347 52.6646 106.037C52.6646 107.728 53.9947 109.098 55.635 109.098H84.4876C86.1279 109.098 87.4581 107.728 87.4581 106.037C87.4581 104.347 86.1282 102.976 84.4876 102.976Z" fill="#0014CD" fill-opacity="0.8"/>
<path d="M124.365 88.9883H55.6355C53.9952 88.9883 52.665 90.3588 52.665 92.0496C52.665 93.7403 53.9952 95.1108 55.6355 95.1108H124.365C126.005 95.1108 127.335 93.7403 127.335 92.0496C127.335 90.3588 126.005 88.9883 124.365 88.9883Z" fill="#0014CD" fill-opacity="0.8"/>
<path d="M124.365 74.9998H55.6355C53.9952 74.9998 52.665 76.3703 52.665 78.061C52.665 79.7518 53.9952 81.1223 55.6355 81.1223H124.365C126.005 81.1223 127.335 79.7518 127.335 78.061C127.335 76.3703 126.005 74.9998 124.365 74.9998Z" fill="#0014CD" fill-opacity="0.8"/>
<path d="M124.365 61.0121H55.6355C53.9952 61.0121 52.665 62.3826 52.665 64.0733C52.665 65.7641 53.9952 67.1346 55.6355 67.1346H124.365C126.005 67.1346 127.335 65.7641 127.335 64.0733C127.335 62.3826 126.005 61.0121 124.365 61.0121Z" fill="#0014CD" fill-opacity="0.8"/>
</svg>
