<svg width="180" height="150" viewBox="0 0 180 150" fill="none" xmlns="http://www.w3.org/2000/svg">
<mask id="path-1-outside-1_270_153" maskUnits="userSpaceOnUse" x="14" y="4" width="152" height="142" fill="black">
<rect fill="white" x="14" y="4" width="152" height="142"/>
<path d="M82.9029 121.854C84.0756 121.854 85.0138 120.853 85.0138 119.602C85.0138 118.351 84.0756 117.35 82.9029 117.35C81.7301 117.35 80.7919 118.351 80.7919 119.602C80.7919 120.853 81.7301 121.854 82.9029 121.854ZM90.0567 121.854C91.2295 121.854 92.1677 120.853 92.1677 119.602C92.1677 118.351 91.2295 117.35 90.0567 117.35C88.884 117.35 87.9457 118.351 87.9457 119.602C87.9457 120.853 88.884 121.854 90.0567 121.854ZM97.2106 121.854C98.3833 121.854 99.3215 120.853 99.3215 119.602C99.3215 118.351 98.3833 117.35 97.2106 117.35C96.0378 117.35 95.0996 118.351 95.0996 119.602C95.0996 120.853 96.1551 121.854 97.2106 121.854ZM159.367 5H20.7465C17.5801 5 15 7.75246 15 11.1305V122.73C15 126.108 17.5801 128.861 20.7465 128.861H73.6381L67.4224 142.498H60.7377C60.034 142.498 59.5649 142.998 59.5649 143.749C59.5649 144.5 60.034 145 60.7377 145H119.258C119.962 145 120.431 144.5 120.431 143.749C120.431 142.998 119.962 142.498 119.258 142.498H112.691L106.475 128.735H159.25C162.416 128.735 164.996 125.983 164.996 122.605C164.996 99.7096 164.996 26.5192 164.996 11.0054C165.113 7.75246 162.533 5 159.367 5ZM110.228 142.373H69.8852L76.1009 128.735H103.778L110.228 142.373ZM162.768 122.605C162.768 124.607 161.243 126.233 159.367 126.233C-23.5838 126.233 170.743 126.233 20.7465 126.233C18.8701 126.233 17.3455 124.607 17.3455 122.605V113.097H162.768V122.605ZM162.768 110.594H17.3455V11.1305C17.3455 9.12869 18.8701 7.50223 20.7465 7.50223H159.367C161.243 7.50223 162.768 9.12869 162.768 11.1305V110.594ZM142.596 22.5156H37.517C33.6469 22.5156 30.4804 25.8937 30.4804 30.1475V87.9491C30.4804 92.2029 33.6469 95.5809 37.517 95.5809H142.596C146.467 95.5809 149.633 92.2029 149.633 87.9491V30.1475C149.633 25.8937 146.467 22.5156 142.596 22.5156ZM147.287 87.824C147.287 90.7015 145.176 92.9535 142.596 92.9535H37.517C34.9369 92.9535 32.826 90.7015 32.826 87.824V30.1475C32.826 27.2699 34.9369 25.0179 37.517 25.0179H142.596C145.176 25.0179 147.287 27.2699 147.287 30.1475V87.824ZM70.4716 54.5442H70.0025V46.0366C70.0025 37.6542 63.6696 30.773 55.8121 30.773C47.9546 30.773 41.739 37.6542 41.739 46.0366V54.5442H41.2699C39.5107 54.5442 38.1034 56.0456 38.1034 57.9223V83.8204C38.1034 85.6971 39.5107 87.1984 41.2699 87.1984H70.3543C72.1135 87.1984 73.5208 85.6971 73.5208 83.8204V57.9223C73.6381 56.0456 72.2307 54.5442 70.4716 54.5442ZM44.0845 46.0366C44.0845 39.0304 49.3619 33.2752 55.8121 33.2752C62.2623 33.2752 67.657 39.0304 67.657 46.0366V54.5442H64.1387V46.0366C64.1387 41.0322 60.3859 37.0286 55.8121 37.0286C51.121 37.0286 47.6028 41.1573 47.6028 46.0366V54.5442H44.0845V46.0366ZM61.7932 46.0366V54.5442H49.9483V46.0366C49.9483 42.5335 52.5284 39.5308 55.8121 39.5308C59.0958 39.5308 61.7932 42.4084 61.7932 46.0366ZM71.2925 83.8204C71.2925 84.3208 70.9407 84.6962 70.4716 84.6962H41.2699C40.8007 84.6962 40.4489 84.3208 40.4489 83.8204V57.9223C40.4489 57.4218 40.8007 57.0465 41.2699 57.0465H70.3543C70.8234 57.0465 71.1753 57.4218 71.1753 57.9223V83.8204H71.2925ZM59.4477 72.185C60.6204 71.059 61.3241 69.4325 61.3241 67.8061C61.3241 64.5532 58.8613 61.9258 55.9294 61.9258C52.9975 61.9258 50.5347 64.5532 50.5347 67.8061C50.5347 69.5576 51.2383 71.059 52.4111 72.185L50.6519 77.3146C50.1828 78.5657 51.121 79.9419 52.2938 79.9419H59.5649C60.7377 79.9419 61.6759 78.6908 61.2068 77.4397L59.4477 72.185ZM57.1021 72.5603L58.744 77.3146H52.9975L54.6393 72.5603C54.8739 71.8097 54.6393 70.9339 54.0529 70.4334C53.232 69.8079 52.7629 68.807 52.7629 67.681C52.7629 65.8043 54.1702 64.303 55.8121 64.303C57.454 64.303 58.8613 65.8043 58.8613 67.681C58.8613 68.807 58.3922 69.8079 57.5712 70.4334C57.1021 70.9339 56.8676 71.8097 57.1021 72.5603ZM133.214 61.9258H87.7112C82.7856 61.9258 78.9155 66.3047 78.9155 71.3092C78.9155 76.5639 82.9029 80.6926 87.7112 80.6926H133.214C138.023 80.6926 142.01 76.4388 142.01 71.3092C142.01 66.1796 138.023 61.9258 133.214 61.9258ZM93.3405 78.3155H87.7112C84.1929 78.3155 81.261 75.1877 81.261 71.4343C81.261 67.681 84.0756 64.5532 87.7112 64.5532H93.3405V78.3155ZM133.214 78.3155H95.686V64.4281H133.214C136.733 64.4281 139.665 67.5559 139.665 71.3092C139.665 75.1877 136.733 78.3155 133.214 78.3155ZM133.214 37.2788H87.7112C82.9029 37.2788 78.9155 41.5326 78.9155 46.6622C78.9155 51.9169 82.9029 56.0456 87.7112 56.0456H133.214C138.023 56.0456 142.01 51.7918 142.01 46.6622C142.01 41.5326 138.023 37.2788 133.214 37.2788ZM93.3405 53.6685H87.7112C84.1929 53.6685 81.261 50.5407 81.261 46.7873C81.261 42.9089 84.1929 39.9062 87.7112 39.9062H93.3405V53.6685ZM133.214 53.6685H95.686V39.7811H133.214C136.733 39.7811 139.665 42.9089 139.665 46.6622C139.665 50.5407 136.733 53.6685 133.214 53.6685Z"/>
</mask>
<path d="M82.9029 121.854C84.0756 121.854 85.0138 120.853 85.0138 119.602C85.0138 118.351 84.0756 117.35 82.9029 117.35C81.7301 117.35 80.7919 118.351 80.7919 119.602C80.7919 120.853 81.7301 121.854 82.9029 121.854ZM90.0567 121.854C91.2295 121.854 92.1677 120.853 92.1677 119.602C92.1677 118.351 91.2295 117.35 90.0567 117.35C88.884 117.35 87.9457 118.351 87.9457 119.602C87.9457 120.853 88.884 121.854 90.0567 121.854ZM97.2106 121.854C98.3833 121.854 99.3215 120.853 99.3215 119.602C99.3215 118.351 98.3833 117.35 97.2106 117.35C96.0378 117.35 95.0996 118.351 95.0996 119.602C95.0996 120.853 96.1551 121.854 97.2106 121.854ZM159.367 5H20.7465C17.5801 5 15 7.75246 15 11.1305V122.73C15 126.108 17.5801 128.861 20.7465 128.861H73.6381L67.4224 142.498H60.7377C60.034 142.498 59.5649 142.998 59.5649 143.749C59.5649 144.5 60.034 145 60.7377 145H119.258C119.962 145 120.431 144.5 120.431 143.749C120.431 142.998 119.962 142.498 119.258 142.498H112.691L106.475 128.735H159.25C162.416 128.735 164.996 125.983 164.996 122.605C164.996 99.7096 164.996 26.5192 164.996 11.0054C165.113 7.75246 162.533 5 159.367 5ZM110.228 142.373H69.8852L76.1009 128.735H103.778L110.228 142.373ZM162.768 122.605C162.768 124.607 161.243 126.233 159.367 126.233C-23.5838 126.233 170.743 126.233 20.7465 126.233C18.8701 126.233 17.3455 124.607 17.3455 122.605V113.097H162.768V122.605ZM162.768 110.594H17.3455V11.1305C17.3455 9.12869 18.8701 7.50223 20.7465 7.50223H159.367C161.243 7.50223 162.768 9.12869 162.768 11.1305V110.594ZM142.596 22.5156H37.517C33.6469 22.5156 30.4804 25.8937 30.4804 30.1475V87.9491C30.4804 92.2029 33.6469 95.5809 37.517 95.5809H142.596C146.467 95.5809 149.633 92.2029 149.633 87.9491V30.1475C149.633 25.8937 146.467 22.5156 142.596 22.5156ZM147.287 87.824C147.287 90.7015 145.176 92.9535 142.596 92.9535H37.517C34.9369 92.9535 32.826 90.7015 32.826 87.824V30.1475C32.826 27.2699 34.9369 25.0179 37.517 25.0179H142.596C145.176 25.0179 147.287 27.2699 147.287 30.1475V87.824ZM70.4716 54.5442H70.0025V46.0366C70.0025 37.6542 63.6696 30.773 55.8121 30.773C47.9546 30.773 41.739 37.6542 41.739 46.0366V54.5442H41.2699C39.5107 54.5442 38.1034 56.0456 38.1034 57.9223V83.8204C38.1034 85.6971 39.5107 87.1984 41.2699 87.1984H70.3543C72.1135 87.1984 73.5208 85.6971 73.5208 83.8204V57.9223C73.6381 56.0456 72.2307 54.5442 70.4716 54.5442ZM44.0845 46.0366C44.0845 39.0304 49.3619 33.2752 55.8121 33.2752C62.2623 33.2752 67.657 39.0304 67.657 46.0366V54.5442H64.1387V46.0366C64.1387 41.0322 60.3859 37.0286 55.8121 37.0286C51.121 37.0286 47.6028 41.1573 47.6028 46.0366V54.5442H44.0845V46.0366ZM61.7932 46.0366V54.5442H49.9483V46.0366C49.9483 42.5335 52.5284 39.5308 55.8121 39.5308C59.0958 39.5308 61.7932 42.4084 61.7932 46.0366ZM71.2925 83.8204C71.2925 84.3208 70.9407 84.6962 70.4716 84.6962H41.2699C40.8007 84.6962 40.4489 84.3208 40.4489 83.8204V57.9223C40.4489 57.4218 40.8007 57.0465 41.2699 57.0465H70.3543C70.8234 57.0465 71.1753 57.4218 71.1753 57.9223V83.8204H71.2925ZM59.4477 72.185C60.6204 71.059 61.3241 69.4325 61.3241 67.8061C61.3241 64.5532 58.8613 61.9258 55.9294 61.9258C52.9975 61.9258 50.5347 64.5532 50.5347 67.8061C50.5347 69.5576 51.2383 71.059 52.4111 72.185L50.6519 77.3146C50.1828 78.5657 51.121 79.9419 52.2938 79.9419H59.5649C60.7377 79.9419 61.6759 78.6908 61.2068 77.4397L59.4477 72.185ZM57.1021 72.5603L58.744 77.3146H52.9975L54.6393 72.5603C54.8739 71.8097 54.6393 70.9339 54.0529 70.4334C53.232 69.8079 52.7629 68.807 52.7629 67.681C52.7629 65.8043 54.1702 64.303 55.8121 64.303C57.454 64.303 58.8613 65.8043 58.8613 67.681C58.8613 68.807 58.3922 69.8079 57.5712 70.4334C57.1021 70.9339 56.8676 71.8097 57.1021 72.5603ZM133.214 61.9258H87.7112C82.7856 61.9258 78.9155 66.3047 78.9155 71.3092C78.9155 76.5639 82.9029 80.6926 87.7112 80.6926H133.214C138.023 80.6926 142.01 76.4388 142.01 71.3092C142.01 66.1796 138.023 61.9258 133.214 61.9258ZM93.3405 78.3155H87.7112C84.1929 78.3155 81.261 75.1877 81.261 71.4343C81.261 67.681 84.0756 64.5532 87.7112 64.5532H93.3405V78.3155ZM133.214 78.3155H95.686V64.4281H133.214C136.733 64.4281 139.665 67.5559 139.665 71.3092C139.665 75.1877 136.733 78.3155 133.214 78.3155ZM133.214 37.2788H87.7112C82.9029 37.2788 78.9155 41.5326 78.9155 46.6622C78.9155 51.9169 82.9029 56.0456 87.7112 56.0456H133.214C138.023 56.0456 142.01 51.7918 142.01 46.6622C142.01 41.5326 138.023 37.2788 133.214 37.2788ZM93.3405 53.6685H87.7112C84.1929 53.6685 81.261 50.5407 81.261 46.7873C81.261 42.9089 84.1929 39.9062 87.7112 39.9062H93.3405V53.6685ZM133.214 53.6685H95.686V39.7811H133.214C136.733 39.7811 139.665 42.9089 139.665 46.6622C139.665 50.5407 136.733 53.6685 133.214 53.6685Z" fill="#0014CD" fill-opacity="0.8"/>
<path d="M82.9029 121.854C84.0756 121.854 85.0138 120.853 85.0138 119.602C85.0138 118.351 84.0756 117.35 82.9029 117.35C81.7301 117.35 80.7919 118.351 80.7919 119.602C80.7919 120.853 81.7301 121.854 82.9029 121.854ZM90.0567 121.854C91.2295 121.854 92.1677 120.853 92.1677 119.602C92.1677 118.351 91.2295 117.35 90.0567 117.35C88.884 117.35 87.9457 118.351 87.9457 119.602C87.9457 120.853 88.884 121.854 90.0567 121.854ZM97.2106 121.854C98.3833 121.854 99.3215 120.853 99.3215 119.602C99.3215 118.351 98.3833 117.35 97.2106 117.35C96.0378 117.35 95.0996 118.351 95.0996 119.602C95.0996 120.853 96.1551 121.854 97.2106 121.854ZM159.367 5H20.7465C17.5801 5 15 7.75246 15 11.1305V122.73C15 126.108 17.5801 128.861 20.7465 128.861H73.6381L67.4224 142.498H60.7377C60.034 142.498 59.5649 142.998 59.5649 143.749C59.5649 144.5 60.034 145 60.7377 145H119.258C119.962 145 120.431 144.5 120.431 143.749C120.431 142.998 119.962 142.498 119.258 142.498H112.691L106.475 128.735H159.25C162.416 128.735 164.996 125.983 164.996 122.605C164.996 99.7096 164.996 26.5192 164.996 11.0054C165.113 7.75246 162.533 5 159.367 5ZM110.228 142.373H69.8852L76.1009 128.735H103.778L110.228 142.373ZM162.768 122.605C162.768 124.607 161.243 126.233 159.367 126.233C-23.5838 126.233 170.743 126.233 20.7465 126.233C18.8701 126.233 17.3455 124.607 17.3455 122.605V113.097H162.768V122.605ZM162.768 110.594H17.3455V11.1305C17.3455 9.12869 18.8701 7.50223 20.7465 7.50223H159.367C161.243 7.50223 162.768 9.12869 162.768 11.1305V110.594ZM142.596 22.5156H37.517C33.6469 22.5156 30.4804 25.8937 30.4804 30.1475V87.9491C30.4804 92.2029 33.6469 95.5809 37.517 95.5809H142.596C146.467 95.5809 149.633 92.2029 149.633 87.9491V30.1475C149.633 25.8937 146.467 22.5156 142.596 22.5156ZM147.287 87.824C147.287 90.7015 145.176 92.9535 142.596 92.9535H37.517C34.9369 92.9535 32.826 90.7015 32.826 87.824V30.1475C32.826 27.2699 34.9369 25.0179 37.517 25.0179H142.596C145.176 25.0179 147.287 27.2699 147.287 30.1475V87.824ZM70.4716 54.5442H70.0025V46.0366C70.0025 37.6542 63.6696 30.773 55.8121 30.773C47.9546 30.773 41.739 37.6542 41.739 46.0366V54.5442H41.2699C39.5107 54.5442 38.1034 56.0456 38.1034 57.9223V83.8204C38.1034 85.6971 39.5107 87.1984 41.2699 87.1984H70.3543C72.1135 87.1984 73.5208 85.6971 73.5208 83.8204V57.9223C73.6381 56.0456 72.2307 54.5442 70.4716 54.5442ZM44.0845 46.0366C44.0845 39.0304 49.3619 33.2752 55.8121 33.2752C62.2623 33.2752 67.657 39.0304 67.657 46.0366V54.5442H64.1387V46.0366C64.1387 41.0322 60.3859 37.0286 55.8121 37.0286C51.121 37.0286 47.6028 41.1573 47.6028 46.0366V54.5442H44.0845V46.0366ZM61.7932 46.0366V54.5442H49.9483V46.0366C49.9483 42.5335 52.5284 39.5308 55.8121 39.5308C59.0958 39.5308 61.7932 42.4084 61.7932 46.0366ZM71.2925 83.8204C71.2925 84.3208 70.9407 84.6962 70.4716 84.6962H41.2699C40.8007 84.6962 40.4489 84.3208 40.4489 83.8204V57.9223C40.4489 57.4218 40.8007 57.0465 41.2699 57.0465H70.3543C70.8234 57.0465 71.1753 57.4218 71.1753 57.9223V83.8204H71.2925ZM59.4477 72.185C60.6204 71.059 61.3241 69.4325 61.3241 67.8061C61.3241 64.5532 58.8613 61.9258 55.9294 61.9258C52.9975 61.9258 50.5347 64.5532 50.5347 67.8061C50.5347 69.5576 51.2383 71.059 52.4111 72.185L50.6519 77.3146C50.1828 78.5657 51.121 79.9419 52.2938 79.9419H59.5649C60.7377 79.9419 61.6759 78.6908 61.2068 77.4397L59.4477 72.185ZM57.1021 72.5603L58.744 77.3146H52.9975L54.6393 72.5603C54.8739 71.8097 54.6393 70.9339 54.0529 70.4334C53.232 69.8079 52.7629 68.807 52.7629 67.681C52.7629 65.8043 54.1702 64.303 55.8121 64.303C57.454 64.303 58.8613 65.8043 58.8613 67.681C58.8613 68.807 58.3922 69.8079 57.5712 70.4334C57.1021 70.9339 56.8676 71.8097 57.1021 72.5603ZM133.214 61.9258H87.7112C82.7856 61.9258 78.9155 66.3047 78.9155 71.3092C78.9155 76.5639 82.9029 80.6926 87.7112 80.6926H133.214C138.023 80.6926 142.01 76.4388 142.01 71.3092C142.01 66.1796 138.023 61.9258 133.214 61.9258ZM93.3405 78.3155H87.7112C84.1929 78.3155 81.261 75.1877 81.261 71.4343C81.261 67.681 84.0756 64.5532 87.7112 64.5532H93.3405V78.3155ZM133.214 78.3155H95.686V64.4281H133.214C136.733 64.4281 139.665 67.5559 139.665 71.3092C139.665 75.1877 136.733 78.3155 133.214 78.3155ZM133.214 37.2788H87.7112C82.9029 37.2788 78.9155 41.5326 78.9155 46.6622C78.9155 51.9169 82.9029 56.0456 87.7112 56.0456H133.214C138.023 56.0456 142.01 51.7918 142.01 46.6622C142.01 41.5326 138.023 37.2788 133.214 37.2788ZM93.3405 53.6685H87.7112C84.1929 53.6685 81.261 50.5407 81.261 46.7873C81.261 42.9089 84.1929 39.9062 87.7112 39.9062H93.3405V53.6685ZM133.214 53.6685H95.686V39.7811H133.214C136.733 39.7811 139.665 42.9089 139.665 46.6622C139.665 50.5407 136.733 53.6685 133.214 53.6685Z" stroke="#0014CD" stroke-opacity="0.8" stroke-width="2" mask="url(#path-1-outside-1_270_153)"/>
</svg>
