<svg width="180" height="150" viewBox="0 0 180 150" fill="none" xmlns="http://www.w3.org/2000/svg">
<path d="M153.571 101.544L140.555 95.734V2.41814C140.555 1.77681 140.302 1.16174 139.85 0.708256C139.399 0.254767 138.787 0 138.148 0H41.8518C41.2134 0 40.601 0.254767 40.1495 0.708256C39.6981 1.16174 39.4444 1.77681 39.4444 2.41814V14.4333H27.4074C26.7689 14.4333 26.1566 14.688 25.7051 15.1415C25.2536 15.595 25 16.2101 25 16.8514V147.431C25 148.072 25.2536 148.687 25.7051 149.141C26.1566 149.594 26.7689 149.849 27.4074 149.849H123.704C124.342 149.849 124.954 149.594 125.406 149.141C125.857 148.687 126.111 148.072 126.111 147.431V146.666L129.373 149.429C129.807 149.798 130.357 150 130.926 150C131.494 150 132.045 149.798 132.479 149.429L151.738 133.106C152.223 132.694 152.527 132.107 152.583 131.471L154.991 103.965C155.034 103.463 154.921 102.96 154.666 102.526C154.412 102.092 154.029 101.748 153.571 101.544ZM44.2592 4.83627H135.741V93.5849L131.904 91.871C131.596 91.7336 131.263 91.6625 130.926 91.6625C130.589 91.6625 130.256 91.7336 129.948 91.871L126.111 93.5849V36.1965C126.111 35.555 125.858 34.9397 125.407 34.4856L106.148 15.1406C105.696 14.6874 105.083 14.433 104.444 14.4333H44.2592V4.83627ZM117.893 33.7783H106.852V22.6882L117.893 33.7783ZM121.296 145.013H29.8148V19.2695H41.265C41.6498 19.3703 42.0539 19.3703 42.4386 19.2695H102.037V36.1965C102.037 36.8378 102.291 37.4529 102.742 37.9064C103.194 38.3598 103.806 38.6146 104.444 38.6146H121.296V95.734L108.281 101.544C107.823 101.748 107.44 102.092 107.185 102.526C106.931 102.96 106.817 103.463 106.861 103.965L109.268 131.471C109.325 132.107 109.629 132.694 110.114 133.106L121.296 142.585V145.013ZM147.874 130.053L130.926 144.417L113.978 130.053L111.808 105.261L130.926 96.7255L150.044 105.261L147.874 130.053Z" fill="#0014CD" fill-opacity="0.8"/>
<path d="M125.039 120.482C124.508 120.134 123.861 120.01 123.24 120.138C122.618 120.266 122.072 120.635 121.72 121.166C121.368 121.696 121.239 122.344 121.36 122.969C121.482 123.595 121.844 124.147 122.368 124.506L129.59 129.342C130.122 129.698 130.772 129.827 131.398 129.701C132.024 129.575 132.575 129.205 132.929 128.671L142.558 114.163C142.909 113.629 143.034 112.978 142.908 112.352C142.781 111.725 142.413 111.175 141.884 110.82C141.355 110.465 140.707 110.336 140.083 110.459C139.458 110.583 138.908 110.95 138.553 111.48L130.258 123.977L125.039 120.482Z" fill="#0014CD" fill-opacity="0.8"/>
<path d="M41.8517 99.068H70.7406C71.3791 99.068 71.9914 98.8133 72.4429 98.3598C72.8944 97.9063 73.148 97.2912 73.148 96.6499V86.9773C73.148 86.336 72.8944 85.7209 72.4429 85.2675C71.9914 84.814 71.3791 84.5592 70.7406 84.5592H41.8517C41.2133 84.5592 40.6009 84.814 40.1494 85.2675C39.698 85.7209 39.4443 86.336 39.4443 86.9773V96.6499C39.4443 97.2912 39.698 97.9063 40.1494 98.3598C40.6009 98.8133 41.2133 99.068 41.8517 99.068ZM44.2591 89.3955H68.3332V94.2317H44.2591V89.3955Z" fill="#0014CD" fill-opacity="0.8"/>
<path d="M109.259 84.5592H80.3703C79.7318 84.5592 79.1195 84.814 78.668 85.2675C78.2165 85.7209 77.9629 86.336 77.9629 86.9773C77.9629 87.6187 78.2165 88.2337 78.668 88.6872C79.1195 89.1407 79.7318 89.3955 80.3703 89.3955H109.259C109.898 89.3955 110.51 89.1407 110.961 88.6872C111.413 88.2337 111.667 87.6187 111.667 86.9773C111.667 86.336 111.413 85.7209 110.961 85.2675C110.51 84.814 109.898 84.5592 109.259 84.5592Z" fill="#0014CD" fill-opacity="0.8"/>
<path d="M102.037 94.2318H80.3703C79.7318 94.2318 79.1195 94.4865 78.668 94.94C78.2165 95.3935 77.9629 96.0086 77.9629 96.6499C77.9629 97.2912 78.2165 97.9063 78.668 98.3598C79.1195 98.8133 79.7318 99.068 80.3703 99.068H102.037C102.675 99.068 103.288 98.8133 103.739 98.3598C104.191 97.9063 104.444 97.2912 104.444 96.6499C104.444 96.0086 104.191 95.3935 103.739 94.94C103.288 94.4865 102.675 94.2318 102.037 94.2318Z" fill="#0014CD" fill-opacity="0.8"/>
<path d="M41.8517 50.7809H56.2962C56.9347 50.7809 57.547 50.5261 57.9985 50.0726C58.4499 49.6191 58.7036 49.004 58.7036 48.3627V38.6902C58.7036 38.0488 58.4499 37.4338 57.9985 36.9803C57.547 36.5268 56.9347 36.272 56.2962 36.272H41.8517C41.2133 36.272 40.6009 36.5268 40.1494 36.9803C39.698 37.4338 39.4443 38.0488 39.4443 38.6902V48.3627C39.4443 49.004 39.698 49.6191 40.1494 50.0726C40.6009 50.5261 41.2133 50.7809 41.8517 50.7809ZM44.2591 41.1083H53.8888V45.9446H44.2591V41.1083Z" fill="#0014CD" fill-opacity="0.8"/>
<path d="M65.926 41.1083H92.4074C93.0459 41.1083 93.6582 40.8535 94.1097 40.4001C94.5612 39.9466 94.8148 39.3315 94.8148 38.6902C94.8148 38.0488 94.5612 37.4338 94.1097 36.9803C93.6582 36.5268 93.0459 36.272 92.4074 36.272H65.926C65.2875 36.272 64.6751 36.5268 64.2237 36.9803C63.7722 37.4338 63.5186 38.0488 63.5186 38.6902C63.5186 39.3315 63.7722 39.9466 64.2237 40.4001C64.6751 40.8535 65.2875 41.1083 65.926 41.1083Z" fill="#0014CD" fill-opacity="0.8"/>
<path d="M65.926 50.7809H109.259C109.898 50.7809 110.51 50.5261 110.962 50.0726C111.413 49.6191 111.667 49.004 111.667 48.3627C111.667 47.7214 111.413 47.1063 110.962 46.6528C110.51 46.1993 109.898 45.9446 109.259 45.9446H65.926C65.2875 45.9446 64.6751 46.1993 64.2237 46.6528C63.7722 47.1063 63.5186 47.7214 63.5186 48.3627C63.5186 49.004 63.7722 49.6191 64.2237 50.0726C64.6751 50.5261 65.2875 50.7809 65.926 50.7809Z" fill="#0014CD" fill-opacity="0.8"/>
<path d="M99.6295 103.904H41.8517C41.2133 103.904 40.6009 104.159 40.1494 104.613C39.698 105.066 39.4443 105.681 39.4443 106.322C39.4443 106.964 39.698 107.579 40.1494 108.032C40.6009 108.486 41.2133 108.741 41.8517 108.741H99.6295C100.268 108.741 100.88 108.486 101.332 108.032C101.783 107.579 102.037 106.964 102.037 106.322C102.037 105.681 101.783 105.066 101.332 104.613C100.88 104.159 100.268 103.904 99.6295 103.904Z" fill="#0014CD" fill-opacity="0.8"/>
<path d="M99.6295 113.577H41.8517C41.2133 113.577 40.6009 113.832 40.1494 114.285C39.698 114.739 39.4443 115.354 39.4443 115.995C39.4443 116.636 39.698 117.251 40.1494 117.705C40.6009 118.158 41.2133 118.413 41.8517 118.413H99.6295C100.268 118.413 100.88 118.158 101.332 117.705C101.783 117.251 102.037 116.636 102.037 115.995C102.037 115.354 101.783 114.739 101.332 114.285C100.88 113.832 100.268 113.577 99.6295 113.577Z" fill="#0014CD" fill-opacity="0.8"/>
<path d="M99.6295 123.249H41.8517C41.2133 123.249 40.6009 123.504 40.1494 123.958C39.698 124.411 39.4443 125.026 39.4443 125.668C39.4443 126.309 39.698 126.924 40.1494 127.377C40.6009 127.831 41.2133 128.086 41.8517 128.086H99.6295C100.268 128.086 100.88 127.831 101.332 127.377C101.783 126.924 102.037 126.309 102.037 125.668C102.037 125.026 101.783 124.411 101.332 123.958C100.88 123.504 100.268 123.249 99.6295 123.249Z" fill="#0014CD" fill-opacity="0.8"/>
<path d="M41.8517 79.7229H87.5925C88.2309 79.7229 88.8433 79.4682 89.2948 79.0147C89.7462 78.5612 89.9999 77.9461 89.9999 77.3048C89.9999 76.6635 89.7462 76.0484 89.2948 75.5949C88.8433 75.1414 88.2309 74.8867 87.5925 74.8867H41.8517C41.2133 74.8867 40.6009 75.1414 40.1494 75.5949C39.698 76.0484 39.4443 76.6635 39.4443 77.3048C39.4443 77.9461 39.698 78.5612 40.1494 79.0147C40.6009 79.4682 41.2133 79.7229 41.8517 79.7229Z" fill="#0014CD" fill-opacity="0.8"/>
<path d="M41.8517 70.1259H109.259C109.898 70.1259 110.51 69.8712 110.961 69.4177C111.413 68.9642 111.667 68.3491 111.667 67.7078C111.667 67.0665 111.413 66.4514 110.961 65.9979C110.51 65.5444 109.898 65.2897 109.259 65.2897H41.8517C41.2133 65.2897 40.6009 65.5444 40.1494 65.9979C39.698 66.4514 39.4443 67.0665 39.4443 67.7078C39.4443 68.3491 39.698 68.9642 40.1494 69.4177C40.6009 69.8712 41.2133 70.1259 41.8517 70.1259Z" fill="#0014CD" fill-opacity="0.8"/>
<path d="M41.8517 60.4534H109.259C109.898 60.4534 110.51 60.1986 110.961 59.7451C111.413 59.2917 111.667 58.6766 111.667 58.0353C111.667 57.3939 111.413 56.7789 110.961 56.3254C110.51 55.8719 109.898 55.6171 109.259 55.6171H41.8517C41.2133 55.6171 40.6009 55.8719 40.1494 56.3254C39.698 56.7789 39.4443 57.3939 39.4443 58.0353C39.4443 58.6766 39.698 59.2917 40.1494 59.7451C40.6009 60.1986 41.2133 60.4534 41.8517 60.4534Z" fill="#0014CD" fill-opacity="0.8"/>
</svg>
