<svg width="180" height="150" viewBox="0 0 180 150" fill="none" xmlns="http://www.w3.org/2000/svg">
<path d="M109.601 28.2656C109.747 40.6944 120.088 50.6892 132.652 50.5456C138.565 50.478 143.932 48.1765 147.943 44.4636L150.314 46.755C149.833 47.5157 149.579 48.397 149.59 49.3159C149.605 50.5814 150.117 51.7653 151.032 52.6496L165.336 66.4751C166.251 67.3595 167.46 67.8386 168.739 67.824C170.018 67.8094 171.215 67.3028 172.109 66.3977C173.003 65.4925 173.487 64.2973 173.472 63.032C173.457 61.7666 172.945 60.5826 172.03 59.6982L157.726 45.8727C156.811 44.9883 155.602 44.5093 154.323 44.5239C153.327 44.5353 152.381 44.8464 151.588 45.4108L149.25 43.1506C152.987 39.0814 155.243 33.663 155.173 27.7448C155.027 15.316 144.686 5.32117 132.122 5.46476C119.557 5.60834 109.454 15.8368 109.601 28.2656ZM152.286 47.2379C152.832 46.6848 153.563 46.3754 154.345 46.3664C154.864 46.3605 155.363 46.4882 155.804 46.7323L151.856 50.7291C151.599 50.2987 151.459 49.8078 151.453 49.2946C151.443 48.5214 151.739 47.7909 152.286 47.2379ZM169.945 60.2588L165.854 64.3999L153.117 52.089L157.208 47.948L169.945 60.2588ZM170.776 65.1099C170.23 65.6629 169.499 65.9725 168.717 65.9814C168.198 65.9874 167.699 65.8597 167.258 65.6156L171.206 61.6186C171.463 62.0491 171.603 62.54 171.609 63.0532C171.619 63.8264 171.323 64.5568 170.776 65.1099ZM153.311 27.7661C153.445 39.1789 144.168 48.5712 132.63 48.7031C121.093 48.8349 111.597 39.6571 111.463 28.2443C111.329 16.8315 120.606 7.43915 132.144 7.3073C143.681 7.17545 153.176 16.3532 153.311 27.7661Z" fill="#0014CD" fill-opacity="0.8"/>
<path d="M113.575 28.2209C113.695 38.4824 122.233 46.7341 132.606 46.6156C142.98 46.497 151.321 38.0524 151.2 27.7909C151.079 17.5294 142.542 9.27769 132.168 9.39623C121.795 9.51478 113.454 17.9594 113.575 28.2209ZM149.337 27.8122C149.446 37.0576 141.931 44.6662 132.584 44.773C123.238 44.8798 115.546 37.445 115.437 28.1996C115.329 18.9542 122.844 11.3456 132.19 11.2388C141.536 11.132 149.229 18.5668 149.337 27.8122Z" fill="#0014CD" fill-opacity="0.8"/>
<path d="M127.982 13.9845C123.181 15.4582 119.492 19.1928 118.114 23.9746C117.973 24.4637 118.26 24.9737 118.755 25.1133C119.249 25.2528 119.765 24.9692 119.906 24.4798C121.111 20.2985 124.336 17.0328 128.534 15.7443C128.937 15.6205 129.194 15.2511 129.19 14.854C129.189 14.767 129.175 14.6786 129.148 14.5912C128.995 14.1053 128.473 13.8337 127.982 13.9845Z" fill="#0014CD" fill-opacity="0.8"/>
<path d="M165.9 79.7178C158.099 79.1242 151.799 75.5633 148.199 69.9254L147.299 68.4416C142.799 61.0233 134.999 56.5722 125.999 55.9786H78C77.7001 55.9786 77.3999 55.9786 77.1 56.2752C72.6 57.759 68.7001 61.3199 65.6999 64.8807L61.4998 69.0352C57.9697 72.9299 53.8849 76.2143 49.3878 78.783L17.1 47.9667C15.9001 46.7798 14.1001 46.7798 12.8999 47.9667C11.6996 49.1535 11.7 50.9339 12.8999 52.1211L43.7283 81.5444C39.859 83.1287 35.7595 84.222 31.4999 84.7621L13.2001 87.1361C5.69987 88.3229 0 94.5544 0 101.973V115.326C0 123.635 6.59987 130.163 15.0001 130.163H27.2566C28.6962 138.555 36.1219 145 44.9999 145C53.8779 145 61.3036 138.555 62.7432 130.163H123.257C124.696 138.555 132.122 145 141 145C149.878 145 157.304 138.555 158.743 130.163H165C173.4 130.163 180 123.635 180 115.326V94.5544C180 86.8395 173.7 80.311 165.9 79.7178ZM44.9999 139.065C38.4 139.065 33.0001 133.724 33.0001 127.196C33.0001 120.668 38.4 115.326 44.9999 115.326C51.5998 115.326 56.9998 120.668 56.9998 127.196C56.9998 133.724 51.5998 139.065 44.9999 139.065ZM141 139.065C134.4 139.065 129 133.724 129 127.196C129 120.668 134.4 115.326 141 115.326C147.6 115.326 153 120.668 153 127.196C153 133.724 147.6 139.065 141 139.065ZM174 115.326C174 120.371 170.1 124.228 165 124.228H158.743C157.73 118.324 153.753 113.387 148.391 110.977C148.273 110.924 148.154 110.868 148.034 110.817C147.959 110.785 147.882 110.756 147.806 110.725C147.612 110.645 147.416 110.567 147.218 110.495C147.165 110.475 147.111 110.457 147.057 110.438C146.837 110.36 146.615 110.284 146.391 110.214C146.343 110.199 146.294 110.185 146.246 110.17C146.018 110.101 145.788 110.035 145.556 109.975C145.504 109.962 145.453 109.949 145.401 109.936C145.174 109.879 144.944 109.826 144.712 109.778C144.654 109.766 144.596 109.753 144.538 109.742C144.314 109.697 144.089 109.657 143.862 109.621C143.795 109.611 143.728 109.599 143.66 109.589C143.442 109.557 143.222 109.53 143.001 109.505C142.926 109.497 142.851 109.487 142.776 109.48C142.555 109.458 142.332 109.443 142.108 109.429C142.035 109.424 141.962 109.418 141.888 109.414C141.593 109.4 141.297 109.391 140.998 109.391C140.7 109.391 140.404 109.4 140.109 109.414C140.036 109.418 139.962 109.424 139.889 109.429C139.665 109.443 139.442 109.458 139.221 109.48C139.146 109.487 139.071 109.497 138.996 109.505C138.775 109.53 138.555 109.557 138.336 109.589C138.269 109.599 138.202 109.611 138.135 109.621C137.908 109.657 137.683 109.697 137.459 109.741C137.401 109.753 137.343 109.765 137.284 109.777C137.053 109.826 136.823 109.879 136.595 109.936C136.544 109.949 136.492 109.961 136.441 109.975C136.209 110.035 135.979 110.1 135.751 110.17C135.703 110.185 135.654 110.199 135.606 110.214C135.382 110.284 135.16 110.36 134.94 110.438C134.887 110.457 134.833 110.475 134.779 110.495C134.581 110.568 134.385 110.646 134.19 110.726C134.115 110.757 134.039 110.786 133.964 110.817C133.843 110.869 133.725 110.924 133.605 110.978C128.244 113.388 124.268 118.325 123.255 124.229H62.7432C61.7304 118.325 57.7546 113.388 52.3936 110.979C52.2741 110.924 52.1556 110.869 52.0347 110.817C51.9598 110.786 51.8835 110.757 51.8079 110.726C51.6131 110.646 51.4173 110.568 51.219 110.495C51.166 110.475 51.1118 110.457 51.0584 110.438C50.8383 110.36 50.6165 110.284 50.3925 110.214C50.3444 110.199 50.2955 110.185 50.247 110.17C50.0192 110.101 49.7892 110.035 49.5572 109.975C49.5059 109.962 49.4546 109.949 49.4029 109.936C49.1751 109.879 48.9455 109.826 48.7138 109.777C48.6555 109.765 48.5974 109.753 48.5391 109.741C48.3155 109.697 48.0901 109.657 47.8634 109.621C47.7962 109.61 47.7294 109.599 47.6619 109.589C47.4436 109.556 47.2232 109.529 47.0021 109.505C46.9272 109.497 46.8526 109.487 46.7774 109.479C46.5563 109.458 46.3334 109.442 46.1098 109.429C46.036 109.424 45.9632 109.417 45.889 109.414C45.5948 109.399 45.2984 109.391 44.9999 109.391C44.7014 109.391 44.4051 109.399 44.1108 109.414C44.037 109.417 43.9639 109.424 43.89 109.429C43.6664 109.442 43.4436 109.458 43.2224 109.479C43.1472 109.487 43.0727 109.497 42.9978 109.505C42.7766 109.529 42.5562 109.557 42.3379 109.589C42.2704 109.599 42.2036 109.61 42.1364 109.621C41.9097 109.657 41.6843 109.697 41.4607 109.741C41.4024 109.753 41.344 109.765 41.286 109.777C41.0543 109.826 40.8248 109.879 40.597 109.936C40.5456 109.949 40.4939 109.961 40.4426 109.975C40.2106 110.035 39.981 110.1 39.7529 110.17C39.7043 110.184 39.6555 110.199 39.607 110.214C39.383 110.284 39.1615 110.359 38.9415 110.438C38.8877 110.457 38.8335 110.475 38.7801 110.494C38.5822 110.567 38.3867 110.645 38.1923 110.725C38.1163 110.756 38.0397 110.784 37.9645 110.816C37.8442 110.868 37.7261 110.923 37.6069 110.977C32.2449 113.387 28.2684 118.323 27.2555 124.228H15.0001C9.89998 124.228 6.00011 120.371 6.00011 115.326V101.973C6.00011 97.5217 9.30022 93.6642 13.8002 93.3672L32.1001 90.9932C45.3001 89.5094 57.3 83.2779 66.0001 73.4856L70.2002 68.7379C72.6003 66.0672 75.6002 63.1 78.6001 61.9128L125.7 61.6161C132.6 61.9128 138.6 65.7706 142.2 71.4085L143.1 72.8923C147.6 80.3106 156 85.0587 165.6 85.6519C170.4 85.9486 174 89.8064 174 94.5541V115.326Z" fill="#0014CD" fill-opacity="0.8"/>
</svg>
