<svg width="800" height="800" viewBox="0 0 800 800" fill="none" xmlns="http://www.w3.org/2000/svg">
<path d="M650 25H150C122.5 25 100 47.5 100 75V725C100 752.5 122.5 775 150 775H650C677.5 775 700 752.5 700 725V75C700 47.5 677.5 25 650 25ZM250 575C236.2 575 225 563.8 225 550C225 536.2 236.2 525 250 525C263.8 525 275 536.2 275 550C275 563.8 263.8 575 250 575ZM250 475C236.2 475 225 463.8 225 450C225 436.2 236.2 425 250 425C263.8 425 275 436.2 275 450C275 463.8 263.8 475 250 475ZM250 375C236.2 375 225 363.8 225 350C225 336.2 236.2 325 250 325C263.8 325 275 336.2 275 350C275 363.8 263.8 375 250 375ZM250 275C236.2 275 225 263.8 225 250C225 236.2 236.2 225 250 225C263.8 225 275 236.2 275 250C275 263.8 263.8 275 250 275ZM550 575H350C336.2 575 325 563.8 325 550C325 536.2 336.2 525 350 525H550C563.8 525 575 536.2 575 550C575 563.8 563.8 575 550 575ZM550 475H350C336.2 475 325 463.8 325 450C325 436.2 336.2 425 350 425H550C563.8 425 575 436.2 575 450C575 463.8 563.8 475 550 475ZM550 375H350C336.2 375 325 363.8 325 350C325 336.2 336.2 325 350 325H550C563.8 325 575 336.2 575 350C575 363.8 563.8 375 550 375ZM550 275H350C336.2 275 325 263.8 325 250C325 236.2 336.2 225 350 225H550C563.8 225 575 236.2 575 250C575 263.8 563.8 275 550 275Z" fill="white"/>
</svg>
