<svg width="101" height="100" viewBox="0 0 101 100" fill="none" xmlns="http://www.w3.org/2000/svg">
<ellipse cx="50.2272" cy="50" rx="50.0261" ry="50" fill="white"/>
<path d="M84.3743 33H79.094V27.676C79.094 24.5447 76.5703 22 73.4647 22H15.6293C12.5238 22 10 24.5447 10 27.676V60.3203C10 63.4553 12.5238 66 15.6293 66H20.9096V71.324C20.9096 74.4553 23.4333 77 26.5389 77H84.3706C87.4762 77 90 74.4553 90 71.324V38.676C90.0036 35.5447 87.4799 33 84.3743 33ZM13.6365 60.324V27.676C13.6365 26.5687 14.5311 25.6667 15.6293 25.6667H73.4611C74.5629 25.6667 75.4575 26.5687 75.4575 27.676V60.3203C75.4575 61.4277 74.5629 62.3297 73.4647 62.3297H15.6293C14.5311 62.3333 13.6365 61.4313 13.6365 60.324ZM86.3671 71.324C86.3671 72.4313 85.4725 73.3333 84.3743 73.3333H26.5389C25.4407 73.3333 24.5461 72.4313 24.5461 71.324V66H73.4647C76.5703 66 79.094 63.4553 79.094 60.324V36.6667H84.3743C85.4725 36.6667 86.3671 37.5687 86.3671 38.676V71.324Z" fill="#3D4CD9"/>
<path d="M62.7294 36.6667H64.5477V38.5C64.5477 39.512 65.3622 40.3334 66.3659 40.3334C67.3696 40.3334 68.1842 39.512 68.1842 38.5V36.6667H70.0025C71.0061 36.6667 71.8207 35.8454 71.8207 34.8334C71.8207 33.8214 71.0061 33 70.0025 33H68.1842V31.1667C68.1842 30.1547 67.3696 29.3334 66.3659 29.3334C65.3622 29.3334 64.5477 30.1547 64.5477 31.1667V33H62.7294C61.7257 33 60.9111 33.8214 60.9111 34.8334C60.9111 35.8454 61.7257 36.6667 62.7294 36.6667Z" fill="#3D4CD9"/>
<path d="M53.6387 56.8333C53.6387 55.8287 52.8169 55 51.8205 55H19.0917C18.0953 55 17.2734 55.8287 17.2734 56.8333C17.2734 57.838 18.0953 58.6667 19.0917 58.6667H51.8205C52.8169 58.6667 53.6387 57.838 53.6387 56.8333Z" fill="#3D4CD9"/>
<path d="M59.0927 58.6667H70.0023C71.0059 58.6667 71.8205 57.8453 71.8205 56.8333C71.8205 55.8213 71.0059 55 70.0023 55H59.0927C58.089 55 57.2744 55.8213 57.2744 56.8333C57.2744 57.8453 58.089 58.6667 59.0927 58.6667Z" fill="#3D4CD9"/>
<path d="M19.0917 47.6667H33.6378C34.6415 47.6667 35.4561 46.8454 35.4561 45.8334V31.1667C35.4561 30.1547 34.6415 29.3334 33.6378 29.3334H19.0917C18.088 29.3334 17.2734 30.1547 17.2734 31.1667V45.8334C17.2734 46.8454 18.088 47.6667 19.0917 47.6667ZM20.91 33H31.8196V44H20.91V33Z" fill="#3D4CD9"/>
<path d="M40.911 33H48.1841C49.1878 33 50.0024 32.1787 50.0024 31.1667C50.0024 30.1547 49.1878 29.3334 48.1841 29.3334H40.911C39.9074 29.3334 39.0928 30.1547 39.0928 31.1667C39.0928 32.1787 39.9074 33 40.911 33Z" fill="#3D4CD9"/>
<path d="M40.911 47.6667H55.4572C56.4608 47.6667 57.2754 46.8453 57.2754 45.8333C57.2754 44.8213 56.4608 44 55.4572 44H40.911C39.9074 44 39.0928 44.8213 39.0928 45.8333C39.0928 46.8453 39.9074 47.6667 40.911 47.6667Z" fill="#3D4CD9"/>
<path d="M40.911 40.3333H55.4572C56.4608 40.3333 57.2754 39.512 57.2754 38.5C57.2754 37.488 56.4608 36.6666 55.4572 36.6666H40.911C39.9074 36.6666 39.0928 37.488 39.0928 38.5C39.0928 39.512 39.9074 40.3333 40.911 40.3333Z" fill="#3D4CD9"/>
</svg>
