<svg width="397" height="66" viewBox="0 0 397 66" fill="none" xmlns="http://www.w3.org/2000/svg">
<path d="M178.852 1.88658C178.816 1.88658 178.779 1.88406 178.741 1.87965C177.948 1.77193 177.135 1.69445 176.328 1.6491C175.874 1.6239 175.526 1.23462 175.552 0.778557C175.576 0.323129 175.96 -0.0163958 176.42 0.000611788C177.27 0.0484854 178.126 0.129745 178.962 0.242499C179.412 0.303601 179.728 0.719975 179.668 1.17162C179.612 1.58611 179.258 1.88658 178.852 1.88658Z" fill="white"/>
<path d="M161.797 4.23427C161.906 4.23427 162.017 4.21286 162.124 4.16687C162.866 3.84499 163.626 3.55019 164.384 3.29066C164.813 3.14263 165.043 2.67334 164.896 2.24122C164.747 1.81036 164.281 1.58296 163.85 1.72784C163.052 2.00185 162.251 2.3124 161.469 2.6513C161.052 2.83271 160.861 3.31838 161.041 3.73727C161.175 4.04845 161.478 4.23427 161.797 4.23427Z" fill="white"/>
<path fill-rule="evenodd" clip-rule="evenodd" d="M23.4171 1.79678L0 53.0949H5.63475L11.7584 39.3909H40.3448L46.4684 53.0949H52.1763L28.7592 1.79678H23.4171ZM38.38 34.994L26.0516 7.40442L13.7232 34.994H38.38Z" fill="white"/>
<path fill-rule="evenodd" clip-rule="evenodd" d="M60.7485 14.6213V53.0949H78.2382C83.3119 53.0949 87.044 52.191 89.4345 50.3834C91.8738 48.5269 93.0934 45.9376 93.0934 42.6154C93.0934 39.3909 92.0201 36.9237 89.8736 35.2138C88.704 34.2822 87.1724 33.6043 85.2787 33.1803C86.3495 32.7957 87.3201 32.301 88.1905 31.6962C90.581 29.9863 91.7762 27.568 91.7762 24.4412C91.7762 21.2168 90.5078 18.774 87.9709 17.1129C85.4829 15.4518 82.0679 14.6213 77.7259 14.6213H60.7485ZM78.0186 48.991H65.7978V35.5802H78.5309C81.7995 35.5802 84.19 36.1176 85.7024 37.1925C87.2148 38.2673 87.9709 39.9772 87.9709 42.3223C87.9709 44.6673 87.1172 46.3773 85.4097 47.4521C83.751 48.478 81.2873 48.991 78.0186 48.991ZM77.36 31.6962H65.7978V18.6519H77.36C80.336 18.6519 82.6045 19.1893 84.1656 20.2641C85.7756 21.3389 86.5805 22.9511 86.5805 25.1008C86.5805 27.2504 85.7756 28.887 84.1656 30.0107C82.6045 31.1344 80.336 31.6962 77.36 31.6962Z" fill="white"/>
<path d="M112.588 19.1648V53.0949H117.784V19.1648H132.346V14.6213H98.0256V19.1648H112.588Z" fill="white"/>
<path d="M216.467 14.6213V53.0949H221.224V22.5262L236.811 48.4047H239.153L254.74 22.5734V53.0949H259.496V14.6213H254.667L238.064 42.3085L221.736 14.6213H216.467Z" fill="white"/>
<path d="M274.281 14.6213V53.0949H278.965L304.577 22.4626V53.0949H309.773V14.6213H305.163L279.477 45.1803V14.6213H274.281Z" fill="white"/>
<path d="M338.611 35.9466L352.837 53.0949H358.984L342.762 33.2096L357.886 14.6213H352.251L338.722 31.4764H329.859V14.6213H324.663V53.0949H329.859V35.9466H338.611Z" fill="white"/>
<path d="M371.68 50.9696C374.705 52.6307 378.12 53.4613 381.925 53.4613C385.194 53.4613 388.145 52.8262 390.78 51.5559C393.414 50.2368 395.488 48.3315 397 45.8398L393.122 43.2017C391.804 45.107 390.17 46.5238 388.219 47.4521C386.267 48.3803 384.145 48.8444 381.852 48.8444C379.12 48.8444 376.656 48.2338 374.461 47.0124C372.266 45.7421 370.534 43.9833 369.265 41.736C367.997 39.4887 367.363 36.8505 367.363 33.8214C367.363 30.7924 367.997 28.1542 369.265 25.9069C370.534 23.6595 372.266 21.9252 374.461 20.7038C376.656 19.4335 379.12 18.7984 381.852 18.7984C384.145 18.7984 386.267 19.2626 388.219 20.1908C390.17 21.1191 391.804 22.5603 393.122 24.5145L397 21.8763C395.488 19.3358 393.414 17.4305 390.78 16.1602C388.145 14.89 385.194 14.2549 381.925 14.2549C378.12 14.2549 374.705 15.0854 371.68 16.7465C368.704 18.4076 366.363 20.7038 364.655 23.6351C362.948 26.5664 362.094 29.9619 362.094 33.8214C362.094 37.6322 362.948 41.0276 364.655 44.0078C366.363 46.9391 368.704 49.2597 371.68 50.9696Z" fill="white"/>
<path fill-rule="evenodd" clip-rule="evenodd" d="M165.632 32.9742C165.632 28.0104 169.661 23.972 174.612 23.972C179.563 23.972 183.592 28.0104 183.592 32.9742C183.592 37.9373 179.563 41.9763 174.612 41.9763C169.661 41.9763 165.632 37.9373 165.632 32.9742ZM167.28 32.9742C167.28 37.027 170.569 40.3253 174.612 40.3253C178.655 40.3253 181.945 37.027 181.945 32.9742C181.945 28.9207 178.655 25.6231 174.612 25.6231C170.569 25.6231 167.28 28.9207 167.28 32.9742Z" fill="white"/>
<path fill-rule="evenodd" clip-rule="evenodd" d="M189.944 43.8673C190.127 44.0153 190.362 44.0802 190.592 44.0405C190.822 44.0034 191.027 43.8704 191.154 43.6733C192.45 41.6632 193.36 39.4629 193.859 37.1348C193.908 36.9055 193.858 36.6661 193.72 36.4765C193.583 36.2869 193.372 36.1647 193.14 36.1401C191.521 35.9694 190.3 34.6082 190.3 32.9742C190.3 31.3395 191.521 29.9789 193.14 29.8076C193.372 29.7836 193.583 29.6608 193.72 29.4712C193.858 29.2822 193.908 29.0429 193.859 28.8136C193.36 26.4848 192.45 24.2845 191.154 22.2744C191.027 22.0779 190.822 21.945 190.592 21.9078C190.362 21.8688 190.127 21.9336 189.944 22.081C188.68 23.104 186.856 23.0064 185.706 21.853C184.554 20.6984 184.457 18.871 185.478 17.6036C185.625 17.4216 185.688 17.1853 185.651 16.9535C185.614 16.723 185.482 16.5183 185.285 16.391C183.279 15.0915 181.085 14.1787 178.762 13.6792C178.535 13.6314 178.295 13.6805 178.106 13.8184C177.917 13.9551 177.795 14.1674 177.77 14.4005C177.6 16.0225 176.242 17.2464 174.612 17.2464C172.982 17.2464 171.624 16.0225 171.454 14.4005C171.43 14.1674 171.307 13.9551 171.118 13.8184C170.93 13.6805 170.689 13.632 170.462 13.6792C168.14 14.1787 165.946 15.0915 163.939 16.391C163.743 16.5183 163.61 16.7223 163.574 16.9535C163.537 17.1853 163.599 17.4216 163.746 17.6036C164.769 18.871 164.671 20.6984 163.52 21.853C162.368 23.0064 160.544 23.1034 159.281 22.081C159.099 21.9336 158.865 21.8688 158.633 21.9078C158.402 21.945 158.198 22.0779 158.071 22.2744C156.776 24.282 155.865 26.4816 155.366 28.8136C155.317 29.0429 155.366 29.2822 155.504 29.4712C155.641 29.6608 155.853 29.7836 156.085 29.8076C157.703 29.9789 158.924 31.3395 158.924 32.9742C158.924 34.6082 157.703 35.9694 156.085 36.1401C155.853 36.1647 155.641 36.2869 155.504 36.4765C155.366 36.6661 155.317 36.9055 155.366 37.1348C155.865 39.4661 156.776 41.6657 158.071 43.6733C158.198 43.8704 158.402 44.0034 158.633 44.0405C158.865 44.0802 159.099 44.0153 159.281 43.8673C160.544 42.8437 162.369 42.9419 163.52 44.0953C164.671 45.25 164.769 47.0767 163.746 48.3441C163.599 48.5268 163.537 48.763 163.574 48.9942C163.61 49.2253 163.743 49.4294 163.939 49.5573C165.946 50.8568 168.14 51.7696 170.462 52.2685C170.688 52.3176 170.929 52.2678 171.118 52.1299C171.307 51.9926 171.43 51.7809 171.454 51.5479C171.624 49.9258 172.982 48.7013 174.612 48.7013C176.242 48.7013 177.6 49.9258 177.77 51.5479C177.795 51.7809 177.917 51.9926 178.106 52.1299C178.247 52.2332 178.417 52.2874 178.589 52.2874C178.647 52.2874 178.705 52.2804 178.762 52.2685C181.085 51.7696 183.279 50.8568 185.285 49.5573C185.482 49.4294 185.614 49.2247 185.651 48.9942C185.688 48.763 185.625 48.5268 185.478 48.3441C184.457 47.0767 184.554 45.25 185.706 44.0953C186.856 42.9413 188.68 42.8437 189.944 43.8673ZM184.541 42.9275C183.016 44.4563 182.708 46.7624 183.684 48.6055C182.282 49.4263 180.787 50.048 179.223 50.4606C178.615 48.4644 176.771 47.0503 174.612 47.0503C172.453 47.0503 170.609 48.4638 170.001 50.4606C168.438 50.048 166.943 49.4263 165.54 48.6055C166.517 46.7624 166.21 44.4563 164.684 42.9275C163.158 41.3993 160.859 41.0913 159.021 42.0689C158.201 40.6642 157.582 39.1662 157.169 37.5965C159.161 36.9867 160.571 35.1379 160.571 32.9742C160.571 30.8098 159.161 28.961 157.169 28.3518C157.582 26.7815 158.201 25.2835 159.021 23.8788C160.859 24.8577 163.158 24.549 164.684 23.0202C166.21 21.4914 166.517 19.1859 165.54 17.3422C166.943 16.5214 168.438 15.9003 170.001 15.4871C170.609 17.4845 172.453 18.8981 174.612 18.8981C176.771 18.8981 178.615 17.4833 179.223 15.4871C180.787 15.9003 182.282 16.5214 183.684 17.3422C182.708 19.1859 183.016 21.4914 184.541 23.0202C186.065 24.5478 188.364 24.8571 190.205 23.8788C191.023 25.2842 191.644 26.7834 192.055 28.3518C190.063 28.961 188.653 30.8098 188.653 32.9742C188.653 35.1379 190.063 36.9867 192.055 37.5965C191.644 39.165 191.023 40.6629 190.205 42.0689C188.366 41.0913 186.066 41.3993 184.541 42.9275Z" fill="white"/>
<path d="M205.641 36.5445C205.691 36.091 206.094 35.7584 206.551 35.817C207.003 35.868 207.328 36.2768 207.276 36.7297C207.181 37.5763 207.051 38.428 206.892 39.2601C206.816 39.6551 206.471 39.9291 206.084 39.9291C206.032 39.9291 205.98 39.924 205.927 39.9146C205.48 39.8283 205.188 39.3955 205.274 38.947C205.426 38.1571 205.549 37.3483 205.641 36.5445Z" fill="white"/>
<path d="M145.611 44.9589C145.436 44.5382 144.953 44.3397 144.536 44.5123C144.115 44.6868 143.915 45.17 144.09 45.5907C144.416 46.38 144.775 47.1618 145.156 47.9139C145.302 48.1999 145.591 48.3655 145.891 48.3655C146.017 48.3655 146.144 48.3365 146.263 48.2761C146.669 48.0695 146.831 47.5718 146.625 47.1655C146.262 46.4512 145.922 45.7085 145.611 44.9589Z" fill="white"/>
<path d="M200.739 50.1482C200.988 49.7665 201.5 49.6594 201.879 49.9101C202.26 50.1601 202.366 50.6716 202.116 51.0527C201.651 51.7645 201.152 52.4663 200.635 53.1384C200.473 53.3488 200.229 53.4596 199.982 53.4596C199.807 53.4596 199.63 53.403 199.48 53.2877C199.12 53.0086 199.054 52.4902 199.331 52.1293C199.823 51.4905 200.297 50.8234 200.739 50.1482Z" fill="white"/>
<path d="M203.364 16.9636C202.953 16.2228 202.508 15.4871 202.039 14.7759C201.787 14.3948 201.276 14.2915 200.898 14.5428C200.518 14.7948 200.414 15.3063 200.665 15.6874C201.111 16.362 201.534 17.0619 201.924 17.7649C202.074 18.037 202.355 18.19 202.645 18.19C202.78 18.19 202.917 18.1567 203.044 18.0861C203.441 17.865 203.585 17.3617 203.364 16.9636Z" fill="white"/>
<path d="M198.296 12.1227C198.072 12.1227 197.849 12.0314 197.687 11.8531C197.144 11.2541 196.571 10.6714 195.986 10.1196C195.654 9.80776 195.639 9.28493 195.95 8.95297C196.261 8.61911 196.785 8.60526 197.113 8.91643C197.73 9.49722 198.332 10.1108 198.905 10.7407C199.211 11.0783 199.187 11.5999 198.851 11.9073C198.692 12.0515 198.494 12.1227 198.296 12.1227Z" fill="white"/>
<path d="M149.149 51.3148C148.883 50.9457 148.369 50.8606 148 51.1283C147.63 51.3954 147.547 51.9113 147.814 52.2804C148.309 52.9696 148.837 53.6474 149.385 54.2955C149.548 54.4889 149.781 54.5885 150.015 54.5885C150.203 54.5885 150.391 54.5236 150.546 54.3932C150.893 54.0984 150.936 53.5774 150.643 53.2297C150.122 52.613 149.62 51.9686 149.149 51.3148Z" fill="white"/>
<path d="M145.094 18.1579C145.476 17.3982 145.891 16.6442 146.331 15.9161C146.565 15.5261 147.072 15.4014 147.461 15.637C147.851 15.8732 147.975 16.3803 147.739 16.7708C147.322 17.4619 146.927 18.1787 146.566 18.8993C146.421 19.1878 146.131 19.3541 145.829 19.3541C145.705 19.3541 145.579 19.3258 145.46 19.2666C145.054 19.0612 144.89 18.5648 145.094 18.1579Z" fill="white"/>
<path d="M143.249 33.1127L143.247 32.9742C143.247 32.166 143.279 31.3484 143.34 30.5433C143.375 30.0885 143.036 29.6917 142.582 29.657C142.111 29.6281 141.732 29.9625 141.698 30.4173C141.633 31.2646 141.601 32.125 141.601 32.9887L141.601 33.1127C141.601 33.5688 141.97 33.9386 142.425 33.9386C142.88 33.9386 143.249 33.5688 143.249 33.1127Z" fill="white"/>
<path d="M205.698 25.0668C205.624 25.0876 205.55 25.0971 205.475 25.0971C205.116 25.0971 204.785 24.859 204.684 24.4942C204.466 23.7163 204.216 22.9384 203.94 22.1818C203.783 21.7535 204.001 21.2785 204.429 21.1223C204.858 20.9636 205.328 21.1853 205.485 21.6124C205.777 22.4099 206.041 23.23 206.27 24.0489C206.392 24.4886 206.136 24.944 205.698 25.0668Z" fill="white"/>
<path d="M190.271 60.1053C189.573 60.5128 188.853 60.8964 188.131 61.246C187.722 61.4432 187.55 61.937 187.748 62.3477C187.889 62.6432 188.183 62.8151 188.49 62.8151C188.61 62.8151 188.731 62.7881 188.847 62.7326C189.607 62.366 190.365 61.9616 191.101 61.532C191.493 61.3021 191.626 60.7969 191.397 60.4026C191.169 60.0089 190.665 59.876 190.271 60.1053Z" fill="white"/>
<path d="M203.987 43.6323C204.141 43.2034 204.613 42.9791 205.042 43.1366C205.47 43.2916 205.691 43.7646 205.537 44.1936C205.25 44.9911 204.926 45.7898 204.576 46.5671C204.438 46.872 204.138 47.0528 203.824 47.0528C203.711 47.0528 203.596 47.0295 203.486 46.9791C203.071 46.7914 202.887 46.3026 203.075 45.8868C203.408 45.1492 203.715 44.3901 203.987 43.6323Z" fill="white"/>
<path d="M144.115 40.3385C143.927 39.558 143.767 38.7562 143.639 37.9537C143.568 37.5039 143.147 37.1971 142.696 37.2689C142.247 37.3407 141.942 37.764 142.013 38.2151C142.147 39.0592 142.316 39.9032 142.513 40.724C142.603 41.1032 142.941 41.3571 143.313 41.3571C143.376 41.3571 143.442 41.3495 143.506 41.3344C143.948 41.2273 144.221 40.7813 144.115 40.3385Z" fill="white"/>
<path d="M166.841 63.3909C167.614 63.5874 168.412 63.7575 169.213 63.8955C169.661 63.9729 169.962 64.3994 169.885 64.8492C169.816 65.2504 169.468 65.5345 169.074 65.5345C169.028 65.5345 168.981 65.5307 168.933 65.5225C168.091 65.377 167.251 65.1981 166.436 64.9921C165.995 64.88 165.728 64.4309 165.84 63.988C165.952 63.5465 166.401 63.2807 166.841 63.3909Z" fill="white"/>
<path d="M169.076 2.07681C169.869 1.9376 170.678 1.82674 171.479 1.74863C171.931 1.70516 172.263 1.30139 172.218 0.847218C172.175 0.394309 171.778 0.0686427 171.319 0.105808C170.477 0.187067 169.626 0.303601 168.79 0.451631C168.342 0.530371 168.043 0.958713 168.122 1.40784C168.193 1.80847 168.54 2.09004 168.932 2.09004C168.98 2.09004 169.028 2.08563 169.076 2.07681Z" fill="white"/>
<path d="M186.073 3.73727C185.975 3.73727 185.874 3.71963 185.777 3.68247C185.028 3.39271 184.256 3.1294 183.481 2.89759C183.047 2.76783 182.798 2.30736 182.929 1.87083C183.057 1.43493 183.511 1.18548 183.953 1.31588C184.767 1.55902 185.58 1.83682 186.369 2.14043C186.793 2.30421 187.005 2.78232 186.842 3.20814C186.716 3.53633 186.404 3.73727 186.073 3.73727Z" fill="white"/>
<path d="M192.207 7.07015C192.35 7.16779 192.511 7.2144 192.672 7.2144C192.934 7.2144 193.193 7.08905 193.352 6.85472C193.609 6.47866 193.513 5.96465 193.137 5.70765C192.433 5.2245 191.705 4.76592 190.977 4.34451C190.583 4.11585 190.079 4.25128 189.852 4.64687C189.624 5.04183 189.759 5.54639 190.153 5.77442C190.846 6.17504 191.537 6.61157 192.207 7.07015Z" fill="white"/>
<path d="M160.054 60.7912C160.768 61.1654 161.505 61.5169 162.247 61.8337C162.664 62.0133 162.859 62.4989 162.68 62.9178C162.546 63.2309 162.242 63.4186 161.922 63.4186C161.814 63.4186 161.704 63.3978 161.598 63.3525C160.818 63.018 160.041 62.6482 159.29 62.2539C158.887 62.0422 158.732 61.5433 158.942 61.1396C159.154 60.7364 159.649 60.5783 160.054 60.7912Z" fill="white"/>
<path d="M151.016 9.85753C150.422 10.4648 149.845 11.1029 149.301 11.7542C149.008 12.1032 149.053 12.6241 149.402 12.917C149.557 13.0468 149.744 13.1104 149.93 13.1104C150.166 13.1104 150.399 13.0103 150.562 12.815C151.08 12.1964 151.628 11.5904 152.192 11.0141C152.51 10.6884 152.506 10.1649 152.181 9.84619C151.855 9.52619 151.334 9.53249 151.016 9.85753Z" fill="white"/>
<path d="M152.889 56.7699C153.188 56.4265 153.707 56.3888 154.051 56.6873C154.659 57.2158 155.297 57.728 155.944 58.2086C156.31 58.4794 156.387 58.9972 156.116 59.3632C155.954 59.5824 155.706 59.6977 155.454 59.6977C155.284 59.6977 155.112 59.6454 154.964 59.5358C154.282 59.03 153.613 58.4914 152.972 57.9352C152.628 57.6366 152.591 57.115 152.889 56.7699Z" fill="white"/>
<path d="M206.345 28.3449C205.893 28.3985 205.57 28.8085 205.624 29.2621C205.718 30.064 205.782 30.8791 205.815 31.6866C205.833 32.1307 206.198 32.4791 206.637 32.4791C206.648 32.4791 206.659 32.4791 206.671 32.4784C207.125 32.4595 207.479 32.0759 207.46 31.6205C207.427 30.7707 207.359 29.9128 207.259 29.0681C207.206 28.6151 206.8 28.2895 206.345 28.3449Z" fill="white"/>
<path d="M174.544 64.3484C175.187 64.3477 175.834 64.3276 176.467 64.2898C176.915 64.2728 177.311 64.6092 177.339 65.0639C177.366 65.5194 177.02 65.9106 176.567 65.9376C175.901 65.978 175.221 65.9987 174.545 66L174.016 65.9956C173.56 65.9893 173.197 65.6145 173.203 65.1591C173.209 64.7024 173.594 64.3339 174.038 64.3446L174.544 64.3484Z" fill="white"/>
<path d="M183.615 63.0111C182.846 63.2429 182.056 63.4495 181.268 63.6227C180.823 63.7203 180.542 64.1606 180.639 64.6054C180.724 64.9921 181.064 65.2548 181.443 65.2548C181.502 65.2548 181.561 65.2485 181.62 65.2353C182.45 65.0532 183.282 64.8365 184.09 64.5909C184.526 64.4599 184.773 63.9988 184.641 63.5622C184.511 63.1251 184.05 62.8788 183.615 63.0111Z" fill="white"/>
<path d="M143.282 26.3777C143.22 26.3777 143.156 26.3708 143.092 26.3563C142.649 26.2511 142.376 25.8064 142.48 25.3629C142.675 24.532 142.905 23.7024 143.163 22.8961C143.301 22.4621 143.761 22.224 144.197 22.3613C144.631 22.5006 144.87 22.9648 144.731 23.3995C144.487 24.1648 144.268 24.9528 144.083 25.7415C143.993 26.1213 143.655 26.3777 143.282 26.3777Z" fill="white"/>
<path d="M200.835 58.0568H195.967C196.393 57.6908 196.814 57.3179 197.216 56.9355C197.546 56.6212 197.559 56.0984 197.246 55.7677C196.932 55.4376 196.412 55.4244 196.082 55.7374C195.571 56.2237 195.032 56.6962 194.483 57.1522V51.6883C194.483 51.2316 194.114 50.8625 193.659 50.8625C193.204 50.8625 192.836 51.2316 192.836 51.6883V58.8826C192.836 59.3393 193.204 59.7084 193.659 59.7084H200.835C201.29 59.7084 201.658 59.3393 201.658 58.8826C201.658 58.4265 201.29 58.0568 200.835 58.0568Z" fill="white"/>
<path d="M156.15 14.4868C156.15 14.9428 155.782 15.312 155.327 15.312C154.872 15.312 154.504 14.9428 154.504 14.4868V8.1177H148.15C147.695 8.1177 147.327 7.74857 147.327 7.29188C147.327 6.83582 147.695 6.46669 148.15 6.46669H154.893C155.563 5.96591 156.258 5.48718 156.96 5.04246C157.346 4.79805 157.855 4.91458 158.096 5.29883C158.339 5.68434 158.224 6.19394 157.839 6.43709C157.268 6.80055 156.703 7.19047 156.15 7.59361V14.4868Z" fill="white"/>
</svg>
