<svg width="800" height="800" viewBox="0 0 800 800" fill="none" xmlns="http://www.w3.org/2000/svg">
<path opacity="0.4" d="M702.673 286.001V514C702.673 551.333 682.673 586 650.34 605L452.34 719.333C420.007 738 380.007 738 347.34 719.333L149.339 605C117.005 586.333 97.0054 551.667 97.0054 514V286.001C97.0054 248.668 117.005 214 149.339 195L347.34 80.6666C379.673 62 419.673 62 452.34 80.6666L650.34 195C682.673 214 702.673 248.334 702.673 286.001Z" fill="#292D32"/>
<path d="M400 458.333C386.333 458.333 375 447 375 433.333V258.333C375 244.667 386.333 233.333 400 233.333C413.667 233.333 425 244.667 425 258.333V433.333C425 447 413.667 458.333 400 458.333Z" fill="#292D32"/>
<path d="M400 574.997C395.667 574.997 391.333 573.993 387.333 572.327C383 570.66 379.667 568.33 376.333 565.33C373.333 561.997 371 558.33 369 554.33C367.333 550.33 366.667 545.997 366.667 541.663C366.667 532.997 370 524.327 376.333 517.993C379.667 514.993 383 512.663 387.333 510.997C399.667 505.663 414.333 508.66 423.667 517.993C426.667 521.327 429 524.663 430.667 528.997C432.333 532.997 433.333 537.33 433.333 541.663C433.333 545.997 432.333 550.33 430.667 554.33C429 558.33 426.667 561.997 423.667 565.33C417.333 571.663 409 574.997 400 574.997Z" fill="#292D32"/>
</svg>
