<svg width="100" height="100" viewBox="0 0 100 100" fill="none" xmlns="http://www.w3.org/2000/svg">
<path d="M50.0125 0H49.9875C22.4188 0 0 22.425 0 50C0 60.9375 3.525 71.075 9.51875 79.3063L3.2875 97.8812L22.5063 91.7375C30.4125 96.975 39.8438 100 50.0125 100C77.5812 100 100 77.5687 100 50C100 22.4313 77.5812 0 50.0125 0Z" fill="#4CAF50"/>
<path d="M79.1064 70.6062C77.9002 74.0124 73.1127 76.8374 69.2939 77.6624C66.6814 78.2187 63.2689 78.6624 51.7814 73.8999C37.0877 67.8124 27.6252 52.8812 26.8877 51.9124C26.1814 50.9437 20.9502 44.0062 20.9502 36.8312C20.9502 29.6562 24.5939 26.1624 26.0627 24.6624C27.2689 23.4312 29.2627 22.8687 31.1752 22.8687C31.7939 22.8687 32.3502 22.8999 32.8502 22.9249C34.3189 22.9874 35.0564 23.0749 36.0252 25.3937C37.2314 28.2999 40.1689 35.4749 40.5189 36.2124C40.8752 36.9499 41.2314 37.9499 40.7314 38.9187C40.2627 39.9187 39.8502 40.3624 39.1127 41.2124C38.3752 42.0624 37.6752 42.7124 36.9377 43.6249C36.2627 44.4187 35.5002 45.2687 36.3502 46.7374C37.2002 48.1749 40.1377 52.9687 44.4627 56.8186C50.0439 61.7874 54.5689 63.3749 56.1877 64.0499C57.3939 64.5499 58.8314 64.4312 59.7127 63.4937C60.8314 62.2874 62.2127 60.2874 63.6189 58.3187C64.6189 56.9062 65.8814 56.7312 67.2064 57.2312C68.5564 57.6999 75.7002 61.2312 77.1689 61.9624C78.6377 62.6999 79.6064 63.0499 79.9627 63.6687C80.3127 64.2874 80.3127 67.1937 79.1064 70.6062Z" fill="#FAFAFA"/>
</svg>
