<svg width="180" height="150" viewBox="0 0 180 150" fill="none" xmlns="http://www.w3.org/2000/svg">
<g clip-path="url(#clip0_270_137)">
<path d="M137.913 29.8859V20.7094C137.913 18.0824 135.711 15.9435 133.006 15.9435H86.4182C83.7137 15.9435 81.5117 18.0822 81.5117 20.7094V29.8859C81.5117 32.5129 83.7135 34.6519 86.4182 34.6519H133.006C135.711 34.6517 137.913 32.5129 137.913 29.8859ZM86.3449 29.8859L86.4182 20.6383H133.006C133.046 20.6383 133.079 20.6704 133.079 20.7094L133.006 29.9571L86.3449 29.8859Z" fill="#0014CD" fill-opacity="0.8"/>
<path d="M93.5973 59.5953C92.2616 59.5953 91.1807 60.6453 91.1807 61.9427C91.1807 63.2401 92.2616 64.2901 93.5973 64.2901H137.032C138.368 64.2901 139.449 63.2401 139.449 61.9427C139.449 60.6453 138.368 59.5953 137.032 59.5953H93.5973Z" fill="#0014CD" fill-opacity="0.8"/>
<path d="M125.698 71.6718H93.5973C92.2616 71.6718 91.1807 72.7218 91.1807 74.0193C91.1807 75.3167 92.2616 76.3667 93.5973 76.3667H125.698C127.033 76.3667 128.114 75.3167 128.114 74.0193C128.114 72.7218 127.033 71.6718 125.698 71.6718Z" fill="#0014CD" fill-opacity="0.8"/>
<path d="M112.725 104.886H93.5973C92.2616 104.886 91.1807 105.936 91.1807 107.234C91.1807 108.531 92.2616 109.581 93.5973 109.581H112.725C114.06 109.581 115.141 108.531 115.141 107.234C115.141 105.936 114.06 104.886 112.725 104.886Z" fill="#0014CD" fill-opacity="0.8"/>
<path d="M107.733 116.963H93.5973C92.2616 116.963 91.1807 118.013 91.1807 119.31C91.1807 120.608 92.2616 121.658 93.5973 121.658H107.733C109.069 121.658 110.15 120.608 110.15 119.31C110.15 118.013 109.069 116.963 107.733 116.963Z" fill="#0014CD" fill-opacity="0.8"/>
<path d="M73.509 51.6086H53.5462C49.756 51.6086 46.6738 54.6025 46.6738 58.2842V77.6755C46.6738 81.3572 49.756 84.3511 53.5462 84.3511H73.509C77.2993 84.3511 80.3814 81.3572 80.3814 77.6755V58.284C80.3814 54.6025 77.2993 51.6086 73.509 51.6086ZM75.5482 77.6755C75.5482 78.7666 74.6325 79.6563 73.509 79.6563H53.5462C52.4229 79.6563 51.507 78.7669 51.507 77.6755V58.284C51.507 57.1929 52.4227 56.3032 53.5462 56.3032H73.509C74.6323 56.3032 75.5482 57.1927 75.5482 58.284V77.6755Z" fill="#0014CD" fill-opacity="0.8"/>
<path d="M73.509 96.8995H53.5462C49.756 96.8995 46.6738 99.8958 46.6738 103.577V122.966C46.6738 126.648 49.756 129.642 53.5462 129.642H73.509C77.2993 129.642 80.3814 126.648 80.3814 122.966V103.577C80.3814 99.8958 77.2993 96.8995 73.509 96.8995ZM75.5482 122.966C75.5482 124.058 74.6325 124.947 73.509 124.947H53.5462C52.4229 124.947 51.507 124.058 51.507 122.966V103.577C51.507 102.484 52.4227 101.595 53.5462 101.595H73.509C74.6323 101.595 75.5482 102.484 75.5482 103.577V122.966Z" fill="#0014CD" fill-opacity="0.8"/>
<path d="M66.3257 63.7124L61.6554 67.057L60.5981 65.6241C59.8216 64.5697 58.3161 64.3267 57.2257 65.0854C56.1426 65.842 55.8922 67.3068 56.6711 68.3612L59.1561 71.7265C59.9524 72.7997 61.4828 73.0171 62.5546 72.2469L69.1954 67.4901C70.2691 66.7223 70.4982 65.2504 69.7051 64.2075C68.9119 63.1645 67.3994 62.9422 66.3257 63.7124Z" fill="#0014CD" fill-opacity="0.8"/>
<path d="M66.656 109.004L61.9856 112.348L60.9284 110.918C60.1495 109.863 58.6391 109.62 57.556 110.379C56.4704 111.135 56.2225 112.603 57.0014 113.655L59.4864 117.018C59.8641 117.529 60.4351 117.87 61.0724 117.969C61.1997 117.987 61.3249 117.997 61.4501 117.997C61.9622 117.997 62.4673 117.838 62.8851 117.538L69.5259 112.781C70.5996 112.013 70.8287 110.542 70.0356 109.499C69.2449 108.456 67.7321 108.233 66.656 109.004Z" fill="#0014CD" fill-opacity="0.8"/>
<path d="M174.126 50.3286C167.614 45.8392 158.404 47.9789 154.069 54.3897L153.561 55.1408V20.9859C153.561 9.41314 143.871 0 131.957 0H68.859C63.5568 0 58.0114 1.9716 53.8036 5.96244L36.5248 22.277C32.2238 26.3242 30 31.7953 30 37.3005V129.014C30 140.587 39.6906 150 51.6045 150H131.957C143.871 150 153.561 140.587 153.561 129.014V104.648L177.703 68.8263C181.8 62.7871 180.302 54.5772 174.126 50.3286ZM39.9081 25.6338L57.1868 9.31925C58.6428 7.90493 60.8299 6.48052 62.9384 5.79812V27.5587C62.9384 29.5305 61.2709 31.1268 59.2409 31.1268H36.114C37.2095 28.6791 38.5074 26.9324 39.9081 25.6338ZM148.728 129.014C148.728 138.005 141.212 145.305 131.956 145.305H51.6042C42.3486 145.305 34.833 138.005 34.833 129.014V37.3005C34.833 36.8075 34.8571 36.3146 34.9055 35.8216H59.2407C63.9531 35.8216 67.7713 32.1127 67.7713 27.5587V4.74178C68.9001 4.66855 130.821 4.69484 131.956 4.69484C141.212 4.69484 148.728 12.0188 148.728 20.9859V62.3239L127.341 94.061C125.642 96.5721 124.455 99.8289 124.272 103.028L123.281 118.568C123.208 119.977 123.909 121.315 125.117 122.089C126.362 122.91 127.944 122.934 129.201 122.324L143.459 115.235C145.316 114.29 147.023 113.091 148.727 111.291L148.728 129.014ZM129.395 101.244L143.073 109.953C142.603 110.334 141.822 110.762 141.26 111.056L128.187 117.535L129.105 103.31C129.144 102.74 129.215 101.881 129.395 101.315V101.244ZM146.625 106.362C146.601 106.408 146.553 106.455 146.505 106.502L131.256 96.8075C131.304 96.7371 131.328 96.6901 131.377 96.6197L153.174 64.2958L168.447 73.9906L146.625 106.362ZM173.667 66.2441L171.082 70.0939L155.857 60.3991L158.298 56.7136L158.322 56.6904C161.277 52.6437 167.141 51.342 171.347 54.1552C175.481 57.038 176.262 62.4312 173.667 66.2441Z" fill="#0014CD" fill-opacity="0.8"/>
</g>
<defs>
<clipPath id="clip0_270_137">
<rect width="150" height="150" fill="white" transform="translate(30)"/>
</clipPath>
</defs>
</svg>
